<?xml version="1.0" standalone="no"?>
<!DOCTYPE svg PUBLIC "-//W3C//DTD SVG 1.1//EN" "http://www.w3.org/Graphics/SVG/1.1/DTD/svg11.dtd" >
<svg>
<metadata>
Created by FontForge 20110222 at Sat Mar 22 22:02:24 2014
 By Orthosie Webhosting
Copyright Unity Progress 1N-P1-ET-26704
</metadata>
<defs>
<font id="DilleniaUPCplRegular" horiz-adv-x="0" >
  <font-face 
    font-family="DilleniaUPCplRegular"
    font-weight="400"
    font-stretch="normal"
    units-per-em="4096"
    panose-1="2 2 6 3 5 4 5 2 3 4"
    ascent="3276"
    descent="-820"
    x-height="1307"
    cap-height="1901"
    bbox="-1585 -1720 3211 3625"
    underline-thickness="20"
    underline-position="-123"
    unicode-range="U+0020-F71D"
  />
<missing-glyph horiz-adv-x="1497" 
d="M136 0v2730h1089v-2730h-1089zM272 136h817v2458h-817v-2458z" />
    <glyph glyph-name=".notdef" horiz-adv-x="1497" 
d="M136 0v2730h1089v-2730h-1089zM272 136h817v2458h-817v-2458z" />
    <glyph glyph-name="glyph1" 
 />
    <glyph glyph-name="glyph2" 
 />
    <glyph glyph-name="space" unicode=" " horiz-adv-x="909" 
 />
    <glyph glyph-name="exclam" unicode="!" horiz-adv-x="868" 
d="M528 1901l-36 -1475h-111l-37 1475h184zM352 0v180h164v-180h-164z" />
    <glyph glyph-name="quotedbl" unicode="&#x22;" horiz-adv-x="1016" 
d="M426 1901v-562h-131v562h131zM721 1901v-562h-131v562h131z" />
    <glyph glyph-name="numbersign" unicode="#" horiz-adv-x="1307" 
d="M229 0l82 623h-295v127h312l57 426h-299v127h315l82 598h135l-81 -598h364l78 598h135l-82 -598h262v-127h-278l-53 -426h262v-127h-283l-82 -623h-135l82 623h-361l-86 -623h-131zM885 1176h-365l-57 -426h364z" />
    <glyph glyph-name="dollar" unicode="$" horiz-adv-x="1307" 
d="M602 1069v733q-150 0 -255 -106t-105 -283q0 -99 53 -165.5t126.5 -104t180.5 -74.5zM717 848v-750q148 14 246 111.5t98 265.5q0 173 -68.5 232t-238.5 129zM94 0v610h119q3 -210 105.5 -350t283.5 -162v791l-180 69q-328 125 -328 431q0 253 144.5 396.5t363.5 143.5
v238h115v-238q211 -24 332 -254h12v226h115v-611h-123q-6 435 -336 512v-774l110 -45q197 -73 289 -175.5t92 -320.5q0 -231 -143.5 -368t-347.5 -148v-266h-115v266q-261 37 -389 271h-4v-242h-115z" />
    <glyph glyph-name="percent" unicode="%" horiz-adv-x="2036" 
d="M1204 467q0 211 71 351t241 140q166 0 238.5 -140t72.5 -351q0 -214 -73 -355t-238 -141q-312 0 -312 496zM1335 467q0 -397 181 -397q180 0 180 397q0 393 -180 393q-181 0 -181 -393zM209 1438q0 211 70.5 351t240.5 140q168 0 239.5 -140.5t71.5 -350.5
q0 -214 -72 -355t-239 -141q-311 0 -311 496zM340 1438q0 -398 180 -398t180 398q0 393 -180 393t-180 -393zM487 -53l943 2007h110l-938 -2007h-115z" />
    <glyph glyph-name="ampersand" unicode="&#x26;" horiz-adv-x="2036" 
d="M1176 344l-537 610q-340 -170 -340 -454q0 -183 121 -292.5t289 -109.5q134 0 267 66t200 180zM438 1524q0 -59 22 -112t59.5 -103.5t96.5 -113.5t64 -69q116 71 176 114.5t108 115t48 172.5q0 130 -79 202t-200 72q-77 0 -145.5 -34t-109 -97t-40.5 -147zM1786 1114
v-127h-225q-14 -348 -185 -622l209 -238h266v-127h-364l-217 250q-202 -279 -561 -279q-156 0 -282.5 59.5t-200.5 181.5t-74 296q0 187 112 331.5t281 217.5q-127 142 -188.5 242t-61.5 229q0 193 131.5 297t310.5 104q177 0 299.5 -101.5t122.5 -287.5q0 -185 -104.5 -306
t-284.5 -214l500 -549q143 214 143 516h-205v127h578z" />
    <glyph glyph-name="quotesingle" unicode="'" horiz-adv-x="725" 
d="M426 1901v-562h-127v562h127z" />
    <glyph glyph-name="parenleft" unicode="(" horiz-adv-x="725" 
d="M532 2101h119q-360 -566 -360 -1224q0 -223 42 -434t122.5 -409t195.5 -382h-119q-389 608 -389 1225q0 314 104.5 637t284.5 587z" />
    <glyph glyph-name="parenright" unicode=")" horiz-adv-x="725" 
d="M197 -348h-119q173 276 266.5 588t93.5 637q0 629 -360 1224h119q385 -612 385 -1224q0 -318 -104.5 -643t-280.5 -582z" />
    <glyph glyph-name="asterisk" unicode="*" horiz-adv-x="1159" 
d="M537 1520l-29 381h156l-41 -385l323 151l41 -164l-344 -73l229 -304l-127 -94l-163 344l-189 -340l-119 107l242 287l-344 90l49 159z" />
    <glyph glyph-name="plus" unicode="+" horiz-adv-x="1569" 
d="M717 807v663h135v-663h594v-143h-594v-664h-135v664h-590v143h590z" />
    <glyph glyph-name="comma" unicode="," horiz-adv-x="651" 
d="M246 0v197h184v-197l-115 -365h-102l123 365h-90z" />
    <glyph glyph-name="hyphen" unicode="-" horiz-adv-x="868" 
d="M127 709v147h618v-147h-618z" />
    <glyph glyph-name="period" unicode="." horiz-adv-x="651" 
d="M238 0v197h184v-197h-184z" />
    <glyph glyph-name="slash" unicode="/" horiz-adv-x="868" 
d="M33 -29l667 1958h140l-672 -1958h-135z" />
    <glyph glyph-name="zero" unicode="0" horiz-adv-x="1270" 
d="M1028 950q0 795 -397 795q-393 0 -393 -795q0 -325 79.5 -590.5t313.5 -265.5q235 0 316 265t81 591zM1171 950q0 -979 -540 -979q-533 0 -533 979q0 398 109.5 658t423.5 260q320 0 430 -258t110 -660z" />
    <glyph glyph-name="one" unicode="1" horiz-adv-x="1270" 
d="M319 0v123h263v1544q-144 -172 -410 -373v172q263 218 397 377h156v-1720h250v-123h-656z" />
    <glyph glyph-name="two" unicode="2" horiz-adv-x="1270" 
d="M90 0v205l385 413q213 235 299.5 337t147.5 209.5t61 199.5q0 381 -352 381q-162 0 -257 -127t-100 -320h-143q0 172 67 301t184 199t265 70q213 0 346 -125.5t133 -353.5q0 -157 -95.5 -315.5t-334.5 -426.5l-483 -524h815v295h131v-418h-1069z" />
    <glyph glyph-name="three" unicode="3" horiz-adv-x="1270" 
d="M545 868v127q430 0 430 381q0 182 -95 275.5t-257 93.5q-157 0 -254 -109.5t-103 -292.5h-139q6 247 147.5 386t364.5 139q228 0 355.5 -133t127.5 -387q0 -162 -102 -273.5t-254 -144.5v-4q369 -70 369 -459q0 -241 -149.5 -368.5t-375.5 -127.5q-223 0 -361 144.5
t-138 396.5h139q0 -418 393 -418q143 0 245.5 110.5t102.5 274.5q0 389 -446 389z" />
    <glyph glyph-name="four" unicode="4" horiz-adv-x="1270" 
d="M586 0v123h250v405h-787v185l750 1130h180v-1188h233v-127h-233v-405h229v-123h-622zM164 655h672v1012h-5z" />
    <glyph glyph-name="five" unicode="5" horiz-adv-x="1270" 
d="M1114 1843v-127h-778l-29 -782l4 -4q48 111 151.5 176t221.5 65q160 0 273.5 -76.5t172 -210t58.5 -302.5q0 -178 -69 -318t-192 -216.5t-280 -76.5q-214 0 -357 136.5t-143 371.5h144q0 -170 102.5 -277.5t257.5 -107.5q185 0 291.5 141t106.5 343q0 208 -99 337
t-274 129q-133 0 -229 -71.5t-136 -210.5h-143l25 1081h921z" />
    <glyph glyph-name="six" unicode="6" horiz-adv-x="1270" 
d="M1130 1393h-139q0 138 -80.5 245t-226.5 107q-401 0 -446 -873h4q110 299 389 299q257 0 390.5 -160.5t133.5 -420.5q0 -181 -65 -323t-184.5 -219t-274.5 -77q-309 0 -421 221t-112 570q0 1106 590 1106q204 0 323 -127.5t119 -347.5zM238 578q0 -213 108 -348.5
t285 -135.5q184 0 282.5 138t98.5 358q0 206 -96 330t-285 124q-123 0 -211.5 -63.5t-135 -170t-46.5 -232.5z" />
    <glyph glyph-name="seven" unicode="7" horiz-adv-x="1270" 
d="M1176 1843v-192q-98 -177 -208 -437t-202.5 -503t-265.5 -711h-156q90 272 221 604t261.5 629.5t222.5 482.5h-844v-340h-123v467h1094z" />
    <glyph glyph-name="eight" unicode="8" horiz-adv-x="1270" 
d="M250 508q0 -195 107 -304.5t274 -109.5q176 0 278.5 119t102.5 295q0 180 -104.5 280.5t-276.5 100.5q-164 0 -272.5 -100.5t-108.5 -280.5zM274 1380q0 -179 100.5 -273.5t256.5 -94.5q171 0 265.5 97.5t94.5 279.5q0 173 -98.5 264.5t-261.5 91.5q-159 0 -258 -98
t-99 -267zM131 1405q0 222 149.5 342.5t350.5 120.5q147 0 260.5 -49.5t178.5 -153t65 -260.5q0 -172 -88 -297t-240 -150v-8q352 -97 352 -463q0 -257 -152.5 -386.5t-375.5 -129.5q-235 0 -377.5 136.5t-142.5 379.5q0 189 96.5 312.5t259.5 150.5v4q-336 76 -336 451z
" />
    <glyph glyph-name="nine" unicode="9" horiz-adv-x="1270" 
d="M135 446h139q0 -134 82.5 -243t225.5 -109q249 0 338 260.5t108 616.5h-4q-106 -299 -393 -299q-257 0 -386.5 158.5t-129.5 426.5q0 181 64 320t181.5 215t270.5 76q313 0 426.5 -219t113.5 -568q0 -1110 -593 -1110q-132 0 -232.5 58t-155.5 165.5t-55 251.5zM631 1745
q-178 0 -277.5 -137t-99.5 -351q0 -206 96.5 -332t280.5 -126q187 0 292 135.5t105 331.5q0 211 -109 345t-288 134z" />
    <glyph glyph-name="colon" unicode=":" horiz-adv-x="651" 
d="M422 1307v-197h-184v197h184zM238 0v197h184v-197h-184z" />
    <glyph glyph-name="semicolon" unicode=";" horiz-adv-x="651" 
d="M246 0v197h184v-197l-115 -365h-102l123 365h-90zM430 1307v-197h-184v197h184z" />
    <glyph glyph-name="less" unicode="&#x3c;" horiz-adv-x="1569" 
d="M1450 135v-160l-1327 680v160l1327 680v-160l-1167 -598z" />
    <glyph glyph-name="equal" unicode="=" horiz-adv-x="1569" 
d="M1446 1090v-144h-1319v144h1319zM1446 528v-147h-1319v147h1319z" />
    <glyph glyph-name="greater" unicode="&#x3e;" horiz-adv-x="1569" 
d="M123 135l1163 602l-1163 598v160l1327 -680v-160l-1327 -680v160z" />
    <glyph glyph-name="question" unicode="?" horiz-adv-x="1159" 
d="M229 1409h-143q19 520 500 520q215 0 355 -126t140 -378q0 -154 -60.5 -247.5t-184.5 -215.5t-189 -240t-65 -312h-148q0 230 63 360.5t190.5 252.5t176.5 187.5t49 202.5q0 177 -87.5 283t-256.5 106q-155 0 -243.5 -106t-96.5 -287zM426 0v180h164v-180h-164z" />
    <glyph glyph-name="at" unicode="@" horiz-adv-x="2093" 
d="M688 766q0 -117 61.5 -193.5t151.5 -76.5q105 0 199 107.5t150.5 260.5t56.5 275q0 64 -29 124.5t-74 99t-90 38.5q-117 0 -215.5 -102t-154.5 -251t-56 -282zM1569 1483l-230 -778q-24 -70 -24 -152q5 -51 69 -57q87 0 173.5 99t141 247t54.5 284q0 152 -54 279.5
t-146.5 215.5t-213 134.5t-254.5 46.5q-210 0 -381 -117t-267.5 -316t-96.5 -431q0 -227 101 -420.5t275 -306.5t378 -113q130 0 247.5 41.5t214 122.5t164.5 193h127q-238 -484 -753 -484q-256 0 -459.5 132.5t-316.5 359.5t-113 495q0 263 119.5 486.5t323.5 354
t437 130.5q220 0 404 -104.5t291.5 -291.5t107.5 -415q0 -198 -81.5 -372t-208.5 -277.5t-255 -103.5q-149 0 -155 172h-12q-155 -172 -312 -172q-144 0 -231.5 111t-87.5 278q0 186 73.5 366.5t206 294t297.5 113.5q184 0 258 -221l62 176h127z" />
    <glyph glyph-name="A" unicode="A" horiz-adv-x="1892" 
d="M1286 799l-348 950l-352 -950h700zM33 0v127h155l664 1774h192l648 -1774h155v-127h-581v127h262l-197 541h-794l-197 -541h262v-127h-569z" />
    <glyph glyph-name="B" unicode="B" horiz-adv-x="1602" 
d="M451 897v-770h229q176 0 299 20t215 107.5t92 269.5q0 172 -68.5 254t-160.5 100.5t-226 18.5h-380zM451 1774v-750h229q176 0 287.5 20t190.5 108t79 273q0 162 -74 238.5t-180.5 93.5t-282.5 17h-249zM66 0v127h237v1647h-237v127h577q214 0 368 -24t272 -128.5
t118 -323.5q0 -175 -90.5 -287.5t-249.5 -158.5v-8q186 -15 287.5 -130.5t101.5 -316.5q0 -239 -125.5 -355t-290 -142.5t-391.5 -26.5h-577z" />
    <glyph glyph-name="C" unicode="C" horiz-adv-x="1749" 
d="M1466 1642v259h131v-684h-135q-18 302 -147 443.5t-406 141.5q-326 0 -478 -257.5t-152 -622.5q0 -345 165.5 -584.5t456.5 -239.5q230 0 371.5 138.5t165.5 390.5h164q-26 -325 -219 -490.5t-494 -165.5q-366 0 -568 277.5t-202 689.5q0 292 91.5 517t274.5 349.5
t449 124.5q354 0 524 -287h8z" />
    <glyph glyph-name="D" unicode="D" horiz-adv-x="1749" 
d="M61 0v127h238v1647h-238v127h615q446 0 694 -218t248 -708q0 -523 -237.5 -749t-704.5 -226h-615zM446 1774v-1647h201q268 0 446 82.5t269.5 270.5t91.5 495q0 432 -205.5 615.5t-601.5 183.5h-201z" />
    <glyph glyph-name="E" unicode="E" horiz-adv-x="1602" 
d="M53 0v127h234v1647h-234v127h1352v-594h-131v467h-840v-750h443v283h131v-713h-131v303h-443v-770h856v467h131v-594h-1368z" />
    <glyph glyph-name="F" unicode="F" horiz-adv-x="1454" 
d="M57 0v127h238v1647h-238v127h1311v-562h-131v435h-799v-750h434v287h136v-713h-136v299h-434v-770h303v-127h-684z" />
    <glyph glyph-name="G" unicode="G" horiz-adv-x="1892" 
d="M1483 1618v283h127v-680h-127q-3 278 -150 429.5t-395 151.5q-227 0 -375.5 -119t-216 -316t-67.5 -437q0 -235 77 -424.5t226 -298.5t356 -109q549 0 549 713h-283v127h651v-127h-221v-811h-147v295h-4q-107 -189 -257 -256.5t-374 -67.5q-223 0 -390 140t-255 361
t-88 458q0 276 96 505.5t279.5 361.5t431.5 132q170 0 322 -81t227 -230h8z" />
    <glyph glyph-name="H" unicode="H" horiz-adv-x="1892" 
d="M74 0v127h237v1647h-237v127h643v-127h-258v-750h975v750h-263v127h648v-127h-238v-1647h225v-127h-635v127h263v770h-975v-770h258v-127h-643z" />
    <glyph glyph-name="I" unicode="I" horiz-adv-x="725" 
d="M53 0v127h238v1647h-238v127h619v-127h-234v-1647h234v-127h-619z" />
    <glyph glyph-name="J" unicode="J" horiz-adv-x="1159" 
d="M1069 1901v-127h-180v-996q0 -203 -10 -334.5t-51 -240.5t-131 -170.5t-242 -61.5q-224 0 -335.5 143.5t-111.5 385.5q0 61 4 94h148q0 -242 64 -369t235 -127q174 0 228 136t54 368v176v996h-278v127h606z" />
    <glyph glyph-name="K" unicode="K" horiz-adv-x="1602" 
d="M61 0v127h238v1647h-238v127h619v-127h-234v-766l779 766h-238v127h561v-127h-135l-790 -770l807 -877h118v-127h-544v127h233l-791 860v-860h234v-127h-619z" />
    <glyph glyph-name="L" unicode="L" horiz-adv-x="1454" 
d="M66 0v127h237v1647h-237v127h696v-127h-311v-1647h790v438h131v-565h-1306z" />
    <glyph glyph-name="M" unicode="M" horiz-adv-x="2322" 
d="M2249 1901v-127h-262v-1647h262v-127h-647v127h237v1647h-4l-606 -1774h-135l-602 1774h-9v-1647h234v-127h-639v127h262v1647h-262v127h516l565 -1668l570 1668h520z" />
    <glyph glyph-name="N" unicode="N" horiz-adv-x="1892" 
d="M61 0v127h222v1647h-222v127h451l942 -1774h4v1647h-262v127h631v-127h-221v-1774h-226l-946 1774h-8v-1647h262v-127h-627z" />
    <glyph glyph-name="O" unicode="O" horiz-adv-x="1892" 
d="M119 967q0 445 212.5 703.5t610.5 258.5t615 -259.5t217 -702.5q0 -295 -97 -521t-285 -350.5t-450 -124.5q-264 0 -449.5 124.5t-279.5 349.5t-94 522zM279 967q0 -260 69.5 -454.5t218.5 -304.5t375 -110q334 0 501 237.5t167 631.5q0 230 -73 420.5t-223.5 302.5
t-371.5 112q-225 0 -374.5 -112.5t-219 -300.5t-69.5 -422z" />
    <glyph glyph-name="P" unicode="P" horiz-adv-x="1454" 
d="M49 0v127h234v1647h-234v127h381h275q195 0 341 -37t240 -157.5t94 -354.5q0 -291 -165.5 -422t-415.5 -131h-369v-672h315v-127h-696zM430 1774v-848h275q217 0 366.5 75t149.5 351q0 255 -129.5 338.5t-346.5 83.5h-315z" />
    <glyph glyph-name="Q" unicode="Q" horiz-adv-x="1892" 
d="M1855 127v-127h-520q-168 0 -233 -16q-77 -13 -160 -13q-264 0 -449.5 124.5t-279.5 349.5t-94 522q0 445 212.5 703.5t610.5 258.5t615 -259.5t217 -702.5q0 -277 -112 -500t-319 -340v-8q32 0 89 4t88 4h335zM942 98q334 0 501 237.5t167 631.5q0 230 -73 420.5
t-223.5 302.5t-371.5 112q-225 0 -374.5 -112.5t-219 -300.5t-69.5 -422q0 -260 69.5 -454.5t218.5 -304.5t375 -110z" />
    <glyph glyph-name="R" unicode="R" horiz-adv-x="1602" 
d="M57 0v127h238v1647h-238v127h635q209 0 355 -30.5t246 -142t100 -331.5q0 -238 -97.5 -341.5t-283.5 -137.5v-9q99 -31 136 -56t65 -87t85 -246l119 -393h139v-127h-266l-164 561q-42 147 -70.5 200t-97.5 74t-225 21h-295v-729h238v-127h-619zM438 1774v-791h287
q153 0 260 26.5t177.5 118t70.5 269.5q0 168 -64 251t-167.5 104.5t-276.5 21.5h-287z" />
    <glyph glyph-name="S" unicode="S" horiz-adv-x="1454" 
d="M1139 1708v193h131v-627h-131q0 266 -105.5 397t-341.5 131q-151 0 -264 -101.5t-113 -270.5q0 -165 109 -232t366.5 -155t387 -202.5t129.5 -353.5q0 -157 -75 -274.5t-198.5 -179.5t-263.5 -62q-345 0 -479 279h-8v-250h-127v627h127q0 -238 120.5 -383.5t321.5 -145.5
q168 0 295 100t127 289q0 176 -121 258t-367.5 170.5t-374.5 194.5t-128 320q0 148 75 262.5t199 175.5t262 61q322 0 438 -221h9z" />
    <glyph glyph-name="T" unicode="T" horiz-adv-x="1602" 
d="M438 0v127h287v1647h-524v-435h-127v562h1450v-562h-131v435h-525v-1647h291v-127h-721z" />
    <glyph glyph-name="U" unicode="U" horiz-adv-x="1745" 
d="M25 1774v127h630v-127h-270v-959q0 -220 40 -376.5t146.5 -248.5t296.5 -92q282 0 387 188t105 529v959h-275v127h631v-127h-209v-959q0 -410 -140 -627t-499 -217q-352 0 -491 217t-139 627v959h-213z" />
    <glyph glyph-name="V" unicode="V" horiz-adv-x="1749" 
d="M1708 1901v-127h-135l-606 -1774h-176l-623 1774h-127v127h516v-127h-238l558 -1594l548 1594h-237v127h520z" />
    <glyph glyph-name="W" unicode="W" horiz-adv-x="2327" 
d="M2294 1901v-127h-135l-381 -1774h-201l-410 1729h-4l-426 -1729h-200l-373 1774h-131v127h536v-127h-258l328 -1594h4l414 1721h213l405 -1721h8l336 1594h-262v127h537z" />
    <glyph glyph-name="X" unicode="X" horiz-adv-x="1749" 
d="M29 0v127h155l598 844l-553 803h-180v127h590v-127h-238l467 -684l480 684h-234v127h586v-127h-180l-566 -807l590 -840h156v-127h-578v127h250l-504 721l-512 -721h238v-127h-565z" />
    <glyph glyph-name="Y" unicode="Y" horiz-adv-x="1602" 
d="M430 0v127h287v651l-561 996h-119v127h512v-127h-238l480 -848l495 848h-237v127h516v-127h-119l-582 -996v-651h291v-127h-725z" />
    <glyph glyph-name="Z" unicode="Z" horiz-adv-x="1602" 
d="M135 0v176l1139 1598h-991v-394h-127v521h1274v-164l-1147 -1610h1048v397h131v-524h-1327z" />
    <glyph glyph-name="bracketleft" unicode="[" horiz-adv-x="725" 
d="M578 2101v-110h-193v-2229h193v-110h-328v2449h328z" />
    <glyph glyph-name="backslash" unicode="\" horiz-adv-x="868" 
d="M168 1929l672 -1958h-140l-667 1958h135z" />
    <glyph glyph-name="bracketright" unicode="]" horiz-adv-x="725" 
d="M147 -348v110h201v2229h-201v110h328v-2449h-328z" />
    <glyph glyph-name="asciicircum" unicode="^" horiz-adv-x="1569" 
d="M266 586h-151l602 1315h135l602 -1315h-147l-525 1143z" />
    <glyph glyph-name="underscore" unicode="_" horiz-adv-x="1307" 
d="M74 -365v148h1159v-148h-1159z" />
    <glyph glyph-name="grave" unicode="`" horiz-adv-x="725" 
d="M78 1884h205l237 -389h-135z" />
    <glyph glyph-name="a" unicode="a" horiz-adv-x="1307" 
d="M950 0v262h-8q-50 -144 -171 -217.5t-267 -73.5q-186 0 -302 106.5t-116 311.5q0 169 95.5 257.5t227 114t291.5 25.5h250v95q0 348 -332 348q-303 0 -344 -283h-147q51 393 479 393q237 0 356 -105.5t119 -352.5v-770h181v-111h-312zM233 381q0 -137 87.5 -218
t211.5 -81q219 0 318.5 166.5t99.5 427.5h-270q-447 0 -447 -295z" />
    <glyph glyph-name="b" unicode="b" horiz-adv-x="1454" 
d="M45 0v111h201v1679h-201v111h336v-852h4q55 133 170 211.5t252 78.5q186 0 310 -83t181.5 -233t57.5 -355q0 -311 -139 -504t-410 -193q-147 0 -248.5 68.5t-173.5 214.5h-4v-254h-336zM381 643q0 -242 105 -401.5t313 -159.5q212 0 310.5 177.5t98.5 432.5
q0 237 -106 387t-311 150q-204 0 -307 -175t-103 -411z" />
    <glyph glyph-name="c" unicode="c" horiz-adv-x="1307" 
d="M1184 1307v-480h-103q-12 182 -116 292t-273 110q-125 0 -221 -73.5t-146.5 -196.5t-50.5 -271q0 -249 107 -427.5t311 -178.5q150 0 256 100t121 260h127q0 -156 -78.5 -263t-199.5 -157.5t-242 -50.5q-177 0 -301 101t-186 262t-62 338q0 288 147 477.5t402 189.5
q125 0 233 -55t152 -158h8v181h115z" />
    <glyph glyph-name="d" unicode="d" horiz-adv-x="1454" 
d="M229 668q0 -261 102 -423.5t324 -162.5q402 0 402 598q0 244 -99 396.5t-311 152.5q-209 0 -313.5 -160.5t-104.5 -400.5zM1057 0v254h-8q-53 -130 -164 -206.5t-242 -76.5q-281 0 -421 190t-140 507q0 193 64 345t190.5 239t302.5 87q133 0 246 -69.5t164 -200.5h8v721
h-209v111h340v-1790h196v-111h-327z" />
    <glyph glyph-name="e" unicode="e" horiz-adv-x="1307" 
d="M1217 627h-971q0 -246 110 -395.5t324 -149.5q145 0 254 82.5t135 236.5h127q-11 -201 -164.5 -315.5t-343.5 -114.5q-288 0 -439 182t-151 531q0 287 148 471t422 184t411.5 -190t137.5 -522zM246 737h823q-3 219 -110.5 355.5t-303.5 136.5q-179 0 -289.5 -140.5
t-119.5 -351.5z" />
    <glyph glyph-name="f" unicode="f" horiz-adv-x="725" 
d="M57 0v111h213v1089h-213v107h213v143q0 479 385 479q63 0 131 -20v-127q-80 20 -131 20q-152 0 -203 -88.5t-51 -263.5v-143h287v-107h-287v-1089h246v-111h-590z" />
    <glyph glyph-name="g" unicode="g" horiz-adv-x="1454" 
d="M1409 1307v-107h-205v-1094q0 -203 -51.5 -338.5t-171 -205.5t-317.5 -70q-194 0 -341 92t-147 293h135q37 -274 365 -274q158 0 246.5 68t121.5 190t33 299v123h-8q-130 -267 -430 -267q-240 0 -390.5 188t-150.5 464q0 186 59.5 338t181 242.5t296.5 90.5
q315 0 434 -262h8v230h332zM246 696q0 -246 109.5 -407.5t312.5 -161.5q216 0 312.5 162t96.5 407q0 232 -107 382.5t-302 150.5q-133 0 -229 -75.5t-144.5 -198.5t-48.5 -259z" />
    <glyph glyph-name="h" unicode="h" horiz-adv-x="1454" 
d="M57 0v111h209v1679h-209v111h340v-795h4q54 112 152.5 172.5t216.5 60.5q272 0 349 -150t77 -419v-102v-557h193v-111h-537v111h209v557q0 206 -16.5 313t-81.5 167t-201 60q-365 0 -365 -540v-557h209v-111h-549z" />
    <glyph glyph-name="i" unicode="i" horiz-adv-x="725" 
d="M66 0v111h262v1089h-262v107h393v-1196h213v-111h-606zM459 1831v-201h-160v201h160z" />
    <glyph glyph-name="j" unicode="j" horiz-adv-x="582" 
d="M381 1307v-1201v-176q0 -211 -53 -324.5t-226 -113.5q-49 0 -155 16v115q70 -20 139 -20q103 0 131.5 74.5t28.5 261.5v1261h-226v107h361zM381 1831v-201h-164v201h164z" />
    <glyph glyph-name="k" unicode="k" horiz-adv-x="1307" 
d="M41 0v111h205v1679h-205v111h340v-1266l598 565h-197v107h467v-107h-106l-398 -381l402 -708h123v-111h-443v111h160l-348 614l-258 -238v-376h188v-111h-528z" />
    <glyph glyph-name="l" unicode="l" horiz-adv-x="582" 
d="M37 0v111h196v1679h-196v111h328v-1790h180v-111h-508z" />
    <glyph glyph-name="m" unicode="m" horiz-adv-x="2179" 
d="M57 0v111h209v1089h-209v107h340v-222h4q48 117 145.5 185.5t223.5 68.5q141 0 231.5 -53.5t145.5 -195.5q129 249 356 249q251 0 338.5 -143.5t87.5 -417.5v-667h189v-111h-533v111h209v647q0 224 -58.5 337t-248.5 113q-171 0 -249.5 -131t-78.5 -319v-647h213v-111
h-549v111h209v647q0 146 -17.5 239.5t-81 152t-192.5 58.5q-320 0 -344 -450v-647h209v-111h-549z" />
    <glyph glyph-name="n" unicode="n" horiz-adv-x="1454" 
d="M57 0v111h209v1089h-209v107h340v-201h4q54 112 152.5 172.5t216.5 60.5q272 0 349 -150t77 -419v-102v-557h193v-111h-537v111h209v557q0 206 -16.5 313t-81.5 167t-201 60q-365 0 -365 -540v-557h209v-111h-549z" />
    <glyph glyph-name="o" unicode="o" horiz-adv-x="1307" 
d="M94 655q0 151 39 278t113 218t176.5 139.5t228.5 48.5q172 0 299 -85t194.5 -239.5t67.5 -359.5t-68 -359.5t-194.5 -239.5t-298.5 -85q-168 0 -294 85t-194.5 241t-68.5 358zM238 655q0 -319 134.5 -446t278.5 -127q148 0 283 126.5t135 446.5q0 318 -134.5 446
t-283.5 128q-144 0 -278.5 -128.5t-134.5 -445.5z" />
    <glyph glyph-name="p" unicode="p" horiz-adv-x="1454" 
d="M45 -479v110h221v1569h-221v107h352v-275h4q159 307 426 307q257 0 386.5 -188t129.5 -496q0 -172 -58 -328.5t-175 -256t-283 -99.5q-279 0 -426 291h-4v-631h221v-110h-573zM397 643q0 -221 100.5 -391t293.5 -170q137 0 228 80.5t134 213t43 279.5q0 148 -45 279.5
t-136.5 213t-223.5 81.5q-195 0 -294.5 -178t-99.5 -408z" />
    <glyph glyph-name="q" unicode="q" horiz-adv-x="1454" 
d="M1384 1307v-107h-225v-1569h225v-110h-577v110h225v631h-8q-139 -291 -422 -291q-247 0 -381.5 206.5t-134.5 477.5q0 197 56 353t174 243.5t290 87.5q268 0 418 -307h8v275h352zM1032 655q0 222 -100 398t-293 176q-133 0 -224.5 -81t-137.5 -213t-48 -280
q0 -235 103.5 -404t306.5 -169q191 0 292 172t101 401z" />
    <glyph glyph-name="r" unicode="r" horiz-adv-x="868" 
d="M53 0v111h193v1089h-193v107h328v-258h4q29 131 114 210.5t201 79.5q62 0 95 -8v-131q-66 8 -95 8q-319 0 -319 -540v-557h258v-111h-586z" />
    <glyph glyph-name="s" unicode="s" horiz-adv-x="1159" 
d="M86 0v451h115q15 -170 117.5 -269.5t254.5 -99.5q139 0 235.5 70.5t96.5 216.5q0 130 -90.5 169t-293.5 73t-306.5 104.5t-103.5 251.5q0 126 69.5 209.5t176 123t212.5 39.5q110 0 204 -47t140 -141h9v156h114v-422h-114q-23 344 -365 344q-121 0 -210 -67.5t-89 -194.5
q0 -119 88 -157t293 -77t309.5 -113.5t104.5 -254.5q0 -195 -136 -294.5t-323 -99.5q-260 0 -385 226h-8v-197h-115z" />
    <glyph glyph-name="t" unicode="t" horiz-adv-x="868" 
d="M774 1307v-107h-389v-774q0 -166 28 -247t124 -81q101 0 136.5 73.5t35.5 225.5h127q0 -211 -69 -318.5t-239 -107.5q-274 0 -274 406v823h-221v107h221v311l131 57v-368h389z" />
    <glyph glyph-name="u" unicode="u" horiz-adv-x="1454" 
d="M1163 1307v-1196h213v-111h-344v217h-4q-112 -246 -373 -246q-225 0 -321 109t-96 375v745h-197v107h328v-844q3 -195 76.5 -280t246.5 -85q158 0 246 120.5t94 297.5v684h-233v107h364z" />
    <glyph glyph-name="v" unicode="v" horiz-adv-x="1307" 
d="M1270 1307v-107h-119l-418 -1200h-176l-418 1200h-119v107h455v-107h-184l352 -1057l369 1057h-185v107h443z" />
    <glyph glyph-name="w" unicode="w" horiz-adv-x="2036" 
d="M2011 1307v-107h-119l-364 -1200h-172l-328 1180h-4l-344 -1180h-172l-348 1200h-135v107h483v-107h-209l299 -1073h4l340 1180h172l340 -1180h4l303 1073h-209v107h459z" />
    <glyph glyph-name="x" unicode="x" horiz-adv-x="1307" 
d="M16 0v111h115l434 561l-405 528h-119v107h475v-107h-184l315 -418l324 418h-185v107h467v-107h-123l-397 -528l426 -561h123v-111h-471v111h184l-348 454l-344 -454h184v-111h-471z" />
    <glyph glyph-name="y" unicode="y" horiz-adv-x="1307" 
d="M1270 1307v-107h-103l-458 -1253q-65 -180 -97 -254t-98 -137.5t-166 -63.5q-123 0 -184 8v115q74 -8 139 -8q104 0 161 96.5t118 292.5l-447 1204h-102v107h450v-107h-200l368 -1028l377 1028h-197v107h439z" />
    <glyph glyph-name="z" unicode="z" horiz-adv-x="1159" 
d="M127 0v127l737 1073h-590v-287h-131v394h873v-127l-742 -1069h631v286h131v-397h-909z" />
    <glyph glyph-name="braceleft" unicode="{" horiz-adv-x="868" 
d="M766 2101v-110h-123q-106 0 -106 -279v-381q0 -201 -64.5 -311t-120.5 -143v-5q59 -42 122 -149.5t63 -308.5v-377q0 -275 106 -275h123v-110h-160q-200 0 -200 332v381q0 454 -189 454v111q189 0 189 450v385q0 336 233 336h127z" />
    <glyph glyph-name="bar" unicode="|" horiz-adv-x="582" 
d="M225 -29v1958h131v-1958h-131z" />
    <glyph glyph-name="braceright" unicode="}" horiz-adv-x="868" 
d="M102 -348v110h127q51 0 79 76t28 199v381q0 204 65.5 317t118.5 137v5q-59 39 -121.5 149t-62.5 313v373q0 279 -107 279h-127v110h160q201 0 201 -336v-376q0 -459 188 -459v-111q-188 0 -188 -450v-385q0 -332 -225 -332h-136z" />
    <glyph glyph-name="asciitilde" unicode="~" horiz-adv-x="1569" 
d="M1294 918l95 -103q-78 -122 -148 -186t-180 -64q-113 0 -266 94q-156 103 -299 103q-138 0 -222 -209l-94 102q120 254 328 254q101 0 291 -94q59 -30 105 -53t87 -38t74 -15q66 0 116 53t113 156z" />
    <glyph glyph-name="0e00;" unicode="&#xe00;" horiz-adv-x="360" 
 />
    <glyph glyph-name="afii59681" unicode="&#xe01;" horiz-adv-x="1516" 
d="M246 0v901q0 135 58 190t97 64q-51 39 -155.5 79.5t-163.5 59.5v136q56 52 214 130t404 78q221 0 422 -120t201 -416v-1102h-119v1102q0 149 -83.5 240t-199 128t-221.5 37q-189 0 -316.5 -50.5t-174.5 -84.5v0l139 -53q75 -27 132.5 -58t76.5 -44v-95q-22 -7 -66 -29
t-85 -69q-46 -71 -46 -197v-827h-114z" />
    <glyph glyph-name="afii59682;" unicode="&#xe02;" horiz-adv-x="1360" 
d="M913 135q70 0 91 17q32 32 32 110v1360h119v-1360q0 -164 -53 -217q-49 -45 -176 -45h-525v135h148v832q43 21 107.5 86.5t64.5 179.5q0 123 -81.5 198.5t-197.5 75.5q-92 0 -146.5 -33.5t-74.5 -56.5h25q103 -3 168 -71.5t65 -174.5q0 -123 -67 -192.5t-162 -69.5
q-88 0 -161 75t-73 196q0 115 58.5 220.5t156.5 169.5t211 64q112 0 204.5 -52.5t145 -144t52.5 -204.5q0 -140 -64.5 -222.5t-107.5 -109.5v-766h241zM250 1315q-62 0 -94.5 -41t-32.5 -98q0 -60 33.5 -102t93.5 -42q58 0 90.5 42t32.5 102q0 57 -32 98t-91 41z" />
    <glyph glyph-name="afii59683;" unicode="&#xe03;" horiz-adv-x="2138" 
d="M1212 135h476q69 0 98 17q20 28 20 110v1360h127v-1360q0 -161 -65 -217q-49 -45 -172 -45h-742v135h144v967q0 139 -63.5 230.5t-161 133t-201.5 41.5q-171 0 -293.5 -50.5t-169.5 -84.5v0l139 -53q75 -27 132.5 -58t76.5 -44v-95q-22 -7 -66 -29t-85 -69
q-46 -71 -46 -197v-340q15 7 47.5 18t75.5 11q113 0 183.5 -73.5t70.5 -196.5q0 -110 -76 -186t-178 -76q-101 0 -169 76t-68 186v655q0 135 58 190t97 64q-51 39 -155.5 79.5t-163.5 59.5v136q62 52 219 130t371 78q132 0 255.5 -54.5t204 -175t80.5 -306.5v-967zM483 102
q61 0 96 43t35 101t-34.5 100.5t-96.5 42.5q-59 0 -91 -42t-32 -101q0 -58 32.5 -101t90.5 -43z" />
    <glyph glyph-name="afii59684;" unicode="&#xe04;" horiz-adv-x="1602" 
d="M401 901q0 111 73 193t173 82q102 0 176 -79t74 -192q0 -121 -72.5 -199.5t-177.5 -78.5q-58 3 -94 28t-49 41l20 -69v-627h-123v106q0 101 -35 190.5t-104 224.5t-106 247t-37 244q7 202 99.5 344.5t238.5 214t313 71.5q183 0 328 -77.5t226 -216.5t81 -316v-1032h-123
v1012q0 149 -64.5 263.5t-181 177.5t-266.5 63q-245 0 -384.5 -153t-139.5 -372q0 -92 18.5 -163.5t50 -143t33.5 -78.5l78 -184l-25 184v295zM647 1040q-59 0 -93 -41t-34 -98q0 -60 33.5 -101.5t93.5 -41.5q62 0 94.5 41t32.5 102q0 58 -33 98.5t-94 40.5z" />
    <glyph glyph-name="afii59685;" unicode="&#xe05;" horiz-adv-x="1323" 
d="M1073 262q0 -160 -57 -217q-45 -45 -176 -45h-25q-54 0 -78 41q-24 48 -24 57l-119 471q-17 -26 -66 -66t-122 -40q-104 0 -173 79.5t-69 198.5q0 116 70.5 193.5t171.5 77.5q107 0 174.5 -72.5t91.5 -173.5l151 -631h62q13 0 45 12q24 18 24 74v561q0 172 -77 250
q-171 160 -586 160q-89 0 -157.5 -6t-96.5 -10v102q34 86 154 215t350 129q138 0 282 -61q157 -62 283 -62q47 0 72.5 6.5t33.5 10.5l37 -127q-10 -6 -42 -15.5t-89 -9.5q-146 0 -340 74q-124 49 -241 49q-153 0 -239.5 -67.5t-113.5 -112.5q12 1 45 3q33 1 82 1
q453 0 660 -193q102 -97 102 -311v-545zM406 877q-56 0 -87.5 -41.5t-31.5 -98.5q0 -58 32 -100.5t87 -42.5q61 0 96 42t35 101q0 57 -34.5 98.5t-96.5 41.5z" />
    <glyph glyph-name="afii59686;" unicode="&#xe06;" horiz-adv-x="1724" 
d="M647 918q48 15 122 77.5t79 196.5q0 129 -75.5 198t-125.5 89l-143 -99l-144 99q-15 -9 -46.5 -37t-67.5 -82q-39 -48 -57 -91t-21 -61q10 15 42.5 37t92.5 25q99 0 164 -72t65 -174q0 -121 -66 -189.5t-163 -68.5q-94 0 -180 84.5t-86 251.5q0 233 121 358t202 162
l144 -106l143 106q33 -11 100.5 -49.5t140 -126t83.5 -213.5q0 -188 -75.5 -283.5t-125.5 -122.5v-143q39 -6 129.5 -39.5t198.5 -116.5q118 -94 200 -196t115 -152l-8 111v1331h111v-1622h-111q-40 57 -128.5 168.5t-178.5 187.5q-120 105 -207 144.5t-121 44.5v-254
q0 -307 -266 -307q-115 0 -199 89t-84 263q25 189 165.5 274.5t244.5 85.5h16v222zM344 336q0 -101 42 -165.5t118 -64.5q143 0 143 193v258q-62 0 -165.5 -41t-137.5 -180zM303 1159q-62 0 -94.5 -41t-32.5 -102q0 -58 33.5 -101t93.5 -43q61 0 96 43t35 101
q0 60 -34.5 101.5t-96.5 41.5z" />
    <glyph glyph-name="afii59687;" unicode="&#xe07;" horiz-adv-x="1130" 
d="M733 135h4q25 0 49 12q29 20 29 74v914q-14 -9 -47.5 -23t-75.5 -14q-107 0 -180.5 78t-73.5 196q0 112 75 189t179 77q100 0 171 -76.5t71 -189.5v-1110q0 -164 -62 -217q-49 -45 -176 -45h-20l-680 786l90 86zM692 1516q-62 0 -94.5 -42t-32.5 -102q0 -57 33.5 -100
t93.5 -43t93.5 43t33.5 100q0 60 -32.5 102t-94.5 42z" />
    <glyph glyph-name="afii59688;" unicode="&#xe08;" horiz-adv-x="1380" 
d="M840 41q-25 23 -25 57l-143 561q-17 -26 -66 -66t-123 -40q-104 0 -172.5 78t-68.5 196q0 119 69 197t172 78q108 0 173 -71t89 -175l185 -721h53q33 0 49 12q25 19 25 74v856q0 212 -135 321t-316 109q-228 0 -340.5 -121t-142.5 -202l-107 49q32 101 166 253t424 152
q153 0 284 -65t208.5 -186.5t77.5 -284.5v-840q0 -159 -58 -217q-57 -45 -176 -45h-33q-46 0 -69 41zM483 975q-59 0 -91 -42t-32 -102q0 -57 32.5 -100t90.5 -43q61 0 96 43t35 100q0 59 -34.5 101.5t-96.5 42.5z" />
    <glyph glyph-name="afii59689;" unicode="&#xe09;" horiz-adv-x="1602" 
d="M1282 717q35 -3 107 -30t142.5 -117t70.5 -259q0 -146 -81 -236.5t-182 -90.5q-88 0 -136 65t-48 172v365q-31 -1 -110 -35.5t-185 -140.5q-111 -111 -204 -260q-91 -147 -91 -150v0h-123v573q-12 -9 -42.5 -22.5t-71.5 -13.5q-110 0 -180 76t-70 198q0 110 73 188
t177 78q100 0 168.5 -78t68.5 -188v-500l-8 -110q19 39 82.5 133.5t175.5 206.5q102 102 199 137.5t141 38.5v360q0 138 -63.5 235.5t-165 146t-213.5 48.5q-236 0 -354 -105.5t-150 -176.5l-111 53q37 90 180.5 225t434.5 135q151 0 282 -65t209 -187.5t78 -283.5v-385z
M328 950q-61 0 -94 -40.5t-33 -98.5q0 -61 32.5 -102t94.5 -41q59 0 88.5 41t29.5 102q0 58 -29.5 98.5t-88.5 40.5zM1282 586v-365q0 -112 74 -119q42 0 90.5 59t48.5 150q-2 166 -81.5 219.5t-131.5 55.5z" />
    <glyph glyph-name="afii59690;" unicode="&#xe0a;" horiz-adv-x="1360" 
d="M807 1434q35 11 108.5 46t145.5 97q76 62 107 119t36 82h135q-3 -49 -50 -149.5t-191 -190.5q-78 -52 -146.5 -78t-99.5 -33q33 -5 96.5 -25.5t116.5 -68.5q90 -75 90 -242v-729q0 -164 -53 -217q-49 -45 -176 -45h-525v135h148v832q43 21 107.5 86.5t64.5 179.5
q0 123 -81.5 198.5t-197.5 75.5q-92 0 -146.5 -33.5t-74.5 -56.5h25q103 -3 168 -71.5t65 -174.5q0 -123 -67 -192.5t-162 -69.5q-88 0 -161 75t-73 196q0 115 58.5 220.5t156.5 169.5t211 64q170 0 256 -75t109 -125zM250 1315q-62 0 -94.5 -41t-32.5 -98q0 -60 33.5 -102
t93.5 -42q58 0 90.5 42t32.5 102q0 57 -32 98t-91 41zM844 1217v-25q-2 -112 -66 -187.5t-106 -103.5v-766h241q70 0 91 17q32 32 32 110v639q0 175 -53 234q-24 43 -69 61t-70 21z" />
    <glyph glyph-name="afii59691;" unicode="&#xe0b;" horiz-adv-x="1425" 
d="M123 1208q12 15 46.5 37t92.5 25q99 0 164.5 -73t65.5 -173q0 -120 -66.5 -189t-163.5 -69q-91 0 -176.5 85t-85.5 251q0 234 123 358.5t205 161.5l139 -106l139 106q21 -8 64 -29.5t84 -52.5q37 -27 68 -59.5t42 -46.5q35 11 108.5 45t153.5 98q74 63 101 119.5t30 81.5
h148q-5 -49 -56 -150t-194 -190q-78 -52 -146.5 -78t-99.5 -33q35 -5 102.5 -26t118.5 -68q82 -69 82 -242v-729q0 -164 -49 -217q-49 -45 -180 -45h-516v135h139v783q49 15 124.5 77.5t80.5 196.5q0 131 -77 199.5t-128 87.5l-139 -99l-139 99q-17 -9 -52.5 -36.5
t-74.5 -82.5q-37 -49 -55.5 -91.5t-22.5 -60.5zM262 1159q-60 0 -93.5 -41.5t-33.5 -101.5q0 -57 34.5 -100.5t92.5 -43.5q60 0 93.5 43t33.5 101q0 61 -32.5 102t-94.5 41zM918 1208v-37q-2 -143 -71 -229.5t-114 -114.5v-692h246q70 0 86 17q33 28 33 110v639
q0 150 -49 234q-30 35 -70.5 52t-60.5 21z" />
    <glyph glyph-name="afii59692;" unicode="&#xe0c;" horiz-adv-x="2138" 
d="M1360 684q29 -6 97.5 -42t152.5 -126q77 -75 135.5 -171t81.5 -144l-21 135v1286h127v-1622h-127q-25 61 -92 181.5t-166 224.5q-75 78 -122.5 106.5t-65.5 32.5v-279q0 -282 -242 -282q-111 3 -188.5 96t-77.5 256q1 102 57 185.5t139 129t164 45.5h29v406
q0 217 -158.5 311t-361.5 94q-188 0 -324 -50.5t-188 -84.5v0l139 -53q75 -27 132.5 -58t76.5 -44v-95q-22 -7 -66 -29t-85 -69q-46 -71 -46 -197v-340q15 7 47.5 18t75.5 11q113 0 183.5 -73.5t70.5 -196.5q0 -110 -76 -186t-178 -76q-101 0 -169 76t-68 186v655
q0 135 58 190t97 64q-51 39 -155.5 79.5t-163.5 59.5v136q62 52 228 130t411 78q253 0 446 -120.5t193 -415.5v-418zM975 336q0 -203 143 -230q123 0 123 164v287q-253 0 -266 -221zM483 102q61 0 96 43t35 101t-34.5 100.5t-96.5 42.5q-59 0 -91 -42t-32 -101
q0 -58 32.5 -101t90.5 -43z" />
    <glyph glyph-name="afii59693;" unicode="&#xe0d;" horiz-adv-x="2138" 
d="M1311 -532q133 0 237 61q116 70 162.5 175t54.5 161h127q-5 -55 -42.5 -167t-157 -227t-332.5 -122q-188 0 -286.5 89t-98.5 214q0 96 58 169t159 73q93 0 153 -70t60 -172q0 -82 -35 -126.5t-59 -57.5zM1212 135h476q69 0 98 17q20 28 20 110v1360h127v-1360
q0 -161 -65 -217q-49 -45 -172 -45h-742v135h144v967q0 139 -63.5 230.5t-161 133t-201.5 41.5q-171 0 -293.5 -50.5t-169.5 -84.5v0l139 -53q75 -27 132.5 -58t76.5 -44v-95q-22 -7 -66 -29t-85 -69q-46 -71 -46 -197v-340q15 7 47.5 18t75.5 11q113 0 183.5 -73.5
t70.5 -196.5q0 -110 -76 -186t-178 -76q-101 0 -169 76t-68 186v655q0 135 58 190t97 64q-51 39 -155.5 79.5t-163.5 59.5v136q62 52 219 130t371 78q132 0 255.5 -54.5t204 -175t80.5 -306.5v-967zM483 102q61 0 96 43t35 101t-34.5 100.5t-96.5 42.5q-59 0 -91 -42
t-32 -101q0 -58 32.5 -101t90.5 -43zM1192 -463q51 0 76.5 33.5t25.5 81.5q0 47 -25.5 81t-76.5 34q-47 0 -74.5 -35t-27.5 -80q0 -47 27.5 -81t74.5 -34z" />
    <glyph glyph-name="afii59694;" unicode="&#xe0e;" horiz-adv-x="1602" 
d="M1405 -651h-123q-26 24 -86 71.5t-123 83.5q-33 23 -71.5 46t-55.5 32q-35 -62 -136 -157t-261 -97q-159 0 -231 72t-72 166q0 109 82 180t221 74q123 0 214.5 -27.5t129.5 -46.5q8 0 25 90q15 51 21 97.5t7 66.5h127q3 0 3 -10q0 -31 -27 -162q-12 -50 -27.5 -84.5
t-22.5 -46.5q4 0 119 -70q51 -36 102.5 -77.5t73.5 -61.5l-12 61v1553q0 217 -151 311t-316 94q-172 0 -295.5 -50.5t-171.5 -84.5q4 0 139 -53q74 -27 133.5 -58t79.5 -44v-95q-23 -7 -67 -29.5t-80 -68.5q-49 -68 -49 -197v-581q0 -111 -69.5 -186.5t-172.5 -75.5
q-102 0 -174 75.5t-72 186.5q0 122 68.5 196t177.5 74q47 0 78.5 -11t44.5 -18v414q0 133 61.5 188.5t102.5 65.5q-54 39 -160.5 79.5t-167.5 59.5v136q54 52 206 130t388 78q125 0 259.5 -46.5t232.5 -166.5t98 -323v-1753zM565 -303q-79 -6 -129.5 -44.5t-50.5 -86.5
q0 -51 50.5 -81t129.5 -30q125 5 195.5 71t91.5 109q-24 16 -95 39t-192 23zM262 102q60 0 93.5 43t33.5 101q0 59 -32.5 101t-94.5 42q-60 0 -93.5 -42t-33.5 -101q0 -57 34.5 -100.5t92.5 -43.5z" />
    <glyph glyph-name="afii59695;" unicode="&#xe0f;" horiz-adv-x="1602" 
d="M1282 -311v1413q0 217 -151 311t-316 94q-172 0 -295.5 -50.5t-171.5 -84.5q4 0 139 -53q74 -27 133.5 -58t79.5 -44v-95q-23 -7 -67 -29.5t-80 -68.5q-49 -68 -49 -197v-581q0 -111 -69.5 -186.5t-172.5 -75.5q-102 0 -174 75.5t-72 186.5q0 122 68.5 196t177.5 74
q47 0 78.5 -11t44.5 -18v414q0 133 61.5 188.5t102.5 65.5q-54 39 -160.5 79.5t-167.5 59.5v136q54 52 206 130t388 78q125 0 259.5 -46.5t232.5 -166.5t98 -323v-1753h-123l-184 262l-144 -262h-127l-114 147q-21 -42 -84.5 -105t-169.5 -63q-94 0 -166 69t-72 189
q0 109 68.5 177.5t169.5 68.5q85 0 144 -46t81 -77q9 0 33 111q10 52 16 104t8 76h123q-5 -37 -16 -106t-25 -123q-10 -67 -25.5 -106.5t-23.5 -53.5l115 -156l168 324h61l180 -283zM479 -291q-55 0 -91 -41t-36 -82q0 -52 34.5 -91.5t92.5 -39.5q72 0 113.5 52t54.5 87
q-15 29 -57.5 72t-110.5 43zM262 98q61 0 94 46t33 110q0 61 -33 106.5t-94 45.5q-67 0 -103 -45.5t-36 -106.5q0 -64 36.5 -110t102.5 -46z" />
    <glyph glyph-name="afii59696;" unicode="&#xe10;" horiz-adv-x="1323" 
d="M1073 262q0 -160 -57 -217q-45 -45 -176 -45h-25q-54 0 -78 41q-24 48 -24 57l-119 471q-17 -26 -66 -66t-122 -40q-104 0 -173 79.5t-69 198.5q0 116 70.5 193.5t171.5 77.5q107 0 174.5 -72.5t91.5 -173.5l151 -631h62q13 0 45 12q24 18 24 74v561q0 172 -77 250
q-171 160 -586 160q-89 0 -157.5 -6t-96.5 -10v102q34 86 154 215t350 129q138 0 282 -61q157 -62 283 -62q47 0 72.5 6.5t33.5 10.5l37 -127q-10 -6 -42 -15.5t-89 -9.5q-146 0 -340 74q-124 49 -241 49q-153 0 -239.5 -67.5t-113.5 -112.5q12 1 45 3q33 1 82 1
q453 0 660 -193q102 -97 102 -311v-545zM971 -627v86q-11 -8 -39.5 -20t-67.5 -12q-92 0 -150.5 64t-58.5 165q0 98 60 168t149 70q88 0 148.5 -71t60.5 -167v-512q0 -73 -29 -119q-37 -37 -81 -37h-29l-201 242l-135 -242h-86l-123 148q-22 -42 -87 -105t-171 -63
q-93 0 -161 69t-68 189q0 108 66 177t163 69q85 0 144 -46t81 -77q14 0 37 110q5 50 13 104.5t12 80.5h123q-3 0 -37 -234q-14 -59 -32 -102t-26 -58l107 -122l139 245h53l205 -237h21v237zM131 -651q-55 0 -87 -40t-32 -83q0 -56 30 -95.5t89 -39.5q74 0 116.5 53.5
t55.5 89.5q-15 29 -58.5 72t-113.5 43zM406 877q-56 0 -87.5 -41.5t-31.5 -98.5q0 -58 32 -100.5t87 -42.5q61 0 96 42t35 101q0 57 -34.5 98.5t-96.5 41.5zM864 -221q-50 0 -78 -36.5t-28 -86.5q0 -46 29 -82.5t77 -36.5q54 0 84.5 36t30.5 83q0 50 -29.5 86.5t-85.5 36.5z
" />
    <glyph glyph-name="afii59697;" unicode="&#xe11;" horiz-adv-x="1847" 
d="M647 1057q30 16 75.5 67.5t47.5 137.5q0 110 -61.5 158.5t-102.5 58.5l-139 -99l-139 99q-17 -9 -52.5 -36.5t-74.5 -82.5q-37 -49 -55.5 -91.5t-22.5 -60.5q12 15 46.5 37t92.5 25q99 0 164.5 -73t65.5 -173q0 -120 -66.5 -189t-163.5 -69q-91 0 -176.5 85t-85.5 251
q0 234 123 358.5t205 161.5l139 -106l139 106q66 -14 169 -89t118 -255q0 -105 -46 -181t-77 -106v-225l-25 -225l82 217l263 549q81 169 158 246t177 77q97 0 157 -66.5t60 -207.5v-1356h-126v1356q0 69 -28 104t-63 35q-68 0 -130.5 -85.5t-164.5 -287.5l-258 -565
q-65 -140 -98 -287q-4 -28 -4 -69v-201h-123v1057zM262 1159q-60 0 -93.5 -41.5t-33.5 -101.5q0 -57 34.5 -100.5t92.5 -43.5q60 0 93.5 43t33.5 101q0 61 -32.5 102t-94.5 41z" />
    <glyph glyph-name="afii59698;" unicode="&#xe12;" horiz-adv-x="2154" 
d="M1380 606q31 -8 101.5 -44t148.5 -116q83 -84 137 -159t72 -107l-12 156v1286h119v-1622h-119q-24 38 -87 123t-163 192q-78 82 -128.5 113t-68.5 35v-217q0 -262 -225 -262q-101 0 -181.5 86.5t-80.5 220.5q1 90 51 167t130 121t167 44h16v594q0 147 -56.5 210.5
t-127.5 63.5q-110 0 -160 -87.5t-61 -146.5h-82q-10 59 -64 146.5t-186 87.5q-128 0 -213.5 -126t-85.5 -300q10 -160 60 -284.5t132.5 -278t90.5 -211.5l12 -90v0q0 4 12 61q4 19 29 70l115 184q5 18 28 42.5t33 27.5q7 7 19 15.5t18 12.5q-9 -3 -27 -7.5t-30 -4.5
q-105 0 -177.5 76.5t-72.5 193.5q0 119 72.5 197t177.5 78q102 0 171.5 -78.5t69.5 -196.5q0 -105 -37 -184.5t-121 -199t-137 -218.5q-94 -162 -94 -225v-45h-123v45q0 115 -36.5 203t-124.5 250.5t-132 287t-51 291.5q0 148 54.5 272.5t153 198.5t218.5 74
q136 0 204.5 -77t86.5 -128q19 51 81 128t177 77q169 0 238 -123.5t69 -265.5v-627zM1016 291q0 -100 49 -146.5t90 -46.5q102 0 102 156v242q-57 0 -145 -38t-96 -167zM713 1020q-60 0 -93.5 -42t-33.5 -101q0 -57 34.5 -100.5t92.5 -43.5t90.5 43t32.5 101q0 59 -32 101
t-91 42z" />
    <glyph glyph-name="afii59699;" unicode="&#xe13;" horiz-adv-x="2138" 
d="M1212 311l-8 -110q20 32 74 105.5t143 164.5q86 91 158 131t104 49v971h123v-954q73 -6 190 -72.5t142 -259.5q0 -169 -85 -260.5t-185 -91.5q-87 0 -136 65.5t-49 171.5v291q-27 -7 -92.5 -47t-148.5 -141q-94 -112 -160.5 -218t-69.5 -106h-114v1102q0 139 -63.5 230.5
t-161 133t-201.5 41.5q-171 0 -293.5 -50.5t-169.5 -84.5v0l139 -53q75 -27 132.5 -58t76.5 -44v-95q-22 -7 -66 -29t-85 -69q-46 -71 -46 -197v-340q15 7 47.5 18t75.5 11q113 0 183.5 -73.5t70.5 -196.5q0 -110 -76 -186t-178 -76q-101 0 -169 76t-68 186v655
q0 135 58 190t97 64q-51 39 -155.5 79.5t-163.5 59.5v136q62 52 219 130t371 78q132 0 255.5 -54.5t204 -175t80.5 -306.5v-791zM1806 541v-320q0 -112 70 -119q58 0 100.5 66t42.5 168q-22 125 -95.5 164.5t-117.5 40.5zM483 102q61 0 96 43t35 101t-34.5 100.5t-96.5 42.5
q-59 0 -91 -42t-32 -101q0 -58 32.5 -101t90.5 -43z" />
    <glyph glyph-name="afii59700;" unicode="&#xe14;" horiz-adv-x="1602" 
d="M745 692q-104 0 -172.5 78t-68.5 197q0 110 72 188t169 78q109 0 177.5 -76.5t68.5 -189.5q0 -117 -42 -192.5t-149.5 -205.5t-168.5 -233q-31 -49 -59.5 -95.5t-48 -95.5t-19.5 -100v-45h-119v45q0 103 -31.5 191.5t-98 234t-101.5 268.5t-35 273q7 202 99.5 344.5
t238.5 214t313 71.5q183 0 328 -77.5t226 -216.5t81 -316v-1032h-123v1012q0 149 -64.5 263.5t-181 177.5t-266.5 63q-245 0 -384.5 -153t-139.5 -372q0 -139 34.5 -253t93.5 -245t68 -182l21 -65q-1 0 -1 5q0 9 5 36q8 47 37 90l168 237q5 0 45 50q49 32 53 32v0
q-4 -1 -11.5 -2.5t-13.5 -1.5zM745 1110q-58 0 -90 -42t-32 -101q0 -58 32.5 -101t89.5 -43q60 0 93.5 43t33.5 101q0 59 -32.5 101t-94.5 42z" />
    <glyph glyph-name="afii59701;" unicode="&#xe15;" horiz-adv-x="1585" 
d="M770 1257q-10 59 -64 146.5t-186 87.5q-128 0 -213.5 -126t-85.5 -300q10 -160 60 -284.5t132.5 -278t90.5 -211.5l12 -90v0q0 4 12 61q4 19 29 70l115 184q5 18 28 42.5t33 27.5q7 7 19 15.5t18 12.5q-9 -3 -27 -7.5t-30 -4.5q-105 0 -177.5 76.5t-72.5 193.5
q0 119 72.5 197t177.5 78q102 0 171.5 -78.5t69.5 -196.5q0 -105 -37 -184.5t-121 -199t-137 -218.5q-94 -162 -94 -225v-45h-123v45q0 115 -36.5 203t-124.5 250.5t-132 287t-51 291.5q0 148 54.5 272.5t153 198.5t218.5 74q136 0 204.5 -77t86.5 -128q19 51 81 128t177 77
q169 0 238 -123.5t69 -265.5v-1233h-123v1217q0 147 -56.5 210.5t-127.5 63.5q-110 0 -160 -87.5t-61 -146.5h-82zM713 1020q-60 0 -93.5 -42t-33.5 -101q0 -57 34.5 -100.5t92.5 -43.5t90.5 43t32.5 101q0 59 -32 101t-91 42z" />
    <glyph glyph-name="afii59702;" unicode="&#xe16;" horiz-adv-x="1516" 
d="M360 487q15 7 47.5 18t75.5 11q113 0 183.5 -73.5t70.5 -196.5q0 -110 -76 -186t-178 -76q-101 0 -169 76t-68 186v655q0 135 58 190t97 64q-51 39 -155.5 79.5t-163.5 59.5v136q56 52 214 130t404 78q221 0 422 -120t201 -416v-1102h-119v1102q0 149 -83.5 240t-199 128
t-221.5 37q-189 0 -316.5 -50.5t-174.5 -84.5v0l139 -53q75 -27 132.5 -58t76.5 -44v-95q-22 -7 -66 -29t-85 -69q-46 -71 -46 -197v-340zM483 102q61 0 96 43t35 101t-34.5 100.5t-96.5 42.5q-59 0 -91 -42t-32 -101q0 -58 32.5 -101t90.5 -43z" />
    <glyph glyph-name="afii59703;" unicode="&#xe17;" horiz-adv-x="1585" 
d="M1155 1630q225 0 225 -274v-1356h-123v1356q0 72 -30 105.5t-72 33.5q-68 0 -128 -85.5t-155 -287.5l-266 -565q-75 -156 -94 -287q-8 -56 -8 -69v-201h-119v1135q-13 -9 -46 -23t-77 -14q-106 0 -176 78t-70 196q0 113 71.5 189.5t174.5 76.5q104 0 173 -77t69 -189
v-606l-21 -225l82 217l258 549q153 323 332 323zM262 1516q-60 0 -93.5 -42t-33.5 -102q0 -56 34.5 -99.5t92.5 -43.5q60 0 93.5 43t33.5 100q0 60 -32.5 102t-94.5 42z" />
    <glyph glyph-name="afii59704;" unicode="&#xe18;" horiz-adv-x="1339" 
d="M385 1184q-8 1 -25 2.5t-32 1.5q-84 0 -162 -4.5t-113 -7.5v102q34 86 155 215t353 129q137 0 287 -61q157 -62 282 -62q47 0 74.5 6.5t36.5 10.5l37 -127q-10 -6 -43.5 -15.5t-95.5 -9.5q-148 0 -336 74q-124 49 -242 49q-156 0 -242.5 -67.5t-113.5 -112.5q12 1 45 3
q33 1 82 1q453 0 655 -193q111 -97 111 -311v-545q0 -164 -58 -217q-57 -45 -176 -45h-602v135h123v1049zM504 135h352q70 0 90 17q29 28 29 110v520q0 168 -78 250q-86 80 -207.5 110t-185.5 34v-1041z" />
    <glyph glyph-name="afii59705;" unicode="&#xe19;" horiz-adv-x="1602" 
d="M1602 311q0 -146 -81 -236.5t-182 -90.5q-88 0 -136 65t-48 172v365q-114 0 -332 -189q-87 -76 -154 -162t-114.5 -160.5t-50.5 -74.5h-119v1135q-13 -9 -46 -23t-77 -14q-106 0 -176 78t-70 196q0 113 71.5 189.5t174.5 76.5q104 0 173 -77t69 -189v-1061l-12 -110
q26 45 100.5 143.5t185.5 192.5q126 105 229.5 141t147.5 39v905h127v-905q35 -3 107 -30t142.5 -117t70.5 -259zM262 1516q-60 0 -93.5 -42t-33.5 -102q0 -56 34.5 -99.5t92.5 -43.5q60 0 93.5 43t33.5 100q0 60 -32.5 102t-94.5 42zM1282 586v-365q0 -112 74 -119
q42 0 90.5 59t48.5 150q-2 166 -81.5 219.5t-131.5 55.5z" />
    <glyph glyph-name="afii59706;" unicode="&#xe1a;" horiz-adv-x="1585" 
d="M385 135v1000q-13 -9 -46 -23t-77 -14q-106 0 -176 78t-70 196q0 113 71.5 189.5t174.5 76.5q104 0 173 -77t69 -189v-1237h635q65 0 90 17q28 33 28 110v1360h123v-1360q0 -155 -57 -217q-49 -45 -180 -45h-963v135h205zM262 1516q-60 0 -93.5 -42t-33.5 -102
q0 -56 34.5 -99.5t92.5 -43.5q60 0 93.5 43t33.5 100q0 60 -32.5 102t-94.5 42z" />
    <glyph glyph-name="afii59707;" unicode="&#xe1b;" horiz-adv-x="1585" 
d="M385 135v1000q-13 -9 -46 -23t-77 -14q-106 0 -176 78t-70 196q0 113 71.5 189.5t174.5 76.5q104 0 173 -77t69 -189v-1237h635q65 0 90 17q28 33 28 110v2081h123v-2081q0 -155 -57 -217q-49 -45 -180 -45h-963v135h205zM262 1516q-60 0 -93.5 -42t-33.5 -102
q0 -56 34.5 -99.5t92.5 -43.5q60 0 93.5 43t33.5 100q0 60 -32.5 102t-94.5 42z" />
    <glyph glyph-name="afii59708;" unicode="&#xe1c;" horiz-adv-x="1626" 
d="M1294 0l-454 696l-25 45l-29 -45l-458 -696h-127v1372q0 113 69 189.5t172 76.5q107 0 178.5 -75.5t71.5 -190.5q0 -120 -70 -197t-180 -77q-41 0 -71.5 14t-42.5 23v-799l-17 -156l90 156l377 565h74l365 -565l98 -156l-21 156v1286h131v-1622h-131zM442 1516
q-60 0 -93.5 -42t-33.5 -102q0 -56 34.5 -99.5t92.5 -43.5q61 0 96 43t35 100q0 59 -34.5 101.5t-96.5 42.5z" />
    <glyph glyph-name="afii59709;" unicode="&#xe1d;" horiz-adv-x="1626" 
d="M1294 0l-454 696l-25 45l-29 -45l-458 -696h-127v1372q0 113 69 189.5t172 76.5q107 0 178.5 -75.5t71.5 -190.5q0 -120 -70 -197t-180 -77q-41 0 -71.5 14t-42.5 23v-799l-17 -156l90 156l377 565h74l365 -565l98 -156l-21 156v2007h131v-2343h-131zM442 1516
q-60 0 -93.5 -42t-33.5 -102q0 -56 34.5 -99.5t92.5 -43.5q61 0 96 43t35 100q0 59 -34.5 101.5t-96.5 42.5z" />
    <glyph glyph-name="afii59710;" unicode="&#xe1e;" horiz-adv-x="1749" 
d="M1425 0l-413 1171l-54 181l-49 -181l-397 -1171h-127v1135q-13 -9 -46 -23t-77 -14q-106 0 -176 78t-70 196q0 113 71.5 189.5t174.5 76.5q104 0 173 -77t69 -189v-831l-21 -320l82 320l361 1081h57l377 -1081l82 -320l-17 320v1081h119v-1622h-119zM262 1516
q-60 0 -93.5 -42t-33.5 -102q0 -56 34.5 -99.5t92.5 -43.5q60 0 93.5 43t33.5 100q0 60 -32.5 102t-94.5 42z" />
    <glyph glyph-name="afii59711;" unicode="&#xe1f;" horiz-adv-x="1749" 
d="M1425 0l-413 1171l-54 181l-49 -181l-397 -1171h-127v1135q-13 -9 -46 -23t-77 -14q-106 0 -176 78t-70 196q0 113 71.5 189.5t174.5 76.5q104 0 173 -77t69 -189v-831l-21 -320l82 320l361 1081h57l377 -1081l82 -320l-17 320v1802h119v-2343h-119zM262 1516
q-60 0 -93.5 -42t-33.5 -102q0 -56 34.5 -99.5t92.5 -43.5q60 0 93.5 43t33.5 100q0 60 -32.5 102t-94.5 42z" />
    <glyph glyph-name="afii59712;" unicode="&#xe20;" horiz-adv-x="1602" 
d="M385 901q0 133 61.5 188.5t102.5 65.5q-54 39 -160.5 79.5t-167.5 59.5v136q54 52 206 130t388 78q125 0 259.5 -46.5t232.5 -166.5t98 -323v-1102h-123v1102q0 217 -151 311t-316 94q-172 0 -295.5 -50.5t-171.5 -84.5q4 0 139 -53q74 -27 133.5 -58t79.5 -44v-95
q-23 -7 -67 -29.5t-80 -68.5q-49 -68 -49 -197v-581q0 -111 -69.5 -186.5t-172.5 -75.5q-102 0 -174 75.5t-72 186.5q0 122 68.5 196t177.5 74q47 0 78.5 -11t44.5 -18v414zM262 102q60 0 93.5 43t33.5 101q0 59 -32.5 101t-94.5 42q-60 0 -93.5 -42t-33.5 -101
q0 -57 34.5 -100.5t92.5 -43.5z" />
    <glyph glyph-name="afii59713;" unicode="&#xe21;" horiz-adv-x="1602" 
d="M504 1135q-12 -9 -43.5 -23t-75.5 -14q-105 0 -179.5 78.5t-74.5 195.5q0 112 75 189t179 77q103 0 174.5 -76.5t71.5 -189.5v-688q39 -5 132 -38t208 -118q129 -97 207.5 -198t107.5 -150l-4 111v1331h123v-1622h-123q-39 56 -127 166.5t-180 189.5q-127 107 -218 146
t-126 43v-254q0 -307 -271 -307q-115 0 -196.5 88.5t-81.5 263.5q22 188 162.5 274t238.5 86h21v439zM201 336q0 -102 42 -166t117 -64q144 0 144 193v258q-62 0 -165.5 -41t-137.5 -180zM385 1516q-62 0 -94.5 -42t-32.5 -102q0 -57 33.5 -100t93.5 -43t93.5 43t33.5 100
q0 60 -32.5 102t-94.5 42z" />
    <glyph glyph-name="afii59714;" unicode="&#xe22;" horiz-adv-x="1516" 
d="M770 717h-123q-202 0 -278 -94q-41 -51 -41 -164v-197q0 -82 20 -110q25 -17 90 -17h639q70 0 94 17q33 32 33 110v1360h119v-1360q0 -161 -66 -217q-53 -45 -176 -45h-643q-123 0 -176 45q-61 57 -61 217v201q0 140 49 205q37 60 91.5 86t84.5 32q-28 8 -79.5 34
t-88.5 73q-57 66 -57 205v274q0 113 69 189.5t172 76.5q107 0 178.5 -75.5t71.5 -190.5q0 -120 -70 -197t-180 -77q-41 0 -71.5 15.5t-42.5 25.5v-49q0 -62 24 -136q28 -40 108 -69t187 -29h123v-139zM442 1516q-60 0 -93.5 -42t-33.5 -102q0 -56 34.5 -99.5t92.5 -43.5
q61 0 96 43t35 100q0 59 -34.5 101.5t-96.5 42.5z" />
    <glyph glyph-name="afii59715;" unicode="&#xe23;" horiz-adv-x="1212" 
d="M975 807v-561q0 -109 -71.5 -185.5t-170.5 -76.5q-105 0 -179.5 75.5t-74.5 186.5q0 121 72 195.5t182 74.5q47 0 77 -11t42 -18v295q0 172 -78 250q-144 135 -549 135q-73 0 -152 -4l-73 -4v0v74q31 97 147.5 243t352.5 146q107 0 205 -33q195 -65 323 -65q45 0 65 6
t25 10l49 -123q-9 -7 -42.5 -17.5t-100.5 -10.5q-132 0 -344 65q-92 33 -188 33q-168 0 -251 -81.5t-106 -135.5q18 2 63 5t109 3q388 0 557 -160q111 -96 111 -311zM733 102q60 0 93.5 43t33.5 101q0 59 -32.5 101t-94.5 42t-94.5 -42t-32.5 -101q0 -58 33.5 -101t93.5 -43
z" />
    <glyph glyph-name="afii59716;" unicode="&#xe24;" horiz-adv-x="1516" 
d="M360 487q15 7 47.5 18t75.5 11q113 0 183.5 -73.5t70.5 -196.5q0 -110 -76 -186t-178 -76q-101 0 -169 76t-68 186v655q0 135 58 190t97 64q-51 39 -155.5 79.5t-163.5 59.5v136q56 52 214 130t404 78q221 0 422 -120t201 -416v-1819h-119v1819q0 149 -83.5 240t-199 128
t-221.5 37q-189 0 -316.5 -50.5t-174.5 -84.5v0l139 -53q75 -27 132.5 -58t76.5 -44v-95q-22 -7 -66 -29t-85 -69q-46 -71 -46 -197v-340zM483 102q61 0 96 43t35 101t-34.5 100.5t-96.5 42.5q-59 0 -91 -42t-32 -101q0 -58 32.5 -101t90.5 -43z" />
    <glyph glyph-name="afii59717;" unicode="&#xe25;" horiz-adv-x="1483" 
d="M201 696q0 111 47.5 212t139.5 164t218 63q168 0 295 -100t190.5 -200.5t84.5 -150.5l-21 172v184q0 223 -136.5 345t-334.5 122q-235 0 -353.5 -124t-150.5 -207l-123 57q42 101 192.5 253t442.5 152q233 0 411.5 -146.5t178.5 -434.5v-1057h-127v451q0 24 -74 166.5
t-196 262t-279 119.5q-144 0 -211 -93.5t-67 -188.5v-230q12 7 41 18t73 11q113 0 181.5 -73.5t68.5 -196.5q0 -113 -72 -187.5t-178 -74.5q-101 0 -171 76.5t-70 185.5v450zM442 102q61 0 96 43t35 101t-34.5 100.5t-96.5 42.5q-60 0 -93.5 -42t-33.5 -101
q0 -57 34.5 -100.5t92.5 -43.5z" />
    <glyph glyph-name="afii59718;" unicode="&#xe26;" horiz-adv-x="1602" 
d="M385 901q0 133 61.5 188.5t102.5 65.5q-54 39 -160.5 79.5t-167.5 59.5v136q54 52 206 130t388 78q125 0 259.5 -46.5t232.5 -166.5t98 -323v-1819h-123v1819q0 217 -151 311t-316 94q-172 0 -295.5 -50.5t-171.5 -84.5q4 0 139 -53q74 -27 133.5 -58t79.5 -44v-95
q-23 -7 -67 -29.5t-80 -68.5q-49 -68 -49 -197v-581q0 -111 -69.5 -186.5t-172.5 -75.5q-102 0 -174 75.5t-72 186.5q0 122 68.5 196t177.5 74q47 0 78.5 -11t44.5 -18v414zM262 102q60 0 93.5 43t33.5 101q0 59 -32.5 101t-94.5 42q-60 0 -93.5 -42t-33.5 -101
q0 -57 34.5 -100.5t92.5 -43.5z" />
    <glyph glyph-name="afii59719;" unicode="&#xe27;" horiz-adv-x="1282" 
d="M954 1077q0 155 -61 252t-144.5 137.5t-158.5 40.5q-219 0 -334.5 -153.5t-149.5 -255.5l-106 61q15 53 70.5 160t187 213t332.5 106q210 0 346.5 -148t136.5 -388v-856q0 -112 -69.5 -187t-176.5 -75q-99 0 -170 76t-71 186q0 120 68.5 195t172.5 75q50 0 82 -11t45 -18
v590zM827 102q60 0 93.5 43t33.5 101q0 59 -32.5 101t-94.5 42q-60 0 -93.5 -42t-33.5 -101q0 -57 34.5 -100.5t92.5 -43.5z" />
    <glyph glyph-name="afii59720;" unicode="&#xe28;" horiz-adv-x="1602" 
d="M1262 1434q19 -25 53 -76t49 -96q41 -149 41 -230v-1032h-123v1012q0 149 -64.5 263.5t-181 177.5t-266.5 63q-245 0 -384.5 -153t-139.5 -372q0 -92 18.5 -163.5t50 -143t33.5 -78.5l78 -184l-25 184v295q0 111 73 193t173 82q102 0 176 -79t74 -192
q0 -121 -72.5 -199.5t-177.5 -78.5q-58 3 -94 28t-49 41l20 -69v-627h-123v106q0 101 -35 190.5t-104 224.5t-106 247t-37 244q7 202 99.5 344.5t238.5 214t313 71.5q155 0 255.5 -44t137.5 -74h-1q0 6 87 73q92 77 123 146t33 100h139q0 -47 -42.5 -150.5t-186.5 -213.5
q-21 -21 -34.5 -31.5t-18.5 -13.5zM647 1040q-59 0 -93 -41t-34 -98q0 -60 33.5 -101.5t93.5 -41.5q62 0 94.5 41t32.5 102q0 58 -33 98.5t-94 40.5z" />
    <glyph glyph-name="afii59721;" unicode="&#xe29;" horiz-adv-x="1642" 
d="M1380 262q0 -160 -57 -217q-49 -45 -180 -45h-963v135h205v1000q-13 -9 -46 -23t-77 -14q-106 0 -176 78t-70 196q0 113 71.5 189.5t174.5 76.5q104 0 173 -77t69 -189v-1237h635q65 0 90 17q28 33 28 110v447q-16 -8 -60 -21t-116 -16q-184 0 -284.5 90t-100.5 217
q0 93 57.5 165.5t155.5 72.5q97 0 159 -67.5t62 -170.5q0 -82 -36.5 -126.5t-61.5 -57.5h70q54 0 96 12t59 20v795h123v-729q13 7 38.5 25t47.5 40q77 82 112 140t44 82l102 -58q-13 -31 -53 -96.5t-110 -132.5q-60 -63 -110.5 -98.5t-70.5 -44.5v-488zM909 864
q52 0 79.5 34t27.5 81q0 45 -27 78t-80 33q-47 0 -72.5 -33.5t-25.5 -77.5q0 -47 26 -81t72 -34zM262 1516q-60 0 -93.5 -42t-33.5 -102q0 -56 34.5 -99.5t92.5 -43.5q60 0 93.5 43t33.5 100q0 60 -32.5 102t-94.5 42z" />
    <glyph glyph-name="afii59722;" unicode="&#xe2a;" horiz-adv-x="1483" 
d="M1282 1057v-1057h-127v451q0 24 -74 166.5t-196 262t-279 119.5q-144 0 -211 -93.5t-67 -188.5v-230q12 7 41 18t73 11q113 0 181.5 -73.5t68.5 -196.5q0 -113 -72 -187.5t-178 -74.5q-101 0 -171 76.5t-70 185.5v450q0 111 47.5 212t139.5 164t218 63q168 0 295 -100
t190.5 -200.5t84.5 -150.5l-21 172v184q0 223 -136.5 345t-334.5 122q-235 0 -353.5 -124t-150.5 -207l-123 57q42 101 192.5 253t442.5 152q138 0 233 -39.5t132 -66.5q8 0 73 65q90 78 120 146.5t32 99.5h143q-1 -47 -45 -150.5t-188 -213.5q-13 -5 -26 -19t-19 -22
q15 -16 46.5 -61.5t55.5 -106.5q33 -92 33 -213zM442 102q61 0 96 43t35 101t-34.5 100.5t-96.5 42.5q-60 0 -93.5 -42t-33.5 -101q0 -57 34.5 -100.5t92.5 -43.5z" />
    <glyph glyph-name="afii59723;" unicode="&#xe2b;" horiz-adv-x="1585" 
d="M1217 1049q-17 26 -44.5 36.5t-42.5 12.5q-94 0 -159 -115q-25 -34 -37 -65l-430 -918h-119v1135q-13 -9 -46 -23t-77 -14q-106 0 -176 78t-70 196q0 113 71.5 189.5t174.5 76.5q104 0 173 -77t69 -189v-966l-21 -226l78 226l266 585q4 6 37.5 54.5t36.5 52.5
q32 30 56 42t34 15q-24 18 -61 72t-37 145q0 120 70.5 193t175.5 73q110 0 180 -72.5t70 -193.5q0 -95 -38.5 -150.5t-64.5 -74.5q13 -6 37.5 -24.5t36.5 -45.5q20 -49 20 -188v-889h-123v889q0 119 -40 160zM262 1516q-60 0 -93.5 -42t-33.5 -102q0 -56 34.5 -99.5
t92.5 -43.5q60 0 93.5 43t33.5 100q0 60 -32.5 102t-94.5 42zM1139 1516q-59 0 -91 -42t-32 -102q0 -57 32.5 -100t90.5 -43q61 0 96 43t35 100q0 59 -34.5 101.5t-96.5 42.5z" />
    <glyph glyph-name="afii59724;" unicode="&#xe2c;" horiz-adv-x="1749" 
d="M1544 0h-119l-413 1171l-54 181l-49 -181l-397 -1171h-127v1135q-13 -9 -46 -23t-77 -14q-106 0 -176 78t-70 196q0 113 71.5 189.5t174.5 76.5q104 0 173 -77t69 -189v-831l-21 -320l82 320l361 1081h57l377 -1081l82 -320l-17 320v1081l17 61q-17 -15 -60.5 -38
t-99.5 -23q-106 0 -178 77t-72 197q0 112 73 191.5t177 79.5q117 -2 168 -74t61 -119q12 0 29 90q10 44 18 109t11 100h114q-1 -50 -15 -158t-58 -223q-17 -43 -37 -76.5t-29 -46.5v-1769zM1282 2036q-60 0 -93.5 -41.5t-33.5 -98.5q0 -58 34.5 -100.5t92.5 -42.5t90.5 42
t32.5 101q0 58 -32 99t-91 41zM262 1516q-60 0 -93.5 -42t-33.5 -102q0 -56 34.5 -99.5t92.5 -43.5q60 0 93.5 43t33.5 100q0 60 -32.5 102t-94.5 42z" />
    <glyph glyph-name="afii59725;" unicode="&#xe2d;" horiz-adv-x="1442" 
d="M1241 262q0 -161 -65 -217q-50 -45 -177 -45h-561q-123 0 -176 45q-61 57 -61 217v549q0 110 70 188t171 78q105 0 177.5 -77.5t72.5 -188.5q0 -123 -69.5 -198.5t-180.5 -75.5q-41 0 -71.5 13.5t-42.5 22.5v-311q0 -82 20 -110q25 -17 90 -17h557q70 0 95 17
q28 28 28 110v828q0 173 -124 295t-335 122q-157 0 -261.5 -67t-148.5 -133t-56 -99l-111 54q32 94 164 235t413 141q161 0 294 -68t210.5 -190.5t77.5 -277.5v-840zM442 950q-59 0 -93 -41t-34 -98q0 -60 33.5 -101.5t93.5 -41.5q62 0 96.5 41.5t34.5 101.5q0 57 -34.5 98
t-96.5 41z" />
    <glyph glyph-name="afii59726;" unicode="&#xe2e;" horiz-adv-x="1442" 
d="M1057 1307q-239 -217 -537 -217q-155 0 -265.5 62t-119.5 155q0 70 57 143.5t166 122.5t260 49q171 0 284.5 -53.5t154.5 -89.5q57 72 84.5 154.5t34.5 123.5h135q-7 -52 -43.5 -159.5t-124.5 -208.5q25 -29 61.5 -103t36.5 -184v-840q0 -161 -65 -217q-50 -45 -177 -45
h-561q-123 0 -176 45q-61 57 -61 217v455q0 111 70.5 192.5t170.5 81.5q105 0 177.5 -80t72.5 -194q0 -123 -69 -197t-181 -74q-41 0 -71.5 12.5t-42.5 20.5v-217q0 -82 20 -110q25 -17 90 -17h557q70 0 95 17q28 28 28 110v828q0 102 -23 152.5t-38 64.5zM442 860
q-59 0 -93 -41t-34 -98q0 -60 33.5 -101.5t93.5 -41.5q62 0 96.5 41.5t34.5 101.5q0 57 -34.5 98t-96.5 41zM606 1495q-164 0 -254 -61.5t-90 -118.5q6 -45 91 -71.5t212 -26.5q158 8 262.5 70t143.5 102q-33 27 -125 66.5t-240 39.5z" />
    <glyph glyph-name="afii59727;" unicode="&#xe2f;" horiz-adv-x="1425" 
d="M426 1032q-184 0 -305 96.5t-121 243.5q0 101 60.5 175.5t148.5 74.5q100 0 158.5 -66t58.5 -172q0 -101 -49 -149t-82 -59q14 -5 49 -13t82 -8q164 24 238 99.5t178 221.5t174 146h20q61 0 111 -45q65 -57 65 -270v-1307h-114v1393q0 36 -20 63t-50 27q-21 0 -93 -97.5
t-120 -155.5t-150.5 -122t-238.5 -76zM209 1270q51 0 78.5 33.5t27.5 80.5q0 44 -27.5 77.5t-78.5 33.5q-46 0 -72 -33t-26 -78q0 -46 26 -80t72 -34z" />
    <glyph glyph-name="afii59729;" unicode="&#xe30;" horiz-adv-x="1212" 
d="M328 188q17 -16 72 -40.5t149 -24.5q169 0 293.5 125.5t140.5 296.5l8 61h127l-4 -49q-13 -215 -166 -386t-399 -171q-206 0 -328.5 119t-122.5 274q0 106 60.5 182t156.5 76q95 0 154 -68t59 -169t-59.5 -163.5t-136.5 -62.5h-4zM328 1159q17 -17 72 -43t149 -26
q111 0 207 58.5t156 157t71 214.5l8 57h127l-4 -45q-20 -223 -169.5 -394t-395.5 -171q-140 0 -241.5 57t-155.5 148.5t-54 187.5q0 106 61 184t156 78t154 -66.5t59 -171.5q0 -98 -61 -161.5t-135 -63.5h-4zM315 303q48 0 73.5 33.5t25.5 81.5q0 44 -26 77t-73 33
t-74.5 -33t-27.5 -77q0 -47 27.5 -81t74.5 -34zM315 1270q48 0 73.5 33.5t25.5 80.5q0 45 -26 78t-73 33t-74.5 -33t-27.5 -78q0 -46 27.5 -80t74.5 -34z" />
    <glyph glyph-name="afii59728;" unicode="&#xe31;" 
d="M-696 2077q14 -8 61.5 -20.5t130.5 -12.5q243 10 353 170t135 264l114 -45q-11 -56 -62 -170t-185.5 -229.5t-354.5 -120.5q-213 0 -350 103t-137 257q0 101 61 175.5t152 74.5q98 0 157.5 -66.5t59.5 -170.5q-2 -101 -52 -149.5t-83 -59.5zM-778 2167q47 0 74.5 33.5
t27.5 80.5t-27.5 81t-74.5 34q-48 0 -73.5 -33.5t-25.5 -81.5q0 -47 25.5 -80.5t73.5 -33.5z" />
    <glyph glyph-name="afii59730;" unicode="&#xe32;" horiz-adv-x="1016" 
d="M692 0v1171q0 166 -79 251t-212 85q-123 0 -199.5 -64.5t-103.5 -107.5l-90 66q31 59 127.5 148t265.5 89q181 0 297.5 -119.5t116.5 -338.5v-1180h-123z" />
    <glyph glyph-name="afii59731;" unicode="&#xe33;" horiz-adv-x="1016" 
d="M692 0v1171q0 166 -79 251t-212 85q-123 0 -199.5 -64.5t-103.5 -107.5l-90 66q31 59 127.5 148t265.5 89q181 0 297.5 -119.5t116.5 -338.5v-1180h-123zM-426 1913q-104 0 -162.5 74.5t-58.5 175.5q0 99 58 172t163 73t165 -72.5t60 -172.5q0 -102 -60.5 -176
t-164.5 -74zM-426 2294q-56 0 -87.5 -39t-31.5 -92q0 -54 31.5 -92.5t87.5 -38.5t87.5 38.5t31.5 92.5q0 52 -31.5 91.5t-87.5 39.5z" />
    <glyph glyph-name="afii59732;" unicode="&#xe34;" 
d="M-786 2028q-199 0 -347 -51t-206 -85v136q34 116 165.5 289t403.5 173q273 -2 404.5 -174.5t164.5 -287.5v-136q-64 34 -222 85t-363 51zM-770 2363q-199 0 -305 -119.5t-137 -199.5q39 28 146.5 69t279.5 41q192 0 313.5 -44t165.5 -74q-15 35 -64 106.5t-152 144
t-247 76.5z" />
    <glyph glyph-name="afii59733;" unicode="&#xe35;" 
d="M-401 2388v315h118v-499q15 -24 41.5 -83t40.5 -93v-136q-64 34 -222 85t-363 51q-199 0 -347 -51t-206 -85v136q34 116 165.5 289t403.5 173q157 -2 254.5 -66t130.5 -106zM-770 2363q-199 0 -305 -119.5t-137 -199.5q39 28 146.5 69t279.5 41q192 0 313.5 -44
t165.5 -74q-15 35 -64 106.5t-152 144t-247 76.5z" />
    <glyph glyph-name="afii59734;" unicode="&#xe36;" 
d="M-373 2314q12 0 78 -94q43 -61 65 -114t29 -78v-136q-64 34 -222 85t-363 51q-199 0 -347 -51t-206 -85v136q34 116 165.5 289t403.5 173q36 0 54.5 -3t23.5 -5q-8 0 -8 70q0 84 41 151q71 111 200 111q99 -3 166.5 -76.5t67.5 -185.5q0 -99 -54 -168q-26 -34 -53 -50
t-41 -20zM-770 2363q-199 0 -305 -119.5t-137 -199.5q39 28 146.5 69t279.5 41q192 0 313.5 -44t165.5 -74q-15 35 -64 106.5t-152 144t-247 76.5zM-467 2703q-62 0 -96.5 -43t-34.5 -104q0 -60 35 -104t96 -44q64 0 99.5 43.5t35.5 104.5t-35 104t-100 43z" />
    <glyph glyph-name="afii59735;" unicode="&#xe37;" 
d="M-516 2425l57 -41q39 -25 86 -82l-20 74v327h110v-499q15 -24 41.5 -83t40.5 -93v-136q-64 34 -222 85t-363 51q-199 0 -347 -51t-206 -85v136q34 116 165.5 289t403.5 173q47 0 85 -7.5t54 -12.5v233h115v-278zM-770 2363q-199 0 -305 -119.5t-137 -199.5
q39 28 146.5 69t279.5 41q192 0 313.5 -44t165.5 -74q-15 35 -64 106.5t-152 144t-247 76.5z" />
    <glyph glyph-name="afii59736;" unicode="&#xe38;" 
d="M-328 -885v283q-12 -6 -39 -15.5t-55 -9.5q-97 0 -159 67.5t-62 178.5q0 101 63 171.5t158 70.5t158 -68.5t63 -173.5v-504h-127zM-422 -258q-56 0 -85.5 -36.5t-29.5 -90.5q0 -50 30 -86.5t85 -36.5t85 36.5t30 86.5q0 54 -29.5 90.5t-85.5 36.5z" />
    <glyph glyph-name="afii59737;" unicode="&#xe39;" 
d="M-782 -778h102v184q-14 -7 -43 -18t-55 -11q-94 0 -157.5 70t-63.5 180q0 100 64.5 171t156.5 71t156.5 -70t64.5 -172v-405h160q37 0 49 16q20 10 20 74v536h127v-495q0 -169 -61 -221q-53 -45 -176 -45h-344v135zM-778 -246q-56 0 -87.5 -38.5t-31.5 -92.5
q0 -50 32 -88.5t87 -38.5q52 0 83 38.5t31 88.5q0 54 -30.5 92.5t-83.5 38.5z" />
    <glyph glyph-name="afii59738;" unicode="&#xe3a;" 
d="M-303 -467q-58 0 -90.5 39t-32.5 92q0 57 32 96t91 39t91 -39t32 -96q0 -53 -32.5 -92t-90.5 -39z" />
    <glyph glyph-name="afii59743;" unicode="&#xe3f;" horiz-adv-x="1671" 
d="M741 913l-299 -73v-504q0 -148 62 -180q53 -25 233 -25zM897 139q125 0 258 70q94 44 149.5 124t55.5 183q0 186 -134 295t-325 143zM741 1057v708q-192 0 -249 -32q-50 -33 -50 -181v-565q69 14 299 70zM901 1761v-647q107 43 160 86q168 123 168 287q0 274 -328 274z
M901 1896h70q221 0 332 -73q83 -50 131.5 -136t48.5 -188q0 -161 -117 -278t-281 -181q214 -36 371.5 -175t157.5 -353q0 -225 -217 -389q-172 -123 -463 -123h-37l4 -180h-160l-4 180h-573q-90 0 -90 57q0 30 16.5 48t40.5 18q67 17 80.5 43.5t13.5 107.5v1446q0 26 -26 40
t-56 14q-69 0 -69 69q0 53 94 53h573v205h160v-205z" />
    <glyph glyph-name="afii59744;" unicode="&#xe40;" horiz-adv-x="713" 
d="M328 1622v-1135q12 7 41 18t73 11q113 0 181.5 -73.5t68.5 -196.5q0 -113 -72 -187.5t-178 -74.5q-101 0 -171 76.5t-70 185.5v1376h127zM442 102q61 0 96 43t35 101t-34.5 100.5t-96.5 42.5q-60 0 -93.5 -42t-33.5 -101q0 -57 34.5 -100.5t92.5 -43.5z" />
    <glyph glyph-name="afii59745;" unicode="&#xe41;" horiz-adv-x="1425" 
d="M328 1622v-1135q12 7 41 18t73 11q113 0 181.5 -73.5t68.5 -196.5q0 -113 -72 -187.5t-178 -74.5q-101 0 -171 76.5t-70 185.5v1376h127zM1036 1622v-1135q14 7 45 18t74 11q107 0 178.5 -74.5t71.5 -195.5q0 -110 -75 -186t-175 -76q-101 0 -173.5 76.5t-72.5 185.5
v1376h127zM1155 102q61 0 96 43t35 101t-34.5 100.5t-96.5 42.5t-94.5 -42t-32.5 -101q0 -58 33.5 -101t93.5 -43zM442 102q61 0 96 43t35 101t-34.5 100.5t-96.5 42.5q-60 0 -93.5 -42t-33.5 -101q0 -57 34.5 -100.5t92.5 -43.5z" />
    <glyph glyph-name="afii59746;" unicode="&#xe42;" horiz-adv-x="872" 
d="M483 487q15 7 47.5 18t75.5 11q107 0 178.5 -74.5t71.5 -195.5q0 -111 -74 -186.5t-176 -75.5q-101 0 -173.5 76.5t-72.5 185.5v2052q0 186 -110 274q-95 66 -320 66q-36 0 -60.5 -1.5t-33.5 -2.5v135q35 70 148 174t319 104q123 0 246 -45q127 -45 217 -45q54 0 85.5 11
t41.5 18l41 -135q-13 -9 -53.5 -23t-110.5 -14q-106 0 -246 45q-123 45 -233 45q-138 0 -211.5 -55t-95.5 -92q269 0 376 -107q69 -65 96 -142.5t27 -209.5v-1811zM606 102q60 0 93.5 43t33.5 101q0 59 -32.5 101t-94.5 42q-60 0 -93.5 -42t-33.5 -101q0 -57 34.5 -100.5
t92.5 -43.5z" />
    <glyph glyph-name="afii59747;" unicode="&#xe43;" horiz-adv-x="991" 
d="M606 2658v-2171q13 7 45 18t82 11q107 0 176.5 -74.5t69.5 -195.5q0 -111 -73 -186.5t-173 -75.5q-103 0 -176.5 77.5t-73.5 184.5v2412q0 132 -62 205.5t-159 73.5q-142 0 -197.5 -93.5t-64.5 -156.5q10 11 40 28.5t83 20.5q104 0 168.5 -70t64.5 -180
q0 -121 -66 -189.5t-163 -68.5q-96 0 -169.5 95t-76.5 245q0 142 48 255t135 177t198 64q130 0 237 -98.5t107 -307.5zM127 2634q-59 0 -91 -41t-32 -99q0 -59 32.5 -101t90.5 -42q60 0 93.5 42t33.5 101q0 58 -32.5 99t-94.5 41zM733 102q60 0 93.5 43t33.5 101
q0 59 -32.5 101t-94.5 42t-94.5 -42t-32.5 -101q0 -58 33.5 -101t93.5 -43z" />
    <glyph glyph-name="afii59748;" unicode="&#xe44;" horiz-adv-x="991" 
d="M606 487q13 7 45 18t82 11q107 0 176.5 -74.5t69.5 -195.5q0 -111 -73 -186.5t-173 -75.5q-103 0 -176.5 77.5t-73.5 184.5v2097l33 541l-78 -271l-192 -520h-127l-201 746q-5 0 -12 45q-8 29 -21 37t-20 8h-45v135h86q41 0 61 -29q11 -7 21.5 -29.5t15.5 -35.5l176 -664
l13 -78l12 78l278 758h123v-2577zM733 102q60 0 93.5 43t33.5 101q0 59 -32.5 101t-94.5 42t-94.5 -42t-32.5 -101q0 -58 33.5 -101t93.5 -43z" />
    <glyph glyph-name="afii59749;" unicode="&#xe45;" horiz-adv-x="1016" 
d="M692 -717v1888q0 166 -79 251t-212 85q-123 0 -199.5 -64.5t-103.5 -107.5l-90 66q31 59 127.5 148t265.5 89q181 0 297.5 -119.5t116.5 -338.5v-1897h-123z" />
    <glyph glyph-name="afii59750;" unicode="&#xe46;" horiz-adv-x="1569" 
d="M82 1102q0 143 50 262.5t138.5 188.5t196.5 69q132 0 196.5 -77t81.5 -128q25 51 97.5 128t193.5 77q166 0 245 -127.5t79 -261.5v-1950h-119v1934q0 145 -65.5 209.5t-139.5 64.5q-113 0 -172.5 -87.5t-77.5 -146.5h-73q-13 59 -69.5 146.5t-180.5 87.5
q-99 0 -178 -94.5t-88 -212.5l-4 -41q14 20 53 49.5t102 32.5q99 0 168.5 -73.5t69.5 -172.5q0 -119 -70.5 -190.5t-167.5 -71.5q-90 0 -175.5 95.5t-90.5 289.5zM348 1114q-59 0 -91 -41t-32 -98q0 -60 32.5 -102t90.5 -42q60 0 93.5 42t33.5 102q0 57 -32.5 98t-94.5 41z
" />
    <glyph glyph-name="afii59751;" unicode="&#xe47;" 
d="M-618 2662q122 0 196 9q67 15 116 56.5t68 65.5l82 -86q-19 -27 -67.5 -74t-120.5 -69q-94 -24 -270 -24l-123 4q-117 0 -208 -69t-91 -177q0 -92 29.5 -152.5t48.5 -81.5l135 164q14 -17 39 -45.5t59 -60.5q75 -60 113 -79.5t47 -19.5q-8 11 -20.5 40t-12.5 71
q0 94 55.5 155.5t149.5 61.5q73 0 134.5 -64t61.5 -161q0 -94 -72.5 -168t-201.5 -74q-122 5 -214.5 74.5t-129.5 114.5l-143 -181q-49 41 -123 148.5t-74 257.5q10 126 72 208t154 121t192 39zM-397 2036q42 0 66 29.5t24 72.5q0 40 -24 69t-66 29q-90 0 -90 -98
q0 -102 90 -102z" />
    <glyph glyph-name="afii59752;" unicode="&#xe48;" 
d="M-401 2929v561h118v-561h-118z" />
    <glyph glyph-name="afii59753;" unicode="&#xe49;" 
d="M-926 2884v118l25 4q81 19 135.5 68.5t73.5 79.5h-13q-82 0 -143 58.5t-61 162.5q0 79 54.5 148t149.5 69q86 0 149.5 -68t63.5 -169q0 -142 -80 -236t-133 -129q213 0 361 94q128 82 180.5 200.5t61.5 180.5l102 -41q-8 -60 -59 -180.5t-206 -240t-427 -119.5h-234z
M-705 3248q49 0 78 36t29 83q0 49 -28 84t-79 35q-53 0 -79.5 -34.5t-26.5 -84.5q0 -48 27.5 -83.5t78.5 -35.5z" />
    <glyph glyph-name="afii59754;" unicode="&#xe4a;" 
d="M-463 2986q23 27 56.5 97.5t33.5 176.5q0 104 -42.5 159t-71.5 71l-144 -107l-127 115q-14 -8 -43.5 -31t-54.5 -55q-44 -63 -59 -126t-15 -91q10 21 45 51.5t99 30.5q63 0 115.5 -56t52.5 -145q0 -81 -55.5 -136.5t-137.5 -55.5q-73 0 -142.5 69.5t-74.5 204.5
q0 207 98.5 320t163.5 147l135 -115l152 115q38 -22 103 -86t93 -168q13 -48 13 -98q0 -85 -21.5 -148t-36.5 -90q40 21 113 74t121 135t61 161.5t13 117.5h102q0 -235 -98 -365q-87 -112 -210 -178t-188 -88zM-791 3170q-81 0 -81 -90t81 -90q37 0 57.5 27t20.5 63
t-20.5 63t-57.5 27z" />
    <glyph glyph-name="afii59755;" unicode="&#xe4b;" 
d="M-401 3154v-225h-123v225h-209v135h209v225h123v-225h200v-135h-200z" />
    <glyph glyph-name="afii59756;" unicode="&#xe4c;" 
d="M-528 3039q78 0 135 -61.5t57 -151.5q0 -114 -60 -175.5t-136 -61.5q-118 0 -186 86.5t-68 220.5q0 148 76.5 266.5t230.5 138.5q230 41 258 164l4 13h115q0 -61 -57 -160t-247 -123q-162 -17 -212 -89t-50 -116q13 12 47.5 30.5t92.5 18.5zM-659 2826q0 -60 32 -91.5
t78 -31.5q44 0 77.5 32t33.5 91t-33 89t-78 30q-47 0 -78.5 -30t-31.5 -89z" />
    <glyph glyph-name="afii59757;" unicode="&#xe4d;" 
d="M-426 1913q-104 0 -162.5 74.5t-58.5 175.5q0 99 58 172t163 73t165 -72.5t60 -172.5q0 -102 -60.5 -176t-164.5 -74zM-426 2294q-56 0 -87.5 -39t-31.5 -92q0 -54 31.5 -92.5t87.5 -38.5t87.5 38.5t31.5 92.5q0 52 -31.5 91.5t-87.5 39.5z" />
    <glyph glyph-name="afii59758;" unicode="&#xe4e;" 
d="M-176 2056q-115 -94 -311 -94q-148 0 -213 66q-58 57 -58 135q0 83 66 155q120 136 311 136q-63 4 -117.5 52t-54.5 128q40 168 332 209q33 4 94 4q129 0 197 -33l-95 -61q-36 12 -98 12q-65 0 -106 -12q-183 -52 -193 -140q0 -62 85.5 -98.5t168.5 -36.5l-45 -94
q-217 0 -319 -82q-78 -56 -78 -143q0 -33 16 -50q46 -45 148 -45q148 0 196 50z" />
    <glyph glyph-name="afii59759;" unicode="&#xe4f;" horiz-adv-x="1143" 
d="M270 1114q-159 -153 -159 -364q0 -132 63.5 -250t169.5 -190t225 -72q160 0 291 127q164 157 164 364q0 131 -63.5 249.5t-169.5 190.5t-226 72q-161 0 -295 -127zM823 410q-115 -115 -258 -115q-160 0 -280.5 137t-120.5 313q0 187 143 324q117 111 254 111
q104 0 197 -63.5t149 -169.5t56 -222q0 -182 -140 -315zM692 573q-60 -53 -123 -53q-78 0 -139 71t-61 159q0 86 65 151q59 53 123 53q83 0 144 -68t61 -157q0 -92 -70 -156z" />
    <glyph glyph-name="afii59760;" unicode="&#xe50;" horiz-adv-x="1585" 
d="M786 -16q-173 0 -315.5 74.5t-224.5 212t-82 315.5q0 175 82 314t224.5 215.5t315.5 76.5q176 0 322.5 -77t231.5 -216t85 -313q0 -176 -85 -314.5t-231.5 -213t-322.5 -74.5zM786 1065q-202 0 -357 -136.5t-155 -342.5q0 -211 154.5 -347.5t357.5 -136.5q133 0 251.5 60
t189.5 171t71 253q0 209 -152 344t-360 135z" />
    <glyph glyph-name="afii59761;" unicode="&#xe51;" horiz-adv-x="1602" 
d="M893 225q-13 -3 -37.5 -7.5t-40.5 -4.5q-99 0 -174.5 71.5t-75.5 194.5q0 109 74.5 185.5t175.5 76.5q108 0 179 -90.5t71 -212.5q0 -191 -112.5 -314.5t-280.5 -123.5q-137 0 -254 73.5t-185.5 201.5t-68.5 282q0 151 74.5 293.5t216.5 234t331 95.5q187 0 337 -91.5
t234.5 -250.5t84.5 -346q0 -254 -117 -411.5t-195 -211.5l-73 86q68 49 169 186.5t101 350.5q-2 146 -66.5 273.5t-187 205.5t-287.5 78q-146 0 -261.5 -70.5t-180.5 -184.5t-70 -237q0 -177 110.5 -302t287.5 -128q88 0 145 37t76 61zM815 627q-71 0 -109 -46t-38 -110
q0 -67 39 -113.5t108 -46.5q66 0 102.5 46.5t36.5 113.5q0 64 -36 110t-103 46z" />
    <glyph glyph-name="afii59762;" unicode="&#xe52;" horiz-adv-x="1892" 
d="M1712 328q0 -197 -78 -271q-61 -57 -221 -57h-921q-156 0 -222 57q-69 74 -69 271v749v70q0 189 -46 310.5t-77 164.5l98 61q38 -47 95 -183t57 -353v-70v-786q0 -103 28 -127q38 -29 111 -29h975q69 0 106 29q37 27 37 127v495q0 134 -48 194t-116 60
q-108 0 -155.5 -87.5t-57.5 -145.5h-78q-12 56 -67.5 141.5t-177.5 87.5q-122 0 -184 -78.5t-83 -171.5l-8 -28q15 18 56.5 47.5t103.5 34.5q97 0 163 -73.5t66 -176.5q0 -120 -66 -187t-163 -67q-96 0 -181.5 84.5t-88.5 275.5q0 121 46.5 230.5t135 177t207.5 67.5
q126 0 194 -76.5t88 -127.5q17 51 77 127.5t177 76.5q125 0 206 -108.5t81 -251.5v-483zM770 729q-59 0 -91 -40.5t-32 -94.5q0 -58 32 -98.5t91 -40.5q61 0 94 40.5t33 98.5q0 54 -33 94.5t-94 40.5z" />
    <glyph glyph-name="afii59763;" unicode="&#xe53;" horiz-adv-x="1790" 
d="M180 291v20v414q0 194 109 320t276 126q162 0 242.5 -95t101.5 -158q22 62 100 156t232 97q100 0 183 -54t130.5 -144.5t47.5 -198.5v-774h-119v750q0 118 -68.5 202t-173.5 84q-108 0 -187 -94t-79 -225v-717h-123v717q0 120 -82 219.5t-209 99.5q-113 0 -185.5 -89.5
t-72.5 -213.5v-311q8 12 38.5 32t96.5 25q98 0 166 -73.5t68 -176.5q0 -117 -68.5 -181t-165.5 -64q-247 0 -258 307zM438 369q-59 0 -93 -41t-34 -95q0 -56 34.5 -97.5t92.5 -41.5t90.5 41t32.5 98q0 55 -32 95.5t-91 40.5z" />
    <glyph glyph-name="afii59764;" unicode="&#xe54;" horiz-adv-x="1667" 
d="M770 557q0 98 69.5 184t180.5 86q113 0 173 -78t60 -180q-3 -113 -76 -175t-161 -62l-41 4q33 -50 130.5 -125.5t258.5 -75.5h180v-135h-729h-45q-269 0 -436 163t-170 419q0 238 147.5 413.5t458.5 175.5h45h361h36q219 0 291.5 126t77.5 210h131q-8 -119 -108 -297
t-392 -178h-36h-361h-45q-168 0 -276.5 -61t-159.5 -162t-51 -227q0 -203 140 -325t347 -122h45h201q-61 34 -153.5 139t-92.5 283zM1020 446q55 0 85 39t30 93q0 53 -29.5 92t-85.5 39t-85.5 -39t-29.5 -92q0 -54 30 -93t85 -39z" />
    <glyph glyph-name="afii59765;" unicode="&#xe55;" horiz-adv-x="1626" 
d="M1585 1565l8 -45q21 -66 21 -131q0 -145 -98 -251t-304 -106h-36h-361h-45q-168 0 -276.5 -61t-159.5 -162t-51 -227q0 -203 140 -325t347 -122h45h201q-61 34 -153.5 139t-92.5 283q0 98 69.5 184t180.5 86q113 0 173 -78t60 -180q-3 -113 -76 -175t-161 -62l-41 4
q33 -50 130.5 -125.5t258.5 -75.5h180v-135h-729h-45q-269 0 -436 163t-170 419q0 238 147.5 413.5t458.5 175.5h45h361h36q287 0 287 263l-4 24q-34 -36 -120.5 -89.5t-203.5 -53.5q-142 3 -230.5 88.5t-88.5 193.5q3 104 92 173t227 69q134 -10 218 -68.5t114 -95.5
q1 0 41 94q16 45 22 90.5t7 65.5h115q3 0 3 -11q0 -33 -28 -169q-17 -65 -41.5 -114t-36.5 -66zM1020 446q55 0 85 39t30 93q0 53 -29.5 92t-85.5 39t-85.5 -39t-29.5 -92q0 -54 30 -93t85 -39zM1430 1573q-23 31 -86 80t-160 59q-91 0 -148.5 -31.5t-60.5 -83.5
q0 -60 54 -108t126 -51q117 0 185 50.5t90 84.5z" />
    <glyph glyph-name="afii59766;" unicode="&#xe56;" horiz-adv-x="1516" 
d="M803 106q99 3 199 53t169 151.5t70 246.5q0 121 -53 231t-160 177t-258 67q-138 -3 -235 -65t-134 -103h-98q1 0 1 4q0 28 -79 271q-53 159 -107.5 265t-80.5 144l106 74q21 -32 62.5 -107t81.5 -172q23 -63 57 -171.5t49 -159.5q41 40 145 99.5t248 59.5
q167 0 298.5 -81t203.5 -221t72 -312q0 -170 -76 -300.5t-207.5 -201.5t-290.5 -71q-197 0 -329.5 103t-149.5 257q0 124 66.5 203.5t175.5 79.5q101 0 163 -75.5t62 -170.5q0 -126 -64.5 -177.5t-107.5 -60.5q14 -9 63 -23t138 -14zM549 246q53 0 81.5 38.5t28.5 92.5
q0 50 -28.5 88.5t-81.5 38.5q-56 0 -85.5 -38t-29.5 -89q0 -55 29.5 -93t85.5 -38z" />
    <glyph glyph-name="afii59767;" unicode="&#xe57;" horiz-adv-x="1946" 
d="M1282 0v786q0 122 -52.5 186t-131.5 64q-92 -5 -144.5 -89.5t-56.5 -172.5l-4 -57h-123l-4 57q0 52 -31 114t-87 105t-128 43q-94 -3 -155.5 -86t-61.5 -217v-311q8 12 38.5 32t96.5 25q98 0 166 -73.5t68 -176.5q0 -117 -68.5 -181t-165.5 -64q-247 0 -258 307v20v414
q0 195 101 320.5t243 125.5q155 0 222 -95t81 -158q16 62 80 156t199 97q132 0 215.5 -104t83.5 -256v-676h102q70 0 86 17q33 28 33 110v815v70q0 212 49 356.5t82 196.5l111 -66q-30 -45 -74.5 -172t-44.5 -315v-70v-815q0 -164 -61 -217q-50 -45 -172 -45h-201h-33z
M438 369q-59 0 -93 -41t-34 -95q0 -56 34.5 -97.5t92.5 -41.5t90.5 41t32.5 98q0 55 -32 95.5t-91 40.5z" />
    <glyph glyph-name="afii59768;" unicode="&#xe58;" horiz-adv-x="1790" 
d="M631 0h-127q-84 45 -210.5 182.5t-129.5 374.5q0 244 163 429t488 185q51 -2 229 -29.5t213 -27.5q365 0 365 393h127q0 -528 -492 -528q-33 2 -212 27.5t-230 25.5q-286 0 -409 -145.5t-123 -329.5q0 -160 83 -269t138 -149v164q0 98 45 168.5t123 73.5q71 0 121.5 -50
t135 -162t151 -169.5t161.5 -65.5q101 0 157 46t72 77q-12 -9 -42 -23t-68 -14q-96 0 -169 75t-73 187q0 105 67.5 184t178.5 79q120 0 191 -92t71 -211q0 -105 -43.5 -202t-138.5 -158.5t-232 -61.5q-124 4 -211.5 85.5t-181 208t-127.5 132.5q-61 0 -61 -119v-291z
M1364 303q60 0 93.5 42t33.5 101q0 58 -32.5 99t-94.5 41q-59 0 -91 -41t-32 -99q0 -59 32.5 -101t90.5 -42z" />
    <glyph glyph-name="afii59769;" unicode="&#xe59;" horiz-adv-x="1683" 
d="M672 -16q-200 0 -349.5 165.5t-158.5 436.5q0 135 55 268t168 222t272 95q177 0 280.5 -76.5t137.5 -127.5q0 143 70 180q27 16 61 16q51 0 142 -43t133 -43q54 24 87 159.5t44 221.5l110 -33q-13 -106 -61.5 -277t-146.5 -210q-26 -8 -41 -8q-30 0 -55.5 10t-74 35.5
t-78 37t-59.5 11.5q-24 -16 -24 -82q0 -59 20 -115l258 -811l-106 -24l-189 565q-155 479 -508 479q-116 -1 -204 -65.5t-134.5 -168.5t-46.5 -220q7 -211 124 -345.5t274 -134.5q105 0 162.5 57t74.5 95q-13 -13 -46 -33t-77 -20q-92 0 -164.5 68.5t-72.5 185.5
q0 98 64 180t173 82q121 0 196 -94t75 -201q0 -194 -116.5 -316t-268.5 -122zM786 315q57 0 88 40.5t31 95.5q0 57 -30 96t-89 39q-56 0 -87 -39.5t-31 -95.5q0 -54 32 -95t86 -41z" />
    <glyph glyph-name="afii59770;" unicode="&#xe5a;" horiz-adv-x="1573" 
d="M483 1032q-184 0 -305 96.5t-121 243.5q0 101 60.5 175.5t148.5 74.5q100 0 158.5 -66t58.5 -172q0 -101 -49 -149t-82 -59q15 -5 50.5 -13t80.5 -8q131 20 203 87.5t108.5 147.5t76 156t96.5 76h20q61 0 111 -45q65 -57 65 -270v-1307h-114v1393q0 36 -20 63t-50 27
q-23 0 -80 -124t-149 -218t-267 -109zM266 1270q51 0 79 33.5t28 80.5q0 44 -28.5 77.5t-78.5 33.5q-46 0 -72 -33t-26 -78q0 -47 25.5 -80.5t72.5 -33.5zM1348 1614h110v-1614h-110v1614z" />
    <glyph glyph-name="afii59771;" unicode="&#xe5b;" horiz-adv-x="3273" 
d="M831 16q-233 0 -438 140q-201 140 -237 323q-21 153 -29 275q0 294 147 491q147 195 308 225q114 18 213 29q136 0 237 -45q107 -35 197 -86l-12 -180q-49 36 -168 90q-105 47 -250 53q-53 0 -164 -12q-96 -12 -217 -193q-111 -177 -111 -401q0 -226 123 -385
q121 -150 377 -156q237 0 401 201q162 305 242 442q68 -98 139 -204q73 -99 107 -99q24 0 114 152q85 149 127 155q32 0 91 -106q85 -155 118 -213q113 153 148 205q71 100 102 106q27 0 148 -200q123 -197 209 -197q19 0 106 33q95 35 143 151q45 121 62 226h147
q-19 -106 -49 -222q-25 -113 -94 -188q-65 -71 -143 -111q-75 -36 -148 -36q-123 0 -254 127q-125 125 -131 200q-56 -86 -127 -176q-59 -82 -115 -106q-36 0 -61 24q-33 52 -164 262q-76 -110 -143 -192q-68 -86 -99 -86q-44 13 -110 114q-54 87 -78 119
q-56 -194 -229 -372q-165 -171 -435 -177z" />
    <glyph glyph-name="endash;" unicode="&#x2013;" horiz-adv-x="1303" 
d="M1212 782h-1106v209h1106v-209z" />
    <glyph glyph-name="emdash;" unicode="&#x2014;" horiz-adv-x="2417" 
d="M2331 782h-2204v209h2204v-209z" />
    <glyph glyph-name="quoteleft;" unicode="&#x2018;" horiz-adv-x="483" 
d="M250 1597q27 0 66.5 -21t39.5 -97q0 -45 -30.5 -84t-79.5 -39q-60 0 -95.5 49.5t-35.5 134.5q10 139 87 220t126 108l32 -37q-27 -27 -68.5 -92t-41.5 -142z" />
    <glyph glyph-name="quoteright;" unicode="&#x2019;" horiz-adv-x="483" 
d="M242 1622q-30 0 -74.5 24t-44.5 99q0 46 34.5 84.5t88.5 38.5q123 0 123 -189q-12 -133 -87 -214.5t-122 -108.5l-41 41q31 28 77 90.5t46 134.5z" />
    <glyph glyph-name="quotedblleft;" unicode="&#x201c;" horiz-adv-x="823" 
d="M250 1597q27 0 66.5 -21t39.5 -97q0 -45 -30.5 -84t-79.5 -39q-60 0 -95.5 49.5t-35.5 134.5q10 139 87 220t126 108l32 -37q-27 -27 -68.5 -92t-41.5 -142zM606 1597q29 0 72 -21.5t43 -96.5q0 -45 -33 -84t-86 -39q-123 0 -123 184q14 139 89.5 220t123.5 108l37 -37
q-31 -29 -77 -95t-46 -139z" />
    <glyph glyph-name="quotedblright;" unicode="&#x201d;" horiz-adv-x="831" 
d="M168 1622q-30 0 -74.5 24t-44.5 99q0 46 33.5 84.5t89.5 38.5q123 0 123 -189q-12 -133 -87 -214.5t-122 -108.5l-41 41q31 28 77 90.5t46 134.5zM524 1622q-27 0 -68.5 24t-41.5 99q0 46 32 84.5t82 38.5q131 0 131 -189q-13 -136 -90.5 -216t-126.5 -107l-36 41
q30 26 74 86.5t44 138.5z" />
    <glyph glyph-name="bullet;" unicode="&#x2022;" horiz-adv-x="905" 
d="M98 811q0 166 109 286t260 120t255.5 -120t104.5 -286q0 -167 -104.5 -286t-255.5 -119t-260 119.5t-109 285.5z" />
    <glyph glyph-name="ellipsis;" unicode="&#x2026;" horiz-adv-x="1946" 
d="M328 0q-58 0 -90.5 39.5t-32.5 95.5q0 55 32 93t91 38q56 0 85 -38t29 -93q0 -56 -29 -95.5t-85 -39.5zM975 0q-55 0 -87 39.5t-32 95.5q0 54 31.5 92.5t87.5 38.5t87.5 -38.5t31.5 -92.5q0 -55 -32 -95t-87 -40zM1626 0q-58 0 -90.5 39.5t-32.5 95.5q0 55 32 93t91 38
t91 -38t32 -93q0 -56 -32.5 -95.5t-90.5 -39.5z" />
    <glyph glyph-name="f700;" unicode="&#xf700;" horiz-adv-x="1323" 
d="M1073 262q0 -160 -57 -217q-45 -45 -176 -45h-25q-54 0 -78 41q-24 48 -24 57l-119 471q-17 -26 -66 -66t-122 -40q-104 0 -173 79.5t-69 198.5q0 116 70.5 193.5t171.5 77.5q107 0 174.5 -72.5t91.5 -173.5l151 -631h62q13 0 45 12q24 18 24 74v561q0 172 -77 250
q-171 160 -586 160q-89 0 -157.5 -6t-96.5 -10v102q34 86 154 215t350 129q138 0 282 -61q157 -62 283 -62q47 0 72.5 6.5t33.5 10.5l37 -127q-10 -6 -42 -15.5t-89 -9.5q-146 0 -340 74q-124 49 -241 49q-153 0 -239.5 -67.5t-113.5 -112.5q12 1 45 3q33 1 82 1
q453 0 660 -193q102 -97 102 -311v-545zM406 877q-56 0 -87.5 -41.5t-31.5 -98.5q0 -58 32 -100.5t87 -42.5q61 0 96 42t35 101q0 57 -34.5 98.5t-96.5 41.5z" />
    <glyph glyph-name="f701;" unicode="&#xf701;" 
d="M-1036 2028q-199 0 -345.5 -51t-203.5 -85v136q36 116 169 289t400 173q277 -2 409 -174.5t165 -287.5v-136q-64 34 -223.5 85t-370.5 51zM-1016 2363q-197 0 -305 -119.5t-141 -199.5q41 28 150.5 69t275.5 41q192 0 315 -44t168 -74q-35 81 -147.5 202.5t-315.5 124.5z
" />
    <glyph glyph-name="f702;" unicode="&#xf702;" 
d="M-647 2388v315h123v-499q7 -7 35.5 -70.5t46.5 -105.5v-136q-64 34 -223.5 85t-370.5 51q-199 0 -345.5 -51t-203.5 -85v136q36 116 169 289t400 173q160 -2 256.5 -66t128.5 -106zM-1016 2363q-197 0 -305 -119.5t-141 -199.5q41 28 150.5 69t275.5 41q192 0 315 -44
t168 -74q-35 81 -147.5 202.5t-315.5 124.5z" />
    <glyph glyph-name="f703;" unicode="&#xf703;" 
d="M-618 2314q11 -10 33.5 -34.5t43.5 -59.5q43 -61 67 -114t32 -78v-136q-64 34 -223.5 85t-370.5 51q-199 0 -345.5 -51t-203.5 -85v136q36 116 169 289t400 173q37 0 56.5 -3t25.5 -5q-3 12 -7.5 34.5t-4.5 35.5q0 71 24 127q61 135 222 135q102 -3 165.5 -75.5
t63.5 -186.5q0 -111 -66 -185q-21 -21 -46 -35.5t-35 -17.5zM-1016 2363q-197 0 -305 -119.5t-141 -199.5q41 28 150.5 69t275.5 41q192 0 315 -44t168 -74q-35 81 -147.5 202.5t-315.5 124.5zM-713 2703q-64 0 -97.5 -42.5t-33.5 -104.5q0 -61 34 -104.5t97 -43.5
q64 0 99.5 43.5t35.5 104.5t-35 104t-100 43z" />
    <glyph glyph-name="f704;" unicode="&#xf704;" 
d="M-766 2425q-1 0 -1 -1q0 -4 67 -40q38 -27 82 -82l-17 74v327h111v-499q7 -7 35.5 -70.5t46.5 -105.5v-136q-64 34 -223.5 85t-370.5 51q-199 0 -345.5 -51t-203.5 -85v136q36 116 169 289t400 173q46 0 86.5 -7.5t57.5 -12.5v233h106v-278zM-1016 2363
q-197 0 -305 -119.5t-141 -199.5q41 28 150.5 69t275.5 41q192 0 315 -44t168 -74q-35 81 -147.5 202.5t-315.5 124.5z" />
    <glyph glyph-name="f705;" unicode="&#xf705;" 
d="M-565 1913v610h123v-610h-123z" />
    <glyph glyph-name="f706;" unicode="&#xf706;" 
d="M-1204 1958v127l33 16q86 23 149.5 76t87.5 84h-20q-88 0 -159 67t-71 183q0 81 64 159t170 78q98 0 165.5 -73t67.5 -189q0 -155 -89 -260t-148 -145q242 0 405 110q137 92 196 220t70 194l119 -41q-9 -67 -66 -202t-229.5 -269.5t-474.5 -134.5h-270zM-954 2372
q55 0 84.5 38t29.5 93q0 51 -29.5 89t-84.5 38q-59 0 -89 -38t-30 -89q0 -55 30 -93t89 -38z" />
    <glyph glyph-name="f707;" unicode="&#xf707;" 
d="M-713 2060q26 29 64.5 107t38.5 196q-2 110 -50.5 174t-80.5 84l-156 -122l-147 127q-14 -7 -43 -29t-60 -66q-49 -69 -65.5 -139t-16.5 -102q11 22 48 54.5t104 35.5q76 0 132 -58.5t56 -158.5q0 -93 -60 -155t-149 -62q-79 0 -156 77t-85 226q0 231 109 357t181 163
l152 -127l164 127q43 -26 116.5 -99t100.5 -184q16 -55 16 -119q0 -90 -21.5 -155.5t-35.5 -93.5q43 22 122.5 79.5t135.5 149.5q74 124 74 311h123q0 -250 -115 -409q-96 -129 -232.5 -200.5t-209.5 -94.5zM-1081 2265q-45 0 -70 -29t-25 -69q0 -39 26 -69t69 -30
q37 0 59.5 29.5t22.5 69.5t-22 69t-60 29z" />
    <glyph glyph-name="f708;" unicode="&#xf708;" 
d="M-647 2118v-226h-123v226h-205v131h205v229h123v-229h205v-131h-205z" />
    <glyph glyph-name="f709;" unicode="&#xf709;" 
d="M-672 2286q86 0 147.5 -70.5t61.5 -171.5q0 -112 -68 -177t-145 -65q-125 0 -197.5 92.5t-72.5 231.5q0 154 83 281.5t245 152.5q266 39 274 164l4 24h123q0 -64 -62.5 -169t-269.5 -134q-164 -25 -215 -99t-51 -118q12 15 47 36.5t96 21.5zM-811 2044q0 -59 35.5 -93
t83.5 -34q49 0 86 33.5t37 93.5q0 65 -36 98t-87 33q-49 0 -84 -33.5t-35 -97.5z" />
    <glyph glyph-name="f70a;" unicode="&#xf70a;" 
d="M-328 1913v610h127v-610h-127z" />
    <glyph glyph-name="f70b;" unicode="&#xf70b;" 
d="M-954 1958v127l28 16q88 24 149.5 76.5t84.5 83.5h-21q-87 0 -156 66.5t-69 183.5q0 81 63.5 159t169.5 78q93 0 161.5 -74.5t68.5 -187.5q0 -155 -89 -260t-149 -145q246 0 410 110q137 89 196 218t70 196l119 -41q-21 -151 -182.5 -378.5t-591.5 -227.5h-262z
M-713 2372q56 0 87.5 38.5t31.5 92.5q0 50 -31.5 88.5t-87.5 38.5q-55 0 -84.5 -38t-29.5 -89q0 -55 29.5 -93t84.5 -38z" />
    <glyph glyph-name="f70c;" unicode="&#xf70c;" 
d="M-467 2060q25 29 61.5 106t36.5 197q-2 110 -50.5 174t-80.5 84l-155 -122l-148 127q-13 -7 -40 -29t-58 -66q-49 -69 -65.5 -139t-16.5 -102q11 22 45.5 54.5t97.5 35.5q80 0 140.5 -58.5t60.5 -158.5q0 -92 -63.5 -154.5t-149.5 -62.5q-80 0 -158.5 77t-87.5 226
q0 231 109 357t182 163l152 -127l172 127q41 -26 112 -98.5t101 -184.5q16 -55 16 -119q0 -90 -23 -155.5t-38 -93.5q45 22 127 79.5t135 149.5q69 115 69 311h115q0 -262 -111 -409q-91 -124 -226.5 -197.5t-207.5 -97.5zM-840 2265q-44 0 -67 -28.5t-23 -69.5
q0 -99 90 -99q41 0 63.5 29.5t22.5 69.5t-22 69t-64 29z" />
    <glyph glyph-name="f70d;" unicode="&#xf70d;" 
d="M-401 2118v-226h-123v226h-209v131h209v229h123v-229h200v-131h-200z" />
    <glyph glyph-name="f70e;" unicode="&#xf70e;" 
d="M-549 2396q93 0 157 -69.5t64 -172.5q0 -125 -67 -192t-154 -70q-130 0 -204 97.5t-74 246.5q0 163 83.5 293t256.5 158q261 36 290 172l4 25h132q0 -67 -65 -176t-280 -140q-177 -25 -231.5 -102t-54.5 -123q14 13 50.5 33t92.5 20zM-684 2154q0 -65 36 -100t87 -35
q50 0 86.5 35t36.5 100q0 66 -36 99t-87 33q-52 0 -87.5 -33.5t-35.5 -98.5z" />
    <glyph glyph-name="f70f;" unicode="&#xf70f;" horiz-adv-x="2138" 
d="M1212 135h476q69 0 98 17q20 28 20 110v1360h127v-1360q0 -161 -65 -217q-49 -45 -172 -45h-742v135h144v967q0 139 -63.5 230.5t-161 133t-201.5 41.5q-171 0 -293.5 -50.5t-169.5 -84.5v0l139 -53q75 -27 132.5 -58t76.5 -44v-95q-22 -7 -66 -29t-85 -69
q-46 -71 -46 -197v-340q15 7 47.5 18t75.5 11q113 0 183.5 -73.5t70.5 -196.5q0 -110 -76 -186t-178 -76q-101 0 -169 76t-68 186v655q0 135 58 190t97 64q-51 39 -155.5 79.5t-163.5 59.5v136q62 52 219 130t371 78q132 0 255.5 -54.5t204 -175t80.5 -306.5v-967zM483 102
q61 0 96 43t35 101t-34.5 100.5t-96.5 42.5q-59 0 -91 -42t-32 -101q0 -58 32.5 -101t90.5 -43z" />
    <glyph glyph-name="f710;" unicode="&#xf710;" 
d="M-918 2077q14 -8 58.5 -20.5t126.5 -12.5q244 10 354 170t133 264l127 -45q-12 -56 -64 -170.5t-189 -229.5t-361 -120q-212 0 -345.5 102.5t-133.5 257.5q0 103 59 176.5t154 73.5t154 -66.5t59 -170.5q0 -102 -49.5 -150t-82.5 -59zM-999 2167q47 0 74.5 33.5
t27.5 80.5t-27.5 81t-74.5 34q-48 0 -73.5 -33.5t-25.5 -81.5q0 -47 25.5 -80.5t73.5 -33.5z" />
    <glyph glyph-name="f711;" unicode="&#xf711;" 
d="M-741 1913q-106 0 -166 74t-60 176q0 99 59.5 172t166.5 73q105 0 165 -72.5t60 -172.5q0 -102 -60.5 -176t-164.5 -74zM-741 2294q-59 0 -89 -38.5t-30 -92.5q0 -55 30 -93t89 -38q55 0 84.5 38t29.5 93q0 53 -29.5 92t-84.5 39z" />
    <glyph glyph-name="f712;" unicode="&#xf712;" 
d="M-864 2662q123 0 196 9q65 14 115.5 56t69.5 66l82 -86q-19 -27 -68 -74t-121 -69q-94 -24 -270 -24l-123 4q-115 0 -207 -69t-92 -177q0 -92 29.5 -152.5t48.5 -81.5l135 164q14 -17 39 -45.5t59 -60.5q75 -60 113 -79.5t47 -19.5q-8 11 -20.5 40t-12.5 71
q0 94 55.5 155.5t149.5 61.5q46 0 92 -29t75.5 -80.5t29.5 -115.5q0 -94 -73.5 -168t-201.5 -74q-123 5 -215 74.5t-129 114.5l-143 -181q-49 41 -123 148.5t-74 257.5q15 183 137 275.5t281 92.5zM-643 2036q42 0 66 29.5t24 72.5q0 40 -24 69t-66 29q-90 0 -90 -98
q0 -102 90 -102z" />
    <glyph glyph-name="f713;" unicode="&#xf713;" 
d="M-647 2929v561h123v-561h-123z" />
    <glyph glyph-name="f714;" unicode="&#xf714;" 
d="M-1171 2884v118l28 4q76 18 132 68t77 80h-16q-83 0 -144 58.5t-61 162.5q0 79 54.5 148t150.5 69q85 0 149 -69t64 -168q0 -142 -80 -236t-133 -129q212 0 360 94q126 82 179 200.5t63 180.5l102 -41q-8 -60 -57 -180t-203.5 -240t-427.5 -120h-237zM-950 3248
q48 0 75 36t27 83q0 50 -26 84.5t-76 34.5q-54 0 -82.5 -34.5t-28.5 -84.5q0 -47 29.5 -83t81.5 -36z" />
    <glyph glyph-name="f715;" unicode="&#xf715;" 
d="M-705 2986q22 27 54.5 98.5t32.5 175.5q0 103 -44.5 158.5t-74.5 71.5l-135 -107l-127 115q-14 -8 -44.5 -30.5t-58.5 -55.5q-44 -69 -56.5 -129t-12.5 -88q10 21 42.5 51.5t92.5 30.5q68 0 122 -55t54 -146q0 -81 -57.5 -136.5t-139.5 -55.5q-72 0 -144 69.5t-77 204.5
q0 202 103 316.5t171 150.5l132 -115l151 115q39 -22 105.5 -87t91.5 -167q12 -55 12 -106q0 -82 -20 -143t-33 -87q40 21 112 74t117 135q46 84 58 162.5t12 116.5h102q0 -240 -98 -365q-85 -111 -208.5 -177.5t-188.5 -88.5zM-1040 3170q-78 0 -78 -90t78 -90q77 0 77 90
q0 37 -19.5 63.5t-57.5 26.5z" />
    <glyph glyph-name="f716;" unicode="&#xf716;" 
d="M-647 3154v-225h-123v225h-205v135h205v225h123v-225h205v-135h-205z" />
    <glyph glyph-name="f717;" unicode="&#xf717;" 
d="M-639 3039q82 0 139.5 -61.5t57.5 -151.5q0 -112 -63 -174.5t-138 -62.5q-121 0 -189.5 86.5t-68.5 220.5q0 148 76.5 266.5t230.5 138.5q234 40 262 164l4 13h119q0 -61 -58 -160t-249 -123q-159 -17 -208.5 -89t-49.5 -116q11 12 43.5 30.5t91.5 18.5zM-770 2826
q0 -60 32 -91.5t79 -31.5q44 0 77 32t33 91q0 58 -32.5 88.5t-77.5 30.5q-48 0 -79.5 -30t-31.5 -89z" />
    <glyph glyph-name="f718;" unicode="&#xf718;" 
d="M-328 -1720v368q-12 -5 -39 -12.5t-55 -7.5q-96 0 -158.5 68.5t-62.5 177.5q0 102 62.5 171.5t158.5 69.5t158.5 -69t62.5 -172v-594h-127zM-422 -999q-56 0 -85.5 -39t-29.5 -92q0 -52 30 -89.5t85 -37.5t85 37.5t30 89.5q0 53 -29.5 92t-85.5 39z" />
    <glyph glyph-name="f719;" unicode="&#xf719;" 
d="M-782 -1561h102v238q-14 -7 -43 -18t-55 -11q-94 0 -157.5 70t-63.5 180q0 100 64.5 171t156.5 71t156.5 -70t64.5 -172v-459h160q37 0 49 21q20 10 20 70v585h127v-545q0 -163 -61 -221q-53 -45 -176 -45h-344v135zM-778 -979q-56 0 -87.5 -38t-31.5 -89q0 -52 32 -89.5
t87 -37.5q52 0 83 37.5t31 89.5q0 51 -31 89t-83 38z" />
    <glyph glyph-name="f71a;" unicode="&#xf71a;" 
d="M-303 -1155q-59 0 -91 39t-32 96q0 55 32 95t91 40t91 -40t32 -95q0 -57 -32 -96t-91 -39z" />
    <glyph glyph-name="DEL" unicode="&#xf71b;" 
d="M-1229 2064h1229v-2064h-1229v2064z" />
    <glyph glyph-name="f71c;" unicode="&#xf71c;" horiz-adv-x="909" 
d="M0 0v8l6 -8h-6z" />
    <glyph glyph-name="f71d;" unicode="&#xf71d;" horiz-adv-x="909" 
d="M864 -224q0 -104 -61 -104q-37 0 -66 75q-34 71 -77 89q-44 -4 -164 -4h-74q-130 0 -167 4q-38 -17 -75 -96q-9 -68 -61 -68q-62 0 -62 104v122q0 75 15 88.5t100 13.5h582q78 0 94 -14.5t16 -87.5v-122z" />
    <glyph glyph-name="000a" horiz-adv-x="3072" 
d="M512 0v2560h2048v-2560h-2048zM2496 64v2432h-1920v-2432h1920z" />
  </font>
</defs>
</svg>
