<?xml version="1.0" standalone="no"?>
<!DOCTYPE svg PUBLIC "-//W3C//DTD SVG 1.1//EN" "http://www.w3.org/Graphics/SVG/1.1/DTD/svg11.dtd" >
<svg>
<metadata>
Created by FontForge 20110222 at Sun Mar 23 01:21:01 2014
 By Orthosie Webhosting
Copyright Unity Progress 1N-P1-ET-26704
</metadata>
<defs>
<font id="DilleniaUPCplBold" horiz-adv-x="0" >
  <font-face 
    font-family="DilleniaUPCplBold"
    font-weight="700"
    font-stretch="normal"
    units-per-em="4096"
    panose-1="2 2 8 3 7 5 5 2 3 4"
    ascent="3276"
    descent="-820"
    x-height="1282"
    cap-height="1790"
    bbox="-1712 -1745 3240 3633"
    underline-thickness="20"
    underline-position="-123"
    unicode-range="U+0020-F71D"
  />
<missing-glyph horiz-adv-x="1497" 
d="M136 0v2730h1089v-2730h-1089zM272 136h817v2458h-817v-2458z" />
    <glyph glyph-name=".notdef" horiz-adv-x="1497" 
d="M136 0v2730h1089v-2730h-1089zM272 136h817v2458h-817v-2458z" />
    <glyph glyph-name="glyph1" 
 />
    <glyph glyph-name="glyph2" 
 />
    <glyph glyph-name="space" unicode=" " horiz-adv-x="909" 
 />
    <glyph glyph-name="exclam" unicode="!" horiz-adv-x="909" 
d="M627 1790l-66 -1274h-213l-69 1274h348zM283 0v369h340v-369h-340z" />
    <glyph glyph-name="quotedbl" unicode="&#x22;" horiz-adv-x="1290" 
d="M958 1790v-758h-233v758h233zM336 1032v758h233v-758h-233z" />
    <glyph glyph-name="numbersign" unicode="#" horiz-adv-x="1290" 
d="M242 0l53 516h-180l24 217h189l37 320h-189l29 225h184l62 512h188l-61 -512h233l57 512h189l-66 -512h189l-29 -225h-180l-41 -320h184l-24 -217h-189l-57 -516h-189l62 516h-230l-61 -516h-184zM549 1053l-37 -320h229l41 320h-233z" />
    <glyph glyph-name="dollar" unicode="$" horiz-adv-x="1290" 
d="M1196 1790v-561h-278q-9 185 -78.5 268.5t-225.5 83.5q-105 0 -173 -57t-68 -172q0 -137 83.5 -179.5t317 -115.5t348.5 -190t115 -367q0 -242 -136.5 -386.5t-346.5 -150.5v-213h-226v238q-133 44 -196 159h-4v-147h-271v602h279q0 -211 77.5 -304t250.5 -93
q91 0 172.5 65t81.5 168q0 179 -97 240t-314 120.5t-327 161t-110 347.5t126.5 380.5t331.5 143.5v213h226v-250q89 -26 168 -147h8v143h266z" />
    <glyph glyph-name="percent" unicode="%" horiz-adv-x="2068" 
d="M1147 434q0 215 95.5 341t277.5 126q185 0 280.5 -125t95.5 -342q0 -212 -98 -341.5t-278 -129.5t-276.5 128.5t-96.5 342.5zM1364 434q0 -282 156 -282q159 0 159 282q0 279 -159 279q-156 0 -156 -279zM168 1356q0 218 96 346.5t281 128.5t281 -128t96 -347
q0 -211 -99 -341t-278 -130q-182 0 -279.5 129.5t-97.5 341.5zM360 -53l1156 1900h192l-1147 -1900h-201zM389 1356q0 -279 156 -279q89 0 124.5 84t35.5 195q0 282 -160 282q-156 0 -156 -282z" />
    <glyph glyph-name="ampersand" unicode="&#x26;" horiz-adv-x="1810" 
d="M1700 1081v-254h-172q-27 -283 -180 -467l77 -98h275v-262h-447l-110 135q-106 -104 -226 -138t-282 -34q-235 0 -388 135t-153 402q0 369 307 532q-147 185 -147 365q0 221 135.5 327.5t331.5 106.5q192 0 309 -108.5t117 -325.5q0 -277 -295 -447l319 -377
q90 137 95 254h-136v254h570zM975 336l-381 459q-98 -74 -141 -130.5t-43 -164.5q0 -135 83 -215t199 -80q131 0 283 131zM692 1581q-66 0 -106.5 -46.5t-40.5 -129.5q0 -45 17 -83t57 -94.5t45 -64.5q192 129 192 242q0 86 -45 131t-119 45z" />
    <glyph glyph-name="quotesingle" unicode="'" horiz-adv-x="643" 
d="M209 1032v758h233v-758h-233z" />
    <glyph glyph-name="parenleft" unicode="(" horiz-adv-x="774" 
d="M479 1978h234q-151 -293 -219 -573t-68 -614q0 -193 31.5 -393t95.5 -385.5t160 -340.5h-234q-327 577 -327 1119q0 568 327 1187z" />
    <glyph glyph-name="parenright" unicode=")" horiz-adv-x="774" 
d="M291 -328h-225q150 292 218 571t68 613q0 301 -72.5 595t-213.5 527h225q327 -576 327 -1122q0 -583 -327 -1184z" />
    <glyph glyph-name="asterisk" unicode="*" horiz-adv-x="1290" 
d="M508 1282l-266 74l69 246l254 -127l-28 315h225l-29 -315l246 127l74 -246l-271 -74l181 -233l-177 -152l-143 266l-143 -266l-168 152z" />
    <glyph glyph-name="plus" unicode="+" horiz-adv-x="1397" 
d="M111 557v274h471v558h233v-558h471v-274h-471v-557h-233v557h-471z" />
    <glyph glyph-name="comma" unicode="," horiz-adv-x="643" 
d="M152 0v401h344v-401l-119 -356h-213l119 356h-131z" />
    <glyph glyph-name="hyphen" unicode="-" horiz-adv-x="774" 
d="M115 598v274h544v-274h-544z" />
    <glyph glyph-name="period" unicode="." horiz-adv-x="643" 
d="M152 0v401h344v-401h-344z" />
    <glyph glyph-name="slash" unicode="/" horiz-adv-x="905" 
d="M37 -37l594 1868h233l-594 -1868h-233z" />
    <glyph glyph-name="zero" unicode="0" horiz-adv-x="1274" 
d="M401 881q0 -201 17.5 -345t69.5 -229.5t147 -85.5q146 0 191.5 168.5t45.5 491.5q0 329 -45.5 498t-191.5 169q-139 0 -186.5 -172t-47.5 -495zM82 881q0 392 128 660.5t425 268.5q211 0 336.5 -132.5t175 -339.5t49.5 -457q0 -247 -49.5 -451.5t-175.5 -335.5t-336 -131
q-297 0 -425 265.5t-128 652.5z" />
    <glyph glyph-name="one" unicode="1" horiz-adv-x="1274" 
d="M344 0v258h229v1192q-105 -113 -335 -291v336q63 44 327 270h307v-1507h230v-258h-758z" />
    <glyph glyph-name="two" unicode="2" horiz-adv-x="1274" 
d="M78 0v344q97 95 214.5 210.5t211.5 227.5q157 162 240 291.5t83 253.5q0 98 -56 159.5t-140 61.5q-114 0 -160 -83t-53 -228h-320q13 325 157 449t404 124q216 0 348 -135t132 -393q0 -133 -79 -277.5t-187.5 -271t-260 -278t-190.5 -197.5h467v221h278v-479h-1089z" />
    <glyph glyph-name="three" unicode="3" horiz-adv-x="1274" 
d="M520 774v266q324 0 324 263q0 245 -221 245q-194 0 -201 -282h-324q0 181 75.5 303.5t200 181.5t265.5 59q233 0 378.5 -121.5t145.5 -377.5q0 -169 -84 -275t-231 -123v-4q142 -18 232.5 -131.5t90.5 -285.5q0 -261 -152.5 -395t-408.5 -134q-232 0 -380 126.5
t-148 418.5h319q0 -287 213 -287q114 0 176 70t62 196q0 183 -82.5 235t-249.5 52z" />
    <glyph glyph-name="four" unicode="4" horiz-adv-x="1274" 
d="M729 688v729h-4l-446 -729h450zM520 0v258h209v176h-688v336l635 995h368v-1077h181v-254h-181v-176h168v-258h-692z" />
    <glyph glyph-name="five" unicode="5" horiz-adv-x="1274" 
d="M1114 1765v-254h-668v-483h9q98 168 311 168q141 0 239 -85t146.5 -225t48.5 -304q0 -263 -132.5 -441t-436.5 -178q-211 0 -353.5 128t-142.5 364h311q11 -122 58.5 -178t150.5 -56q222 0 222 357q0 154 -52 255t-174 101q-83 0 -144 -70t-61 -172h-299v1073h967z" />
    <glyph glyph-name="six" unicode="6" horiz-adv-x="1274" 
d="M881 586q0 336 -234 336q-121 0 -181 -103t-60 -241q0 -377 245 -377q121 0 175.5 115t54.5 270zM1171 1335h-319q-6 226 -176 226q-151 0 -200.5 -159.5t-69.5 -414.5h4q118 180 348 180q130 0 229.5 -85t152 -225t52.5 -292q0 -306 -148 -454t-413 -148
q-216 0 -335 110.5t-162.5 298t-43.5 459.5q0 979 598 979q449 0 483 -475z" />
    <glyph glyph-name="seven" unicode="7" horiz-adv-x="1274" 
d="M1184 1765v-290q-152 -328 -276 -672t-269 -803h-336q282 828 598 1511h-520v-307h-279v561h1082z" />
    <glyph glyph-name="eight" unicode="8" horiz-adv-x="1274" 
d="M422 1294q0 -262 217 -262q221 0 221 262q0 267 -221 267q-217 0 -217 -267zM131 1294q0 174 67.5 290.5t183 171t257.5 54.5q230 0 373 -127.5t143 -388.5q0 -312 -303 -381v5v-9q154 -31 243 -137.5t89 -279.5q0 -529 -545 -529q-256 0 -398.5 119.5t-142.5 409.5
q0 163 94 282.5t230 134.5v9q-291 57 -291 376zM406 504q0 -303 233 -303q112 0 170.5 82.5t58.5 220.5q0 135 -58 213t-171 78q-110 0 -171.5 -79t-61.5 -212z" />
    <glyph glyph-name="nine" unicode="9" horiz-adv-x="1274" 
d="M393 1188q0 -148 57.5 -244t180.5 -96q122 0 179.5 101.5t57.5 246.5q0 365 -245 365q-117 0 -173.5 -114t-56.5 -259zM115 430h315q0 -229 176 -229q153 0 200 165t62 420h-4q-64 -100 -141.5 -142t-202.5 -42q-198 0 -314 177.5t-116 428.5q0 307 146 454.5t407 147.5
q215 0 336 -112.5t167 -304t46 -455.5q0 -975 -602 -975q-458 0 -475 467z" />
    <glyph glyph-name="colon" unicode=":" horiz-adv-x="643" 
d="M496 0h-344v401h344v-401zM496 1282v-401h-344v401h344z" />
    <glyph glyph-name="semicolon" unicode=";" horiz-adv-x="643" 
d="M152 0v401h344v-401l-119 -356h-213l119 356h-131zM496 1282v-401h-344v401h344z" />
    <glyph glyph-name="less" unicode="&#x3c;" horiz-adv-x="1397" 
d="M1266 1389v-275l-815 -422l815 -418v-274l-1139 578v233z" />
    <glyph glyph-name="equal" unicode="=" horiz-adv-x="1397" 
d="M111 856v274h1175v-274h-1175zM111 258v274h1175v-274h-1175z" />
    <glyph glyph-name="greater" unicode="&#x3e;" horiz-adv-x="1397" 
d="M127 0v274l819 418l-819 422v275l1139 -578v-233z" />
    <glyph glyph-name="question" unicode="?" horiz-adv-x="1163" 
d="M410 516v90q0 134 28.5 218.5t130.5 207.5q112 134 150.5 200t38.5 165q0 86 -44 135t-124 49q-108 0 -146 -73.5t-43 -225.5h-319q0 291 129.5 420t386.5 129q202 0 342.5 -121.5t140.5 -345.5q0 -135 -46.5 -217.5t-141.5 -188.5q-93 -105 -138.5 -186.5t-45.5 -198.5
v-57h-299zM385 0v369h344v-369h-344z" />
    <glyph glyph-name="at" unicode="@" horiz-adv-x="1864" 
d="M963 1155q-118 0 -190.5 -103.5t-72.5 -236.5q0 -107 45 -170t132 -63q109 0 177 105.5t68 246.5q0 101 -43.5 161t-115.5 60zM1217 1356h184l-123 -635q-12 -75 -12 -94q0 -58 32 -58q90 0 164 123t74 316q0 199 -74 341.5t-203.5 215.5t-295.5 73q-181 0 -318 -96.5
t-211 -268t-74 -384.5q0 -222 79.5 -388.5t222 -257.5t325.5 -91q259 0 443 204h184q-110 -187 -275 -290t-360 -103q-227 0 -415 119t-298 333.5t-110 477.5q0 260 108.5 475t295 339t403.5 124q142 0 275.5 -53.5t239 -154.5t166 -242t60.5 -312q0 -188 -59.5 -328
t-147.5 -225.5t-178 -126.5t-152 -41q-48 0 -79 35t-31 96h-13q-108 -131 -217 -131q-138 0 -239 126t-101 296q0 244 128 433.5t323 189.5q157 0 254 -168z" />
    <glyph glyph-name="A" unicode="A" horiz-adv-x="1810" 
d="M41 0v262h131l537 1528h393l536 -1528h127v-262h-655v262h197l-103 287h-631l-98 -287h193v-262h-627zM655 811h463l-229 684z" />
    <glyph glyph-name="B" unicode="B" horiz-adv-x="1552" 
d="M578 795v-533h213q168 0 249.5 55.5t81.5 223.5q0 170 -82 212t-245 42h-217zM578 1532v-492h180q146 0 232.5 54t86.5 204q0 146 -83.5 190t-223.5 44h-192zM70 0v262h184v1270h-184v258h725q287 0 446.5 -76t159.5 -362q0 -361 -316 -406v-8q151 -6 256 -123t105 -291
q0 -337 -181 -430.5t-483 -93.5h-712z" />
    <glyph glyph-name="C" unicode="C" horiz-adv-x="1683" 
d="M1561 1790v-660h-295q0 201 -105.5 320t-279.5 119q-232 0 -333.5 -205.5t-101.5 -511.5q0 -274 117 -450.5t346 -176.5q144 0 241 109t103 280h312q-4 -230 -103.5 -377t-251 -210.5t-317.5 -63.5q-385 0 -588 254.5t-203 663.5q0 276 81.5 492t245.5 337t398 121
q296 0 439 -246v-4v209h295z" />
    <glyph glyph-name="D" unicode="D" horiz-adv-x="1810" 
d="M70 0v262h184v1270h-184v258h823q262 0 522 -169.5t260 -723.5q0 -290 -100 -492.5t-284.5 -303.5t-434.5 -101h-786zM578 1532v-1270h258q242 0 370.5 169.5t128.5 461.5q0 300 -124.5 469.5t-374.5 169.5h-258z" />
    <glyph glyph-name="E" unicode="E" horiz-adv-x="1552" 
d="M70 0v262h184v1270h-184v258h1380v-533h-270v275h-602v-492h233v246h246v-729h-246v238h-233v-533h602v324h270v-586h-1380z" />
    <glyph glyph-name="F" unicode="F" horiz-adv-x="1552" 
d="M70 1790h1380v-602h-270v344h-602v-524h213v241h241v-733h-241v242h-213v-496h225v-262h-733v262h184v1270h-184v258z" />
    <glyph glyph-name="G" unicode="G" horiz-adv-x="1810" 
d="M1589 1790v-631h-291q-9 201 -123 305.5t-294 104.5q-232 0 -333.5 -205.5t-101.5 -511.5q0 -274 117 -450.5t346 -176.5q165 0 274 117t115 317h-229v259h684v-259h-156v-659h-286v201h-4q-119 -238 -414 -238q-385 0 -588 254.5t-203 663.5q0 276 81.5 492t245.5 337
t398 121q331 0 463 -217h8v176h291z" />
    <glyph glyph-name="H" unicode="H" horiz-adv-x="1810" 
d="M70 0v262h184v1270h-184v258h729v-258h-221v-492h655v492h-225v258h737v-258h-189v-1270h189v-262h-737v262h225v520h-655v-520h221v-262h-729z" />
    <glyph glyph-name="I" unicode="I" horiz-adv-x="901" 
d="M102 0v262h189v1270h-189v258h701v-258h-189v-1270h189v-262h-701z" />
    <glyph glyph-name="J" unicode="J" horiz-adv-x="1290" 
d="M1229 1790v-258h-172v-987q0 -255 -99.5 -418.5t-425.5 -163.5q-258 0 -354 144t-96 430v61h315v-53q0 -153 33 -236.5t148 -83.5q151 0 151 254v1053h-242v258h742z" />
    <glyph glyph-name="K" unicode="K" horiz-adv-x="1683" 
d="M70 0v262h184v1270h-184v258h696v-258h-188v-565l479 565h-139v258h659v-258h-139l-492 -578l529 -692h143v-262h-717v262h176l-499 647v-647h188v-262h-696z" />
    <glyph glyph-name="L" unicode="L" horiz-adv-x="1425" 
d="M70 0v262h184v1270h-184v258h753v-258h-245v-1270h499v365h279v-627h-1286z" />
    <glyph glyph-name="M" unicode="M" horiz-adv-x="2195" 
d="M70 0v262h188v1270h-188v258h704l324 -1331h4l319 1331h705v-258h-189v-1270h189v-262h-672v262h176v1270h-4l-385 -1532h-328l-385 1532h-8v-1270h185v-262h-635z" />
    <glyph glyph-name="N" unicode="N" horiz-adv-x="1815" 
d="M45 0v262h193v1270h-193v258h651l582 -1331h8v1073h-192v258h671v-258h-188v-1532h-426l-623 1384h-4v-1122h197v-262h-676z" />
    <glyph glyph-name="O" unicode="O" horiz-adv-x="1810" 
d="M905 -37q-251 0 -433 119t-276 330.5t-94 480.5q0 270 94 484t276.5 334t432.5 120t431 -120t274.5 -333t93.5 -485q0 -271 -93.5 -482t-273.5 -329.5t-432 -118.5zM905 225q235 0 347 183.5t112 484.5q0 308 -112 492t-347 184q-233 0 -346 -184t-113 -492
q0 -301 113 -484.5t346 -183.5z" />
    <glyph glyph-name="P" unicode="P" horiz-adv-x="1552" 
d="M70 0v262h200v1270h-200v258h815q237 0 391 -109.5t154 -435.5q0 -325 -142.5 -449t-402.5 -124h-291v-410h246v-262h-770zM594 1532v-602h172q164 0 252 59t88 236q0 204 -87 255.5t-265 51.5h-160z" />
    <glyph glyph-name="Q" unicode="Q" horiz-adv-x="1810" 
d="M1774 262v-262h-574q-57 0 -154.5 -18.5t-140.5 -18.5q-251 0 -433 119t-276 330.5t-94 480.5q0 270 94 484t276.5 334t432.5 120t431 -120t274.5 -333t93.5 -485q0 -188 -79.5 -375t-264.5 -276q45 20 119 20h295zM446 893q0 -301 113 -484.5t346 -183.5
q235 0 347 183.5t112 484.5q0 308 -112 492t-347 184q-233 0 -346 -184t-113 -492z" />
    <glyph glyph-name="R" unicode="R" horiz-adv-x="1683" 
d="M70 0v262h200v1270h-200v258h868q249 0 384.5 -97.5t135.5 -410.5q0 -180 -96 -290t-252 -124v-8q135 -8 198.5 -105.5t112.5 -279.5l54 -213h151v-262h-422l-127 500q-27 117 -79.5 179t-161.5 62h-242v-479h192v-262h-716zM594 1532v-528h250q303 0 303 270
q0 258 -258 258h-295z" />
    <glyph glyph-name="S" unicode="S" horiz-adv-x="1425" 
d="M123 0v602h278q0 -211 78.5 -304t249.5 -93q90 0 170 65t80 168q0 180 -98 241t-316 120t-328 160.5t-110 347.5q0 251 140.5 387.5t355.5 136.5q246 0 364 -184h4v143h271v-561h-279q-9 185 -78.5 268.5t-220.5 83.5q-242 0 -242 -229q0 -136 82 -178t316 -116.5
t348.5 -191t114.5 -366.5q0 -163 -66 -285.5t-179.5 -187t-250.5 -64.5q-147 0 -245 36.5t-169 147.5h-4v-147h-266z" />
    <glyph glyph-name="T" unicode="T" horiz-adv-x="1552" 
d="M82 1790h1388v-619h-270v361h-262v-1270h217v-262h-766v262h225v1270h-266v-361h-266v619z" />
    <glyph glyph-name="U" unicode="U" horiz-adv-x="1683" 
d="M1642 1790v-258h-163v-914q0 -180 -80.5 -330t-224 -237.5t-322.5 -87.5q-373 0 -512 207.5t-139 447.5v914h-168v258h696v-258h-209v-787q0 -146 19 -254t92 -187t221 -79q213 0 276.5 142.5t63.5 377.5v787h-213v258h663z" />
    <glyph glyph-name="V" unicode="V" horiz-adv-x="1810" 
d="M1765 1790v-258h-139l-536 -1532h-377l-529 1532h-143v258h696v-258h-209l390 -1159l385 1159h-213v258h675z" />
    <glyph glyph-name="W" unicode="W" horiz-adv-x="2322" 
d="M2273 1790v-258h-102l-324 -1532h-397l-287 1413h-4l-299 -1413h-397l-311 1532h-107v258h639v-258h-209l197 -1131h4l295 1389h413l283 -1389h4l217 1131h-209v258h594z" />
    <glyph glyph-name="X" unicode="X" horiz-adv-x="1683" 
d="M37 0v262h106l496 660l-467 610h-102v258h680v-258h-172l278 -385l291 385h-176v258h643v-258h-107l-471 -610l500 -660h102v-262h-700v262h192l-307 430l-319 -430h201v-262h-668z" />
    <glyph glyph-name="Y" unicode="Y" horiz-adv-x="1683" 
d="M459 0v262h225v377l-520 893h-131v258h704v-258h-192l311 -565l320 565h-201v258h667v-258h-122l-521 -893v-377h222v-262h-762z" />
    <glyph glyph-name="Z" unicode="Z" horiz-adv-x="1556" 
d="M102 0v332l938 1200h-647v-328h-266v586h1298v-332l-950 -1196h713v356h262v-618h-1348z" />
    <glyph glyph-name="bracketleft" unicode="[" horiz-adv-x="774" 
d="M684 1978v-204h-246v-1897h246v-205h-487v2306h487z" />
    <glyph glyph-name="backslash" unicode="\" horiz-adv-x="905" 
d="M631 -37l-594 1868h233l594 -1868h-233z" />
    <glyph glyph-name="bracketright" unicode="]" horiz-adv-x="774" 
d="M98 -328v205h242v1897h-242v204h488v-2306h-488z" />
    <glyph glyph-name="asciicircum" unicode="^" horiz-adv-x="1397" 
d="M594 1790h213l410 -1004h-226l-286 730l-304 -730h-225z" />
    <glyph glyph-name="underscore" unicode="_" horiz-adv-x="1163" 
d="M57 -340v139h1033v-139h-1033z" />
    <glyph glyph-name="grave" unicode="`" horiz-adv-x="643" 
d="M291 1847l188 -397h-196l-312 397h320z" />
    <glyph glyph-name="a" unicode="a" horiz-adv-x="1290" 
d="M831 0v184h-4q-71 -125 -151.5 -173t-208.5 -48q-163 0 -272 108t-109 306q0 277 172.5 353.5t458.5 76.5h110v94q0 201 -213 201q-187 0 -204 -213h-287q7 174 80.5 269.5t184 128t259.5 32.5q177 0 279 -58.5t145 -180.5t43 -322v-508h139v-250h-422zM827 586h-151
q-142 0 -220.5 -42t-78.5 -159q0 -87 46.5 -133.5t121.5 -46.5q135 0 208.5 105.5t73.5 275.5z" />
    <glyph glyph-name="b" unicode="b" horiz-adv-x="1425" 
d="M807 225q101 0 163 108t62 306q0 422 -258 422q-130 0 -200 -116.5t-70 -280.5q0 -220 67.5 -329.5t235.5 -109.5zM70 0v250h151v1331h-151v250h450v-733l8 4q49 103 139.5 160t200.5 57q222 0 355 -178t133 -523q0 -175 -52.5 -324.5t-160 -240t-258.5 -90.5
q-140 0 -229.5 55.5t-155.5 190.5v-209h-430z" />
    <glyph glyph-name="c" unicode="c" horiz-adv-x="1163" 
d="M1098 1282v-496h-246q-6 287 -225 287q-130 0 -186 -123.5t-56 -302.5q0 -422 250 -422q83 0 139.5 59t65.5 162h274q-14 -232 -149.5 -357.5t-333.5 -125.5q-199 0 -325 97t-181 246t-55 304q0 322 120.5 515.5t374.5 193.5q93 0 171.5 -47.5t119.5 -136.5h8v147h234z
" />
    <glyph glyph-name="d" unicode="d" horiz-adv-x="1425" 
d="M1204 1831v-1581h152v-250h-426v209h-12q-71 -133 -157 -189.5t-229 -56.5q-221 0 -341.5 191.5t-120.5 463.5q0 346 130 523.5t353 177.5q246 0 336 -225h4v487h-148v250h459zM614 225q167 0 235.5 109.5t68.5 329.5q0 168 -69.5 282.5t-205.5 114.5q-133 0 -195.5 -122
t-62.5 -300q0 -194 63.5 -304t165.5 -110z" />
    <glyph glyph-name="e" unicode="e" horiz-adv-x="1290" 
d="M410 766h483q0 307 -242 307q-112 0 -176.5 -85t-64.5 -222zM1204 537h-794q0 -153 73 -242.5t201 -89.5q173 0 209 192h299q-37 -219 -178 -326.5t-338 -107.5q-283 0 -432.5 184.5t-149.5 511.5q0 197 72.5 347.5t202.5 231.5t299 81q204 0 346.5 -130t177.5 -362
q12 -102 12 -290z" />
    <glyph glyph-name="f" unicode="f" horiz-adv-x="905" 
d="M102 0v250h193v782h-193v250h193v143q0 443 434 443q55 0 209 -25v-270q-15 3 -36 8t-40 8.5t-39 3.5q-107 0 -162 -39t-55 -170v-102h246v-250h-246v-782h201v-250h-705z" />
    <glyph glyph-name="g" unicode="g" horiz-adv-x="1425" 
d="M1356 1282v-250h-152v-913q0 -274 -135 -448.5t-442 -174.5q-245 0 -370 100t-134 322h336q8 -105 60.5 -140.5t139.5 -35.5q102 0 168 95t66 220v144q-82 -103 -156.5 -144t-208.5 -41q-138 0 -243 85.5t-160 229.5t-55 308q0 302 122 487t373 185q235 0 353 -230h4v201
h434zM385 659q0 -161 69.5 -270.5t192.5 -109.5q136 0 203.5 109.5t67.5 283.5q0 163 -64.5 272t-202.5 109q-134 0 -200 -115t-66 -279z" />
    <glyph glyph-name="h" unicode="h" horiz-adv-x="1425" 
d="M33 0v250h160v1331h-160v250h467v-733q101 221 348 221q385 0 385 -467v-602h151v-250h-602v250h140v545q0 266 -172 266q-121 0 -185.5 -107t-64.5 -213v-491h139v-250h-606z" />
    <glyph glyph-name="i" unicode="i" horiz-adv-x="774" 
d="M82 0v250h151v782h-151v250h463v-1032h151v-250h-614zM545 1831v-369h-324v369h324z" />
    <glyph glyph-name="j" unicode="j" horiz-adv-x="643" 
d="M500 1282v-1311q0 -169 -29 -271t-104 -153t-211 -51q-31 0 -82 9.5t-74 11.5v237q113 0 153 47.5t40 173.5v1057h-160v250h467zM500 1831v-369h-328v369h328z" />
    <glyph glyph-name="k" unicode="k" horiz-adv-x="1425" 
d="M53 0v250h156v1331h-156v250h463v-1098l324 295v4h-148v250h619v-250h-115l-266 -225l311 -557h123v-250h-590v250h131l-192 348l-197 -180v-168h127v-250h-590z" />
    <glyph glyph-name="l" unicode="l" horiz-adv-x="774" 
d="M82 0v250h151v1331h-151v250h463v-1581h151v-250h-614z" />
    <glyph glyph-name="m" unicode="m" horiz-adv-x="2195" 
d="M57 0v250h156v782h-156v250h435v-217h4q55 122 152.5 188t215.5 66q257 0 365 -238q113 238 352 238q398 0 410 -418v-651h151v-250h-598v250h139v557q0 254 -192 254q-115 0 -176.5 -97.5t-61.5 -234.5v-479h140v-250h-586v250h139v557q0 102 -52 178t-140 76
q-114 0 -176 -106t-62 -242v-463h139v-250h-598z" />
    <glyph glyph-name="n" unicode="n" horiz-adv-x="1556" 
d="M102 0v250h152v782h-152v250h435v-217h8q52 122 149.5 188t218.5 66q208 0 299 -125.5t91 -374.5v-569h147v-250h-598v250h135v557q0 105 -47 179.5t-137 74.5q-118 0 -176 -104t-58 -244v-463h140v-250h-607z" />
    <glyph glyph-name="o" unicode="o" horiz-adv-x="1290" 
d="M385 639q0 -171 63 -292.5t195 -121.5q141 0 203.5 119.5t62.5 294.5q0 179 -62.5 300.5t-203.5 121.5q-132 0 -195 -124t-63 -298zM643 1319q264 0 425 -181t161 -499t-161.5 -497t-424.5 -179q-256 0 -414.5 179.5t-158.5 496.5t158 498.5t415 181.5z" />
    <glyph glyph-name="p" unicode="p" horiz-adv-x="1425" 
d="M807 225q101 0 163 108t62 306q0 422 -258 422q-130 0 -200 -116.5t-70 -280.5q0 -220 67.5 -329.5t235.5 -109.5zM70 -463v246h151v1249h-151v250h430v-229q127 266 368 266q222 0 355 -178t133 -523q0 -175 -52.5 -324.5t-160 -240t-258.5 -90.5q-123 0 -202 45.5
t-155 167.5h-8v-393h176v-246h-626z" />
    <glyph glyph-name="q" unicode="q" horiz-adv-x="1425" 
d="M614 225q167 0 235.5 109.5t68.5 329.5q0 168 -69.5 282.5t-205.5 114.5q-133 0 -195.5 -122t-62.5 -300q0 -194 63.5 -304t165.5 -110zM1356 -217v-246h-627v246h164v393h-4q-71 -123 -149 -168t-208 -45q-221 0 -341.5 191.5t-120.5 463.5q0 346 130 523.5t353 177.5
q242 0 365 -266h4v229h434v-250h-152v-1249h152z" />
    <glyph glyph-name="r" unicode="r" horiz-adv-x="1032" 
d="M102 0v250h152v782h-152v250h443v-250h4q117 287 332 287q57 0 131 -16v-299q-41 12 -135 12q-146 0 -223 -110t-85 -292v-364h181v-250h-648z" />
    <glyph glyph-name="s" unicode="s" horiz-adv-x="1163" 
d="M111 0v451h245q0 -114 67.5 -180t166.5 -66q60 0 110 36t50 115q0 87 -120.5 120t-236 59.5t-203.5 112t-88 278.5q0 189 115.5 291t278.5 102q198 0 295 -172h4v135h233v-426h-246q0 110 -54.5 163.5t-145.5 53.5q-172 0 -172 -139q0 -81 116 -112.5t237.5 -59.5
t209.5 -112t88 -273q0 -178 -108.5 -296t-284.5 -118q-222 0 -320 172h-4v-135h-233z" />
    <glyph glyph-name="t" unicode="t" horiz-adv-x="905" 
d="M799 1282v-250h-295v-614q0 -98 16 -145.5t78 -47.5q94 0 94 185h185q0 -229 -77.5 -338t-267.5 -109q-146 0 -238.5 108t-92.5 257v704h-181v250h181v250l303 127v-377h295z" />
    <glyph glyph-name="u" unicode="u" horiz-adv-x="1425" 
d="M1233 1282v-1032h151v-250h-430v217h-8q-118 -254 -368 -254q-143 0 -227.5 57t-121 166.5t-36.5 276.5v569h-160v250h467v-807q0 -105 50.5 -177.5t137.5 -72.5q117 0 175.5 102t58.5 238v467h-140v250h451z" />
    <glyph glyph-name="v" unicode="v" horiz-adv-x="1425" 
d="M1384 1282v-250h-118l-373 -1032h-373l-368 1032h-115v250h610v-250h-160l238 -733l238 733h-160v250h581z" />
    <glyph glyph-name="w" unicode="w" horiz-adv-x="2068" 
d="M2036 1282v-250h-103l-274 -1032h-410l-213 1024h-4l-221 -1024h-410l-266 1032h-102v250h569v-250h-151l163 -745h4l218 995h430l209 -995h4l168 745h-152v250h541z" />
    <glyph glyph-name="x" unicode="x" horiz-adv-x="1425" 
d="M70 0v250h98l344 414l-307 368h-107v250h566v-250h-103l172 -217l176 217h-106v250h532v-250h-106l-316 -364l340 -418h103v-250h-598v250h143l-213 262l-209 -262h139v-250h-548z" />
    <glyph glyph-name="y" unicode="y" horiz-adv-x="1425" 
d="M1384 1282v-250h-102l-520 -1241q-60 -164 -139.5 -229.5t-229.5 -65.5q-86 0 -172 21v254q85 -17 160 -17q61 0 102.5 62.5t81.5 175.5l-426 1040h-106v250h610v-250h-164l242 -647l250 647h-160v250h573z" />
    <glyph glyph-name="z" unicode="z" horiz-adv-x="1298" 
d="M127 0v287l635 745h-365v-188h-258v438h1012v-274l-643 -758h405v213h254v-463h-1040z" />
    <glyph glyph-name="braceleft" unicode="{" horiz-adv-x="774" 
d="M750 1978v-204h-132q-122 0 -122 -201v-422q0 -281 -230 -324v-4q230 -39 230 -323v-418q0 -205 122 -205h132v-205h-201q-93 0 -190 100.5t-97 264.5v422q0 127 -71 188.5t-150 61.5v237q78 0 149.5 59t71.5 179v422q0 170 96.5 271t190.5 101h201z" />
    <glyph glyph-name="bar" unicode="|" horiz-adv-x="516" 
d="M139 -37v1868h234v-1868h-234z" />
    <glyph glyph-name="braceright" unicode="}" horiz-adv-x="774" 
d="M20 -328v205h132q127 0 127 205v418q0 279 225 323v4q-225 47 -225 324v422q0 201 -127 201h-132v204h205q95 0 191 -100.5t96 -271.5v-422q0 -121 70.5 -183.5t146.5 -62.5v-229q-77 0 -147 -62.5t-70 -187.5v-422q0 -112 -46.5 -195t-115 -126.5t-125.5 -43.5h-205z
" />
    <glyph glyph-name="asciitilde" unicode="~" horiz-adv-x="1397" 
d="M1126 918l86 -209q-68 -114 -126 -172t-148 -58q-89 0 -233 94q-86 49 -133 70t-117 21q-111 0 -189 -197l-82 217q117 221 279 221q86 0 258 -86q151 -90 217 -90q57 0 98 48.5t90 140.5z" />
    <glyph glyph-name="0e00;" unicode="&#xe00;" horiz-adv-x="360" 
 />
    <glyph glyph-name="afii59681" unicode="&#xe01;" horiz-adv-x="1483" 
d="M246 0v741q0 132 50.5 203.5t84.5 91.5q-24 23 -123 51.5t-160 42.5v242q58 67 213 166.5t389 99.5q170 0 312.5 -62.5t226.5 -189t84 -309.5v-1077h-250v1012q0 143 -72 226t-160 114.5t-145 31.5q-134 0 -219.5 -41t-116.5 -69q-2 0 -2 -1q0 -4 154 -48q25 -7 79 -29
l81 -33v-164q-25 -11 -70.5 -40t-73.5 -70q-45 -70 -45 -193v-696h-237z" />
    <glyph glyph-name="afii59682;" unicode="&#xe02;" horiz-adv-x="1462" 
d="M938 266q61 0 90 24.5t29 106.5v1225h237v-1294q0 -197 -69 -271q-62 -57 -221 -57h-701v266h221v590q42 22 106 93t66 198q0 115 -61.5 184.5t-151.5 69.5q-50 0 -80.5 -12.5t-42.5 -20.5q47 -10 118 -65.5t71 -192.5q0 -121 -78.5 -202t-187.5 -81q-90 0 -169 83
t-85 212q0 140 59.5 258.5t161 187.5t217.5 70q216 0 341.5 -144t125.5 -372q-2 -160 -63 -255t-101 -126v-475h168zM295 1208q-38 0 -60 -26.5t-22 -63.5q0 -90 82 -90q38 0 60 26.5t22 63.5q0 36 -22 63t-60 27z" />
    <glyph glyph-name="afii59683;" unicode="&#xe03;" horiz-adv-x="2093" 
d="M1323 266h250q56 0 86 25q24 29 24 106v1225h250v-1294q0 -197 -73 -271q-66 -57 -222 -57h-667v266h102v746q0 203 -130.5 281.5t-242.5 78.5q-135 0 -212 -36.5t-103 -61.5h-1q0 -3 128 -41q42 -13 87.5 -31.5t72.5 -30.5v-180q-25 -9 -70.5 -35t-73.5 -67
q-45 -70 -45 -193v-28q7 1 26.5 2.5t47.5 1.5q135 0 225 -97t90 -251q0 -146 -91 -243t-224 -97q-135 0 -223 98t-88 242v417q0 131 37 201.5t61 89.5q-10 11 -99 41.5t-147 48.5v250q58 67 213 166.5t389 99.5q170 0 312.5 -62.5t226.5 -189t84 -309.5v-811zM557 221
q50 0 76 34t26 81t-25.5 81t-76.5 34q-47 0 -74.5 -34.5t-27.5 -80.5t28 -80.5t74 -34.5z" />
    <glyph glyph-name="afii59684;" unicode="&#xe04;" horiz-adv-x="1585" 
d="M418 606l57 266q31 150 111.5 229t187.5 79q106 0 194.5 -85.5t88.5 -234.5q0 -158 -88.5 -236.5t-194.5 -78.5q-43 0 -77.5 14t-49.5 23q-8 -25 -25 -90t-32 -156q-41 -224 -41 -336h-246v61q0 105 -21 189t-68 235t-71 271t-24 256q12 187 105 331.5t238.5 221.5
t307.5 77q194 0 343 -91t230.5 -248.5t81.5 -352.5v-950h-249v946q0 189 -113.5 320t-292.5 131q-130 0 -225 -62.5t-146 -169.5t-51 -235q0 -122 26.5 -207.5t43.5 -116.5zM774 979q-47 0 -74.5 -33.5t-27.5 -81.5q0 -46 27.5 -80t74.5 -34q50 0 76.5 33.5t26.5 80.5
q0 48 -26.5 81.5t-76.5 33.5z" />
    <glyph glyph-name="afii59685;" unicode="&#xe05;" horiz-adv-x="1323" 
d="M893 672q0 180 -90 246q-65 49 -168 61t-275 12h-241v168q28 117 146 292t374 175q122 0 262 -53q136 -49 221 -49q37 0 56.5 6t25.5 10l45 -242q-9 -7 -39 -17.5t-84 -10.5q-110 0 -249 57q-92 41 -197 41q-120 0 -188.5 -50.5t-90.5 -84.5q424 0 582 -123
q88 -73 117.5 -157t29.5 -212v-413q0 -201 -69 -271q-62 -57 -217 -57h-148l-86 303q-13 -10 -46.5 -25.5t-80.5 -15.5q-100 0 -191 80.5t-91 239.5q0 148 87 233.5t195 85.5q228 0 303 -307l78 -328h29v406zM483 696q-47 0 -74.5 -33.5t-27.5 -80.5t27.5 -81t74.5 -34
q50 0 76.5 33.5t26.5 81.5q0 47 -26.5 80.5t-76.5 33.5z" />
    <glyph glyph-name="afii59686;" unicode="&#xe06;" horiz-adv-x="1724" 
d="M934 717q28 0 180 -127q73 -63 132 -132.5t81 -101.5l-4 111v1155h246v-1622h-246q1 0 1 1q0 12 -226 273q-71 75 -110 111t-54 49v-143q0 -148 -90 -234t-213 -86q-142 0 -235 98.5t-93 278.5q19 231 159 314t230 92v147q31 22 78 85t49 161q0 107 -53.5 159.5
t-89.5 65.5l-111 -65l-82 49q-20 20 -49 20q-47 0 -98 -61q-21 -34 -25.5 -41t-7.5 -12h25q94 0 165.5 -70t71.5 -201q0 -119 -77.5 -196.5t-184.5 -77.5q-92 0 -176 87.5t-90 235.5q0 301 143 435t238 163l147 -106l135 106q89 -22 223 -135.5t134 -380.5q0 -115 -46 -197
t-77 -114v-94zM315 1094q-38 0 -60 -26.5t-22 -63.5q0 -95 82 -95t82 95q0 90 -82 90zM528 348q0 -62 30 -94.5t60 -32.5q78 0 78 127v148q-37 -2 -95.5 -31t-72.5 -117z" />
    <glyph glyph-name="afii59687;" unicode="&#xe07;" horiz-adv-x="1155" 
d="M680 946q-134 0 -227 99t-93 253q0 147 93.5 243.5t226.5 96.5q134 0 222.5 -98.5t88.5 -241.5v-999q0 -188 -61 -246q-58 -53 -193 -53h-90l-627 778l189 180l536 -667v659q-4 -1 -19 -2.5t-46 -1.5zM680 1397q-46 0 -72 -33.5t-26 -77.5q0 -46 26.5 -80.5t71.5 -34.5
q50 0 76 34t26 81q0 44 -25.5 77.5t-76.5 33.5z" />
    <glyph glyph-name="afii59688;" unicode="&#xe08;" horiz-adv-x="1323" 
d="M909 266v766q0 148 -87.5 244t-211.5 96q-162 0 -248 -90.5t-112 -151.5l-221 103q40 101 182 253t420 152q228 0 376 -145t148 -391v-803q0 -188 -57 -246q-58 -53 -201 -53h-164l-139 479q-15 -8 -51 -20.5t-76 -12.5q-105 0 -196 79t-91 233q0 153 88.5 236t198.5 83
q106 0 188 -78t111 -221l127 -512h16zM467 872q-47 0 -74.5 -32.5t-27.5 -77.5q0 -43 28.5 -77t73.5 -34t69.5 33t24.5 78q0 47 -23.5 78.5t-70.5 31.5z" />
    <glyph glyph-name="afii59689;" unicode="&#xe09;" horiz-adv-x="1626" 
d="M1036 1032q0 148 -91.5 244t-215.5 96q-151 0 -239 -61.5t-117 -102.5l-209 144q45 72 184 179t381 107q149 0 276 -67.5t202 -190t75 -278.5v-291q43 -4 130.5 -35.5t176.5 -133t94 -286.5q0 -175 -106 -273.5t-238 -98.5q-129 0 -216 79t-87 228v180q-38 0 -192 -201
q-58 -74 -104.5 -152.5t-67.5 -117.5h-246v426q-6 -1 -24.5 -2.5t-49.5 -1.5q-83 0 -156.5 46.5t-116 128.5t-42.5 181q0 97 42.5 176.5t115.5 123.5t157 44q133 0 226.5 -101.5t93.5 -242.5v-221l-13 -176q12 26 53 88.5t132 157.5q78 74 126 106.5t66 40.5v258zM352 872
q-47 0 -72.5 -31.5t-25.5 -78.5q0 -44 26 -77.5t72 -33.5q47 0 73 33.5t26 77.5q0 47 -25.5 78.5t-73.5 31.5zM1278 537v-181q0 -62 15.5 -94.5t62.5 -32.5q39 0 70.5 32t31.5 95q-5 110 -71 145t-109 36z" />
    <glyph glyph-name="afii59690;" unicode="&#xe0a;" horiz-adv-x="1462" 
d="M1294 991v-663q0 -197 -69 -271q-62 -57 -221 -57h-701v266h221v590q42 22 106 93t66 198q0 115 -61.5 184.5t-151.5 69.5q-50 0 -80.5 -12.5t-42.5 -20.5q47 -10 118 -65.5t71 -192.5q0 -121 -78.5 -202t-187.5 -81q-90 0 -169 83t-85 212q0 140 59.5 258.5t161 187.5
t217.5 70q173 0 265.5 -73.5t119.5 -122.5q24 8 76.5 36.5t111.5 82.5q61 57 86 121.5t29 95.5h250q-4 -45 -28.5 -136t-82.5 -163q-43 -67 -91.5 -104t-72.5 -48q19 -9 54 -34t57 -60q53 -92 53 -242zM295 1208q-38 0 -60 -26.5t-22 -63.5q0 -90 82 -90q38 0 60 26.5
t22 63.5q0 36 -22 63t-60 27zM934 1176v-54q-2 -160 -63 -255t-101 -126v-475h168q61 0 90 24.5t29 106.5v504q0 184 -62 238q-12 17 -31.5 26t-29.5 11z" />
    <glyph glyph-name="afii59691;" unicode="&#xe0b;" horiz-adv-x="1569" 
d="M852 1548q27 -18 57 -52t45 -54q25 8 77.5 36t107.5 83q68 60 91.5 123t26.5 94h246q-2 -45 -21.5 -134.5t-76.5 -164.5q-48 -65 -95 -103t-69 -49q16 -9 45.5 -33t52.5 -61q66 -103 66 -242v-663q0 -197 -78 -271q-57 -57 -217 -57h-709v266h230v590q42 22 106 93
t66 198q0 107 -54 159.5t-90 65.5l-110 -94l-94 78q-3 2 -12 5t-21 3q-51 0 -94 -57q-21 -21 -31.5 -42.5t-13.5 -31.5h20q98 0 172 -66t74 -192q0 -120 -78.5 -199.5t-187.5 -79.5q-93 0 -175 88.5t-92 239.5q0 297 143 438t238 176l152 -106l131 106q21 -3 67 -21t105 -69
zM1036 1176v-54q-2 -160 -63 -255t-101 -126v-475h168q66 0 90 25q25 24 25 106v504q0 183 -53 238q-16 16 -36.5 25.5t-29.5 11.5zM295 1073q-78 0 -78 -90t78 -90q38 0 60 26.5t22 63.5q0 36 -22 63t-60 27z" />
    <glyph glyph-name="afii59692;" unicode="&#xe0c;" horiz-adv-x="2093" 
d="M1339 766q22 -11 72 -44.5t105 -86.5q76 -71 123 -130t61 -83l-17 135v1065h250v-1622h-250v0q0 6 -45 96q-49 96 -110 170q-70 92 -120.5 138t-68.5 55v-168q0 -149 -85 -228t-218 -79q-64 0 -114 21.5t-91.5 51t-44.5 29.5q-18 -25 -76 -63.5t-153 -38.5
q-135 0 -223 98t-88 242v417q0 131 37 201.5t61 89.5q-10 11 -99 41.5t-147 48.5v250q58 67 213 166.5t389 99.5q177 0 323 -68t231 -200t85 -313v-291zM913 356q0 -62 35 -94.5t76 -32.5q82 0 82 127v181q-45 -1 -114.5 -36t-78.5 -145zM557 221q50 0 76 34t26 81t-25.5 81
t-76.5 34q-47 0 -74.5 -34.5t-27.5 -80.5t28 -80.5t74 -34.5zM1098 991q0 204 -133 292.5t-265 88.5q-135 0 -212 -36.5t-103 -61.5h-1q0 -3 128 -41q42 -13 87.5 -31.5t72.5 -30.5v-180q-25 -9 -70.5 -35t-73.5 -67q-45 -70 -45 -193v-28q7 1 26.5 2.5t47.5 1.5
q79 0 125.5 -30.5t62.5 -51.5q10 19 40 56t79 67q80 56 143 71t91 15v192z" />
    <glyph glyph-name="afii59693;" unicode="&#xe0d;" horiz-adv-x="2093" 
d="M1446 -504q82 0 164 98q51 69 75 144.5t31 114.5l221 -46q-8 -65 -54 -197t-183.5 -263.5t-380.5 -132.5q-223 0 -326.5 115.5t-103.5 281.5q0 102 76.5 200.5t210.5 98.5q132 0 211 -86t79 -205q0 -44 -7.5 -77t-12.5 -46zM1323 266h250q56 0 86 25q24 29 24 106v1225
h250v-1294q0 -197 -73 -271q-66 -57 -222 -57h-667v266h102v746q0 203 -130.5 281.5t-242.5 78.5q-135 0 -212 -36.5t-103 -61.5h-1q0 -3 128 -41q42 -13 87.5 -31.5t72.5 -30.5v-180q-25 -9 -70.5 -35t-73.5 -67q-45 -70 -45 -193v-28q7 1 26.5 2.5t47.5 1.5q135 0 225 -97
t90 -251q0 -146 -91 -243t-224 -97q-135 0 -223 98t-88 242v417q0 131 37 201.5t61 89.5q-10 11 -99 41.5t-147 48.5v250q58 67 213 166.5t389 99.5q170 0 312.5 -62.5t226.5 -189t84 -309.5v-811zM557 221q50 0 76 34t26 81t-25.5 81t-76.5 34q-47 0 -74.5 -34.5
t-27.5 -80.5t28 -80.5t74 -34.5zM1176 -512q49 0 75.5 31.5t26.5 79.5q0 44 -26.5 77t-75.5 33q-44 0 -69.5 -33t-25.5 -77q0 -47 25 -79t70 -32z" />
    <glyph glyph-name="afii59694;" unicode="&#xe0e;" horiz-adv-x="1585" 
d="M1176 -459v1471q0 141 -70 221.5t-156 109.5t-143 29q-134 0 -215 -36.5t-109 -61.5v0q0 -2 127 -41q63 -17 121.5 -44.5t83.5 -41.5v-180q-78 0 -123 -58q-45 -50 -45 -143v-442q0 -144 -88 -242t-223 -98q-131 0 -225.5 97.5t-94.5 242.5q0 153 93.5 250.5t226.5 97.5
q29 0 44.5 -1.5t20.5 -2.5v159q0 83 29.5 134t48.5 67q-19 15 -118 46t-160 48v250q56 67 211 166.5t395 99.5q165 0 307 -63t226.5 -190t84.5 -308v-1843h-237v0q0 7 -184 143q-47 38 -84 66t-56 41q-27 -67 -120.5 -168.5t-264.5 -101.5q-116 0 -228.5 89t-115.5 238
q0 156 101 254.5t243 98.5q100 0 169.5 -27.5t96.5 -46.5q12 0 21 90q6 39 10.5 72.5t5 39.5t0.5 11l234 -45q-4 0 -37 -217q-6 -25 -10 -40.5t-6 -21.5q13 0 94 -61q56 -46 84 -72.5t35 -34.5zM336 221q50 0 78 34.5t28 80.5t-27.5 80.5t-78.5 34.5q-48 0 -75.5 -34.5
t-27.5 -80.5t28 -80.5t75 -34.5zM479 -344q-44 0 -81.5 -29t-37.5 -78q0 -43 40 -68.5t79 -25.5q86 0 133 52t60 87q-20 16 -70.5 39t-122.5 23z" />
    <glyph glyph-name="afii59695;" unicode="&#xe0f;" horiz-adv-x="1585" 
d="M1176 -459v1471q0 141 -70 221.5t-156 109.5t-143 29q-134 0 -215 -36.5t-109 -61.5v0q0 -2 127 -41q63 -17 121.5 -44.5t83.5 -41.5v-180q-78 0 -123 -58q-45 -50 -45 -143v-442q0 -144 -88 -242t-223 -98q-131 0 -225.5 97.5t-94.5 242.5q0 153 93.5 250.5t226.5 97.5
q29 0 44.5 -1.5t20.5 -2.5v159q0 83 29.5 134t48.5 67q-19 15 -118 46t-160 48v250q56 67 211 166.5t395 99.5q165 0 307 -63t226.5 -190t84.5 -308v-1843h-249l-160 160l-144 -160h-57l-139 139q-21 -40 -89.5 -99.5t-185.5 -59.5q-113 0 -197.5 89.5t-84.5 237.5
q0 134 82.5 220.5t199.5 86.5q66 -3 114 -28t67 -41q12 0 12 82q3 28 6.5 53.5t5.5 39.5t3 22t1 12l230 -33q-6 0 -29 -209q-12 -48 -19.5 -75.5t-13.5 -51.5l74 -78l164 168zM336 221q50 0 78 34.5t28 80.5t-27.5 80.5t-78.5 34.5q-48 0 -75.5 -34.5t-27.5 -80.5t28 -80.5
t75 -34.5zM397 -373q-86 0 -86 -94q8 -82 86 -82q54 2 82.5 40t36.5 63q-9 18 -37.5 45.5t-81.5 27.5z" />
    <glyph glyph-name="afii59696;" unicode="&#xe10;" horiz-adv-x="1323" 
d="M893 672q0 180 -90 246q-65 49 -168 61t-275 12h-241v168q28 117 146 292t374 175q122 0 262 -53q136 -49 221 -49q37 0 56.5 6t25.5 10l45 -242q-9 -7 -39 -17.5t-84 -10.5q-110 0 -249 57q-92 41 -197 41q-120 0 -188.5 -50.5t-90.5 -84.5q424 0 582 -123
q88 -73 117.5 -157t29.5 -212v-413q0 -201 -69 -271q-62 -57 -217 -57h-148l-86 303q-13 -10 -46.5 -25.5t-80.5 -15.5q-100 0 -191 80.5t-91 239.5q0 148 87 233.5t195 85.5q228 0 303 -307l78 -328h29v406zM934 -590q0 -1 -4.5 -2.5t-20.5 -1.5q-99 0 -164 69.5t-65 180.5
t65 182.5t164 71.5q95 0 158 -76t63 -178v-381v-45q0 -157 -61 -209q-33 -33 -168 -33h-8l-123 111l-115 -111h-61l-119 119q-19 -36 -80 -89.5t-166 -53.5q-112 0 -189 80.5t-77 218.5q0 113 69.5 193.5t188.5 80.5q61 0 105.5 -24.5t62.5 -40.5q12 0 12 73q9 33 12.5 67.5
t4.5 51.5l200 -29q2 0 2 -8q0 -31 -26 -176q-3 -27 -13 -64t-16 -59l82 -82l123 103l139 -115h25v176zM221 -664q-78 -6 -78 -86q6 -73 78 -73q51 0 76 37t31 61q-13 15 -43 38t-64 23zM909 -266q-33 0 -51 -24t-18 -58q0 -30 18 -54t51 -24q70 0 70 78q0 82 -70 82z
M483 696q-47 0 -74.5 -33.5t-27.5 -80.5t27.5 -81t74.5 -34q50 0 76.5 33.5t26.5 81.5q0 47 -26.5 80.5t-76.5 33.5z" />
    <glyph glyph-name="afii59697;" unicode="&#xe11;" horiz-adv-x="1765" 
d="M1016 1298l225 324h74q155 0 217 -61q70 -75 70 -267v-1294h-242v1327h-21l-467 -700v-627h-241v766q42 38 106.5 135.5t69.5 233.5q0 112 -55.5 167.5t-92.5 69.5l-110 -94l-94 78q-3 2 -12 5t-21 3q-51 0 -94 -57q-21 -21 -31.5 -42.5t-13.5 -31.5h20q98 0 172 -66
t74 -192q0 -120 -78.5 -199.5t-187.5 -79.5q-93 0 -175 88.5t-92 239.5q0 297 143 438t238 176l152 -106l131 106q27 -5 89 -34.5t128 -96.5q60 -65 86.5 -123.5t32.5 -85.5zM295 1073q-78 0 -78 -90t78 -90q38 0 60 26.5t22 63.5q0 36 -22 63t-60 27z" />
    <glyph glyph-name="afii59698;" unicode="&#xe12;" horiz-adv-x="2232" 
d="M852 356q0 11 4.5 29.5t7.5 28.5l-274 -414h-246v16q0 59 -42.5 180t-90.5 254.5t-80.5 275t-32.5 286.5q0 186 83 326t193.5 216t182.5 76q17 0 33 -8q49 -35 126.5 -87t90.5 -52q9 0 83.5 52t121.5 87q60 0 155 -39t156 -100q160 -166 160 -533v-196q23 -8 73 -36
t107 -83q77 -71 120.5 -130t55.5 -83l-12 135v1065h246v-1622h-246q-16 38 -57.5 115.5t-98.5 150.5q-74 98 -122.5 141t-65.5 52v-168q0 -139 -90.5 -223t-216.5 -84q-162 0 -243 107.5t-81 264.5zM1069 348q0 -60 33.5 -93.5t73.5 -33.5q81 5 81 127v164q-46 -4 -116 -38
t-72 -126zM770 934q-47 0 -74.5 -33t-27.5 -78q0 -46 27.5 -80t74.5 -34q51 0 76.5 33.5t25.5 80.5q0 45 -26 78t-76 33zM1241 774v172q0 203 -57 287q-41 63 -79.5 89t-55.5 30q-26 0 -122.5 -67.5t-115.5 -67.5q-25 0 -125 67.5t-125 67.5q-31 0 -84.5 -41.5t-97 -128.5
t-43.5 -215q0 -171 63 -361t105 -282l155 217q-44 19 -110 85t-66 189q0 152 89.5 236t197.5 84q111 0 199 -93t88 -243q0 -60 -8 -84.5t-13 -30.5q5 6 23.5 19t62.5 30q34 19 68.5 28.5t50.5 12.5z" />
    <glyph glyph-name="afii59699;" unicode="&#xe13;" horiz-adv-x="2298" 
d="M1933 1622v-811q99 -9 248.5 -101t157.5 -354q0 -174 -109.5 -273t-242.5 -99q-128 0 -216 79.5t-88 227.5v180q-30 0 -184 -201q-59 -71 -117.5 -170.5l-58.5 -99.5h-250v1012q0 203 -130.5 281.5t-242.5 78.5q-135 0 -212 -36.5t-103 -61.5h-1q0 -3 128 -41
q42 -13 87.5 -31.5t72.5 -30.5v-180q-25 -9 -70.5 -35t-73.5 -67q-45 -70 -45 -193v-28q7 1 26.5 2.5t47.5 1.5q135 0 225 -97t90 -251q0 -146 -91 -243t-224 -97q-135 0 -223 98t-88 242v417q0 131 37 201.5t61 89.5q-10 11 -99 41.5t-147 48.5v250q58 67 213 166.5
t389 99.5q170 0 312.5 -62.5t226.5 -189t84 -309.5v-520l-8 -176q11 26 53.5 90.5t130.5 155.5q74 73 120.5 106t63.5 41v848h250zM1921 537v-181q0 -127 86 -127q39 0 70.5 32t31.5 95q-5 110 -74 145t-114 36zM557 221q50 0 76 34t26 81t-25.5 81t-76.5 34
q-47 0 -74.5 -34.5t-27.5 -80.5t28 -80.5t74 -34.5z" />
    <glyph glyph-name="afii59700;" unicode="&#xe14;" horiz-adv-x="1585" 
d="M504 336l168 237q-47 15 -118 79.5t-71 207.5q0 149 90.5 234.5t196.5 85.5q110 0 198.5 -90.5t88.5 -229.5q0 -107 -46 -205t-148 -241.5t-130 -188.5q-42 -65 -80 -124.5t-46 -72.5t-17 -28h-246v16q0 38 -66.5 243t-112.5 392t-46 361q12 187 105 331.5t238.5 221.5
t307.5 77q194 0 343 -83t230.5 -231.5t81.5 -336.5v-991h-249v987q0 103 -48.5 197.5t-141.5 153.5t-216 59q-130 0 -225 -62.5t-146 -169.5t-51 -235q0 -163 58.5 -337t97.5 -257zM770 979q-47 0 -74.5 -33.5t-27.5 -81.5q0 -46 27.5 -80t74.5 -34q51 0 76.5 33.5
t25.5 80.5q0 48 -25.5 81.5t-76.5 33.5z" />
    <glyph glyph-name="afii59701;" unicode="&#xe15;" horiz-adv-x="1585" 
d="M504 324l155 217q-44 19 -110 85t-66 189q0 152 89.5 236t197.5 84q110 0 198.5 -90.5t88.5 -229.5q0 -98 -42 -183t-145.5 -224t-148.5 -207q-66 -96 -81 -119t-27 -43.5t-23 -38.5h-246v16q0 59 -42.5 180t-90.5 254.5t-80.5 275t-32.5 286.5q0 185 78 325.5
t182.5 216.5t173.5 76q17 0 33 -8q48 -35 125 -87t84 -52q10 0 82.5 52t118.5 87q147 0 274 -106q115 -101 145.5 -232.5t30.5 -333.5v-950h-249v946q0 246 -58 328q-41 50 -68.5 64t-37.5 14q-20 0 -115.5 -67.5t-118.5 -67.5q-21 0 -113.5 67.5t-115.5 67.5
q-31 0 -82.5 -41.5t-91 -128t-39.5 -215.5q0 -171 63 -361t105 -282zM770 934q-47 0 -74.5 -33t-27.5 -78q0 -46 27.5 -80t74.5 -34q51 0 76.5 33.5t25.5 80.5q0 45 -26 78t-76 33z" />
    <glyph glyph-name="afii59702;" unicode="&#xe16;" horiz-adv-x="1483" 
d="M557 672q135 0 225 -97t90 -251q0 -146 -91 -243t-224 -97q-135 0 -223 98t-88 242v417q0 131 37 201.5t61 89.5q-10 11 -99 41.5t-147 48.5v250q58 67 213 166.5t389 99.5q170 0 312.5 -62.5t226.5 -189t84 -309.5v-1077h-250v1012q0 203 -130.5 281.5t-242.5 78.5
q-135 0 -212 -36.5t-103 -61.5h-1q0 -3 128 -41q42 -13 87.5 -31.5t72.5 -30.5v-180q-25 -9 -70.5 -35t-73.5 -67q-45 -70 -45 -193v-28q7 1 26.5 2.5t47.5 1.5zM557 221q50 0 76 34t26 81t-25.5 81t-76.5 34q-47 0 -74.5 -34.5t-27.5 -80.5t28 -80.5t74 -34.5z" />
    <glyph glyph-name="afii59703;" unicode="&#xe17;" horiz-adv-x="1585" 
d="M647 512v-512h-246v950q-5 -1 -20.5 -2.5t-44.5 -1.5q-132 0 -226 99.5t-94 252.5q0 146 94.5 243t225.5 97q135 0 223 -97t88 -243v-348l66 127l344 545h73q156 0 226 -61q69 -74 69 -267v-1294h-249v1327h-21zM336 1397q-46 0 -72 -33.5t-26 -77.5q0 -46 26.5 -80.5
t71.5 -34.5q50 0 76 34t26 81q0 44 -25.5 77.5t-76.5 33.5z" />
    <glyph glyph-name="afii59704;" unicode="&#xe18;" horiz-adv-x="1294" 
d="M344 991h-246v168q13 51 61 155.5t164.5 208t299.5 103.5q120 0 262 -53q130 -49 213 -49q33 0 52.5 6t25.5 10l53 -242q-9 -7 -39 -17.5t-84 -10.5q-109 0 -250 57q-92 41 -197 41q-119 0 -186 -50.5t-88 -84.5q423 0 578 -123q89 -77 122 -161t33 -208v-413
q0 -197 -74 -271q-65 -57 -221 -57h-622v266h143v725zM590 266h164q65 0 90 25q28 28 28 106v275q0 180 -94 246q-45 36 -102 48t-86 13v-713z" />
    <glyph glyph-name="afii59705;" unicode="&#xe19;" horiz-adv-x="1712" 
d="M647 557l-8 -188q15 22 73.5 88t159.5 161q83 76 142 111t84 45v848h241v-811q44 -4 134 -35.5t181 -132.5t95 -287q0 -174 -108 -273t-236 -99q-131 0 -219 79.5t-88 227.5v180q-29 0 -185 -156q-93 -98 -179 -206.5t-87 -108.5h-246v950q-5 -1 -20.5 -2.5t-44.5 -1.5
q-132 0 -226 99.5t-94 252.5q0 146 94.5 243t225.5 97q135 0 223 -97t88 -243v-741zM336 1397q-46 0 -72 -33.5t-26 -77.5q0 -46 26.5 -80.5t71.5 -34.5q50 0 76 34t26 81q0 44 -25.5 77.5t-76.5 33.5zM1331 537v-181q0 -127 82 -127q39 0 71 31.5t32 95.5q-2 109 -71 144.5
t-114 36.5z" />
    <glyph glyph-name="afii59706;" unicode="&#xe1a;" horiz-adv-x="1585" 
d="M426 266v684q-6 -1 -24.5 -2.5t-49.5 -1.5q-132 0 -223.5 99.5t-91.5 252.5q0 95 42.5 173.5t115.5 122.5t157 44q134 0 227 -98.5t93 -241.5v-1032h385q65 0 90 25q29 29 29 106v1225h249v-1294q0 -197 -69 -271q-70 -57 -226 -57h-950v266h246zM352 1397
q-47 0 -72.5 -33.5t-25.5 -77.5q0 -47 26 -81t72 -34q47 0 73 34t26 81q0 44 -25.5 77.5t-73.5 33.5z" />
    <glyph glyph-name="afii59707;" unicode="&#xe1b;" horiz-adv-x="1585" 
d="M426 266v684q-6 -1 -24.5 -2.5t-49.5 -1.5q-132 0 -223.5 99.5t-91.5 252.5q0 95 42.5 173.5t115.5 122.5t157 44q134 0 227 -98.5t93 -241.5v-1032h385q65 0 90 25q29 29 29 106v1966h249v-2035q0 -197 -69 -271q-70 -57 -226 -57h-950v266h246zM352 1397
q-47 0 -72.5 -33.5t-25.5 -77.5q0 -47 26 -81t72 -34q47 0 73 34t26 81q0 44 -25.5 77.5t-73.5 33.5z" />
    <glyph glyph-name="afii59708;" unicode="&#xe1c;" horiz-adv-x="1667" 
d="M1257 541v1081h246v-1622h-246l-393 586l-422 -586h-241v1298q0 146 90 243t225 97q133 0 222 -96t89 -244q0 -154 -88.5 -253t-222.5 -99q-28 0 -47.5 1.5t-26.5 2.5v-409l-12 -160l98 160l312 405h86l262 -405l90 -160zM516 1171q47 0 72.5 34.5t25.5 80.5q0 43 -25 77
t-73 34q-47 0 -72.5 -33.5t-25.5 -77.5q0 -47 26 -81t72 -34z" />
    <glyph glyph-name="afii59709;" unicode="&#xe1d;" horiz-adv-x="1667" 
d="M1257 541v1822h246v-2363h-246l-393 586l-422 -586h-241v1298q0 146 90 243t225 97q133 0 222 -96t89 -244q0 -154 -88.5 -253t-222.5 -99q-28 0 -47.5 1.5t-26.5 2.5v-409l-12 -160l98 160l312 405h86l262 -405l90 -160zM516 1171q47 0 72.5 34.5t25.5 80.5q0 43 -25 77
t-73 34q-47 0 -72.5 -33.5t-25.5 -77.5q0 -47 26 -81t72 -34z" />
    <glyph glyph-name="afii59710;" unicode="&#xe1e;" horiz-adv-x="1909" 
d="M1516 496l-13 245v881h246v-1622h-287l-344 946l-45 176l-37 -176l-344 -946h-291v950q-5 -1 -20.5 -2.5t-44.5 -1.5q-132 0 -226 99.5t-94 252.5q0 146 94.5 243t225.5 97q135 0 223 -97t88 -243v-557l-16 -245l69 245l324 881h106l316 -881zM336 1397q-46 0 -72 -33.5
t-26 -77.5q0 -46 26.5 -80.5t71.5 -34.5q50 0 76 34t26 81q0 44 -25.5 77.5t-76.5 33.5z" />
    <glyph glyph-name="afii59711;" unicode="&#xe1f;" horiz-adv-x="1909" 
d="M1516 496l-13 245v1622h246v-2363h-287l-344 946l-45 176l-37 -176l-344 -946h-291v950q-5 -1 -20.5 -2.5t-44.5 -1.5q-132 0 -226 99.5t-94 252.5q0 146 94.5 243t225.5 97q135 0 223 -97t88 -243v-557l-16 -245l69 245l324 881h106l316 -881zM336 1397q-46 0 -72 -33.5
t-26 -77.5q0 -46 26.5 -80.5t71.5 -34.5q50 0 76 34t26 81q0 44 -25.5 77.5t-76.5 33.5z" />
    <glyph glyph-name="afii59712;" unicode="&#xe20;" horiz-adv-x="1585" 
d="M401 827q0 83 29.5 134t48.5 67q-19 15 -118 46t-160 48v250q56 67 211 166.5t395 99.5q165 0 307 -63t226.5 -190t84.5 -308v-1077h-249v1012q0 141 -70 221.5t-156 109.5t-143 29q-134 0 -215 -36.5t-109 -61.5v0q0 -2 127 -41q63 -17 121.5 -44.5t83.5 -41.5v-180
q-78 0 -123 -58q-45 -50 -45 -143v-442q0 -144 -88 -242t-223 -98q-131 0 -225.5 97.5t-94.5 242.5q0 153 93.5 250.5t226.5 97.5q29 0 44.5 -1.5t20.5 -2.5v159zM336 221q50 0 78 34.5t28 80.5t-27.5 80.5t-78.5 34.5q-48 0 -75.5 -34.5t-27.5 -80.5t28 -80.5t75 -34.5z
" />
    <glyph glyph-name="afii59713;" unicode="&#xe21;" horiz-adv-x="1585" 
d="M733 774q23 -9 82 -45.5t139 -110.5q107 -100 163 -163.5t71 -85.5l-12 188v1065h249v-1622h-249v0q0 1 -81 104q-83 103 -186 211q-87 91 -127 122t-49 34v-180q0 -148 -88 -227.5t-219 -79.5q-130 0 -237 98.5t-107 273.5q5 185 94 286.5t176.5 133t130.5 35.5v139
q-5 -1 -20.5 -2.5t-44.5 -1.5q-132 0 -226 99.5t-94 252.5q0 146 94.5 243t225.5 97q133 0 224 -97.5t91 -242.5v-524zM418 1397q-48 0 -73.5 -33.5t-25.5 -77.5q0 -47 26 -81t73 -34q46 0 72 34t26 81q0 44 -25.5 77.5t-72.5 33.5zM307 356q0 -62 33.5 -94.5t73.5 -32.5
q78 0 78 127v181q-44 -1 -112 -36t-73 -145z" />
    <glyph glyph-name="afii59714;" unicode="&#xe22;" horiz-adv-x="1483" 
d="M590 831q67 -12 135 -12q31 0 54 1.5t32 2.5v-237h-139q-115 0 -180.5 -30.5t-65.5 -141.5q0 -92 34 -120t130 -28h368q61 0 91 25q24 29 24 106v1225h250v-1294q0 -197 -74 -271q-61 -57 -221 -57h-553q-156 0 -221 57q-74 74 -74 271v90q0 150 61.5 222t102.5 89
q-51 23 -128.5 126t-80.5 337q0 213 106 329.5t251 116.5q136 0 229.5 -96.5t93.5 -243.5q0 -151 -93 -249.5t-230 -98.5q-21 0 -33.5 1.5t-16.5 2.5q3 -21 33.5 -60t114.5 -63zM492 1397q-48 0 -73.5 -33.5t-25.5 -77.5q0 -47 26 -81t73 -34q48 0 75 34t27 81
q0 44 -26.5 77.5t-75.5 33.5z" />
    <glyph glyph-name="afii59715;" unicode="&#xe23;" horiz-adv-x="1212" 
d="M741 1188q160 0 222 -58q73 -69 73 -270v-536q0 -144 -90 -242t-225 -98q-131 0 -225.5 97.5t-94.5 242.5q0 153 93.5 250.5t226.5 97.5q29 0 44.5 -1.5t20.5 -2.5v147q0 86 -20 103q-29 28 -94 28h-656v213q13 51 61.5 155.5t167 208t304.5 103.5q112 0 217 -37
q91 -28 164 -28q59 0 95 12t48 20l82 -237q-14 -12 -59.5 -30.5t-128.5 -18.5q-110 0 -226 36q-90 29 -168 29q-141 0 -206 -69t-80 -115h454zM721 221q50 0 76 34t26 81t-25.5 81t-76.5 34q-48 0 -75.5 -34.5t-27.5 -80.5t28 -80.5t75 -34.5z" />
    <glyph glyph-name="afii59716;" unicode="&#xe24;" horiz-adv-x="1483" 
d="M557 672q135 0 225 -97t90 -251q0 -146 -91 -243t-224 -97q-135 0 -223 98t-88 242v417q0 131 37 201.5t61 89.5q-10 11 -99 41.5t-147 48.5v250q58 67 213 166.5t389 99.5q170 0 312.5 -62.5t226.5 -189t84 -309.5v-1794h-250v1729q0 203 -130.5 281.5t-242.5 78.5
q-135 0 -212 -36.5t-103 -61.5h-1q0 -3 128 -41q42 -13 87.5 -31.5t72.5 -30.5v-180q-25 -9 -70.5 -35t-73.5 -67q-45 -70 -45 -193v-28q7 1 26.5 2.5t47.5 1.5zM557 221q50 0 76 34t26 81t-25.5 81t-76.5 34q-47 0 -74.5 -34.5t-27.5 -80.5t28 -80.5t74 -34.5z" />
    <glyph glyph-name="afii59717;" unicode="&#xe25;" horiz-adv-x="1442" 
d="M57 1233q42 101 192.5 253t442.5 152q164 0 299 -66.5t213 -197.5t78 -317v-1057h-246v467q0 50 -58.5 150t-156 177.5t-215.5 77.5q-70 0 -119 -54t-49 -122v-37q8 2 26.5 5.5t51.5 3.5q135 0 223 -95t88 -249q0 -146 -89 -243t-222 -97q-135 0 -225 98t-90 242v372
q0 111 47.5 212t139.5 164t218 63q181 0 293 -98.5t150 -164.5v140q0 191 -123 275.5t-234 84.5q-196 0 -290 -93.5t-119 -156.5zM516 221q50 0 76 34t26 81t-25.5 81t-76.5 34q-47 0 -74.5 -34.5t-27.5 -80.5t28 -80.5t74 -34.5z" />
    <glyph glyph-name="afii59718;" unicode="&#xe26;" horiz-adv-x="1585" 
d="M401 827q0 83 29.5 134t48.5 67q-19 15 -118 46t-160 48v250q56 67 211 166.5t395 99.5q165 0 307 -63t226.5 -190t84.5 -308v-1794h-249v1729q0 141 -70 221.5t-156 109.5t-143 29q-134 0 -215 -36.5t-109 -61.5v0q0 -2 127 -41q63 -17 121.5 -44.5t83.5 -41.5v-180
q-78 0 -123 -58q-45 -50 -45 -143v-442q0 -144 -88 -242t-223 -98q-131 0 -225.5 97.5t-94.5 242.5q0 153 93.5 250.5t226.5 97.5q29 0 44.5 -1.5t20.5 -2.5v159zM336 221q50 0 78 34.5t28 80.5t-27.5 80.5t-78.5 34.5q-48 0 -75.5 -34.5t-27.5 -80.5t28 -80.5t75 -34.5z
" />
    <glyph glyph-name="afii59719;" unicode="&#xe27;" horiz-adv-x="1241" 
d="M827 1057q0 165 -80 240t-157 75q-163 0 -251 -119.5t-114 -199.5l-225 106q15 53 70.5 160t187 213t332.5 106q210 0 346.5 -148t136.5 -388v-778q0 -144 -87.5 -242t-219.5 -98q-134 0 -229 97.5t-95 242.5q0 153 94.5 250.5t229.5 97.5q29 0 43 -1.5t18 -2.5v389z
M766 221q50 0 76 34t26 81t-25.5 81t-76.5 34q-47 0 -74.5 -35t-27.5 -80t28.5 -80t73.5 -35z" />
    <glyph glyph-name="afii59720;" unicode="&#xe28;" horiz-adv-x="1585" 
d="M1286 1389q13 -15 38.5 -54.5t39.5 -85.5q61 -144 61 -299v-950h-249v946q0 189 -113.5 320t-292.5 131q-130 0 -225 -62.5t-146 -169.5t-51 -235q0 -122 26.5 -207.5t43.5 -116.5l57 266q31 150 111.5 229t187.5 79q106 0 194.5 -85.5t88.5 -234.5q0 -158 -88.5 -236.5
t-194.5 -78.5q-43 0 -77.5 14t-49.5 23q-8 -25 -25 -90t-32 -156q-41 -224 -41 -336h-246v61q0 105 -21 189t-68 235t-71 271t-24 256q12 187 105 331.5t238.5 221.5t307.5 77q130 0 210 -26t110 -43q24 0 81 53q69 66 90 128t21 89h287q-5 -52 -41 -160t-131 -208
q-26 -27 -60.5 -52t-50.5 -34zM774 979q-47 0 -74.5 -33.5t-27.5 -81.5q0 -46 27.5 -80t74.5 -34q50 0 76.5 33.5t26.5 80.5q0 48 -26.5 81.5t-76.5 33.5z" />
    <glyph glyph-name="afii59721;" unicode="&#xe29;" horiz-adv-x="1749" 
d="M1475 942q48 43 78 116t40 113l226 -98q-16 -52 -73 -156t-165 -192q-49 -37 -86 -55t-53 -23v-319q0 -197 -78 -271q-61 -57 -217 -57h-967v266h246v684q-6 -1 -24.5 -2.5t-49.5 -1.5q-132 0 -223.5 99.5t-91.5 252.5q0 95 42.5 173.5t115.5 122.5t157 44
q134 0 227 -98.5t93 -241.5v-1032h405q65 0 94 25q33 27 33 106v217q-41 0 -102 13q-130 25 -210.5 119.5t-80.5 236.5q0 100 77.5 197.5t213.5 97.5q33 0 61.5 -4.5t40.5 -7.5v356h238v-709q4 0 33 29zM1102 856q46 0 72 33t26 78q0 47 -25.5 78.5t-72.5 31.5
q-46 0 -72 -32t-26 -78q0 -44 26 -77.5t72 -33.5zM352 1397q-47 0 -72.5 -33.5t-25.5 -77.5q0 -47 26 -81t72 -34q47 0 73 34t26 81q0 44 -25.5 77.5t-73.5 33.5z" />
    <glyph glyph-name="afii59722;" unicode="&#xe2a;" horiz-adv-x="1442" 
d="M971 1581q8 0 57 45q66 70 84 130t18 87h295q-5 -52 -42 -160.5t-134 -207.5q-33 -30 -46.5 -43.5l-18.5 -18.5q5 -6 14 -22.5t14 -42.5q70 -120 70 -291v-1057h-246v467q0 50 -58.5 150t-156 177.5t-215.5 77.5q-70 0 -119 -54t-49 -122v-37q8 2 26.5 5.5t51.5 3.5
q135 0 223 -95t88 -249q0 -146 -89 -243t-222 -97q-135 0 -225 98t-90 242v372q0 111 47.5 212t139.5 164t218 63q181 0 293 -98.5t150 -164.5v140q0 191 -123 275.5t-234 84.5q-196 0 -290 -93.5t-119 -156.5l-226 111q42 101 192.5 253t442.5 152q111 0 181.5 -21.5
t97.5 -35.5zM516 221q50 0 76 34t26 81t-25.5 81t-76.5 34q-47 0 -74.5 -34.5t-27.5 -80.5t28 -80.5t74 -34.5z" />
    <glyph glyph-name="afii59723;" unicode="&#xe2b;" horiz-adv-x="1602" 
d="M897 1294q0 143 90.5 243.5t224.5 100.5q139 0 227.5 -99.5t88.5 -244.5q0 -112 -38.5 -178t-64.5 -88v-1028h-249v864l-529 -864h-246v950q-5 -1 -20.5 -2.5t-44.5 -1.5q-132 0 -226 99.5t-94 252.5q0 146 94.5 243t225.5 97q135 0 223 -97t88 -243v-741l-8 -106l53 102
l303 500q-24 22 -61 84t-37 157zM336 1397q-46 0 -72 -33.5t-26 -77.5q0 -46 26.5 -80.5t71.5 -34.5q50 0 76 34t26 81q0 44 -25.5 77.5t-76.5 33.5zM1208 1397q-47 0 -72.5 -33.5t-25.5 -77.5q0 -47 26 -81t72 -34q49 0 76 34t27 81q0 44 -26.5 77.5t-76.5 33.5z" />
    <glyph glyph-name="afii59724;" unicode="&#xe2c;" horiz-adv-x="1909" 
d="M1675 2146q8 0 13 90q0 73 -2 105.5t-3 46.5h250q0 -401 -139 -647q-9 -24 -23 -44t-22 -30v-1667h-287l-344 946l-53 176l-37 -176l-336 -946h-291v950q-5 -1 -20.5 -2.5t-44.5 -1.5q-132 0 -226 99.5t-94 252.5q0 146 94.5 243t225.5 97q135 0 223 -97t88 -243v-557
l-16 -245l69 245l316 881h106l320 -881l74 -245l-13 245v836q-5 -1 -21.5 -2.5t-47.5 -1.5q-134 0 -225 99t-91 253q0 148 92 246t224 98q102 0 162 -46t79 -77zM1446 2040q-44 0 -69 -33.5t-25 -77.5q0 -46 25 -80t69 -34q51 0 76.5 33.5t25.5 80.5q0 44 -25.5 77.5
t-76.5 33.5zM336 1397q-46 0 -72 -33.5t-26 -77.5q0 -46 26.5 -80.5t71.5 -34.5q50 0 76 34t26 81q0 44 -25.5 77.5t-76.5 33.5z" />
    <glyph glyph-name="afii59725;" unicode="&#xe2d;" horiz-adv-x="1405" 
d="M991 1012q0 190 -110.5 275t-233.5 85q-165 0 -245.5 -81.5t-102.5 -135.5l-217 107q32 94 162 235t403 141q166 0 302 -67t214 -198t78 -316v-729q0 -197 -74 -271q-61 -57 -221 -57h-454q-156 0 -222 57q-69 74 -69 271v458q0 148 90 248.5t225 100.5q133 0 222 -99.5
t89 -249.5q0 -149 -88.5 -244.5t-222.5 -95.5q-23 0 -44 3.5t-30 5.5v-58q0 -79 33 -106q30 -25 86 -25h316q59 0 94 25q20 30 20 106v615zM516 889q-47 0 -74.5 -33.5t-27.5 -77.5q0 -46 27.5 -80t74.5 -34q51 0 76.5 33.5t25.5 80.5q0 44 -25.5 77.5t-76.5 33.5z" />
    <glyph glyph-name="afii59726;" unicode="&#xe2e;" horiz-adv-x="1405" 
d="M225 930q20 43 38.5 68t27.5 34q-43 18 -107.5 77.5t-64.5 168.5q0 134 131 243t356 109q162 0 262.5 -46t135.5 -77q56 81 74 149.5t20 100.5h262q-1 -55 -34 -178.5t-138 -259.5q13 -23 33 -88t20 -174v-729q0 -197 -74 -271q-61 -57 -221 -57h-454q-156 0 -222 57
q-69 74 -69 271v458q0 64 24 144zM565 1397q-89 -3 -147 -39t-58 -80q0 -37 62.5 -61.5t138.5 -24.5q110 8 184.5 53t102.5 74q-26 20 -97 49t-186 29zM745 1012q21 -19 51.5 -75t30.5 -151q0 -149 -88.5 -244.5t-222.5 -95.5q-23 0 -44 3.5t-30 5.5v-58q0 -79 33 -106
q30 -25 86 -25h316q59 0 94 25q20 30 20 106v615q0 64 -3 94t-5 37q-60 -60 -131 -91t-107 -40zM516 889q-47 0 -74.5 -33.5t-27.5 -77.5q0 -46 27.5 -80t74.5 -34q51 0 76.5 33.5t25.5 80.5q0 44 -25.5 77.5t-76.5 33.5z" />
    <glyph glyph-name="afii59727;" unicode="&#xe2f;" horiz-adv-x="1425" 
d="M426 950q-193 0 -301.5 110.5t-108.5 282.5q0 98 80.5 196.5t214.5 98.5q129 0 208 -86t79 -204q0 -34 -3 -61t-5 -38q26 0 110 90q129 122 193 283h53q160 0 221 -61q74 -74 74 -267v-1294h-250v1327q-50 -94 -193 -235.5t-372 -141.5zM311 1217q95 0 95 110
q0 111 -95 111q-47 0 -72.5 -32.5t-25.5 -78.5q0 -44 26 -77t72 -33z" />
    <glyph glyph-name="afii59729;" unicode="&#xe30;" horiz-adv-x="1257" 
d="M684 283q82 0 160 98q52 64 76 138.5t30 111.5l221 -45q-7 -64 -52 -194t-183 -260.5t-383 -131.5q-220 0 -327 117.5t-107 275.5q0 101 78 202t217 101q129 0 207.5 -90t78.5 -209q0 -38 -6 -69.5t-10 -44.5zM684 1208q82 0 160 99q52 62 76 138.5t30 115.5l221 -45
q-7 -65 -52.5 -198t-184 -266t-381.5 -134q-151 0 -248.5 58t-141.5 149t-44 190q0 106 77.5 206.5t217.5 100.5q130 0 208 -89.5t78 -213.5q0 -35 -6 -66t-10 -45zM414 266q48 0 75 34t27 81t-26.5 81t-75.5 34q-50 0 -76.5 -34t-26.5 -81t27 -81t76 -34zM414 1192
q49 0 75.5 33.5t26.5 81.5q0 44 -26.5 77t-75.5 33q-50 0 -76.5 -33t-26.5 -77q0 -48 26.5 -81.5t76.5 -33.5z" />
    <glyph glyph-name="afii59728;" unicode="&#xe31;" 
d="M-483 2126q57 0 123 28q82 35 151 127q58 78 82 146t29 100l217 -45q-12 -76 -74 -222.5t-205 -256.5q-151 -111 -364 -111q-221 0 -344 99q-148 109 -148 299q0 99 80.5 199t214.5 100q129 0 210 -89.5t81 -205.5q0 -80 -20 -119t-33 -49zM-721 2163q48 0 75.5 33.5
t27.5 80.5q0 44 -27.5 77.5t-75.5 33.5q-49 0 -75.5 -33t-26.5 -78q0 -47 26.5 -80.5t75.5 -33.5z" />
    <glyph glyph-name="afii59730;" unicode="&#xe32;" horiz-adv-x="1098" 
d="M692 0v1102q0 127 -66 198.5t-159 71.5q-114 -5 -179.5 -75.5t-86.5 -116.5l-193 147q35 78 150 194.5t325 116.5q188 0 319.5 -131.5t131.5 -384.5v-1122h-242z" />
    <glyph glyph-name="afii59731;" unicode="&#xe33;" horiz-adv-x="1098" 
d="M692 0v1102q0 127 -66 198.5t-159 71.5q-114 -5 -179.5 -75.5t-86.5 -116.5l-193 147q35 78 150 194.5t325 116.5q188 0 319.5 -131.5t131.5 -384.5v-1122h-242zM-328 1892q-142 0 -220.5 100.5t-78.5 239.5q0 136 78.5 236t220.5 100q146 0 227 -100t81 -236
q0 -139 -80.5 -239.5t-227.5 -100.5zM-328 2343q-46 0 -72 -33t-26 -78q0 -47 25.5 -80.5t72.5 -33.5q51 0 79 33.5t28 80.5q0 44 -28.5 77.5t-78.5 33.5z" />
    <glyph glyph-name="afii59732;" unicode="&#xe34;" 
d="M-786 1892q-209 0 -335 -14t-173 -23v189q30 120 157 299.5t404 179.5q297 -5 421.5 -183t147.5 -296v-221q-74 17 -243 43t-379 26zM-733 2290q-150 0 -226 -71t-98 -118q22 6 88.5 15.5t198.5 9.5q136 0 240 -20t149 -33q-22 52 -105.5 132t-246.5 85z" />
    <glyph glyph-name="afii59733;" unicode="&#xe35;" 
d="M-164 1823q-74 17 -243 43t-379 26q-209 0 -335 -14t-173 -23v189q30 120 157 299.5t404 179.5q144 0 231 -49t117 -82v311h221v-880zM-733 2290q-150 0 -226 -71t-98 -118q22 6 88.5 15.5t198.5 9.5q136 0 240 -20t149 -33q-22 52 -105.5 132t-246.5 85z" />
    <glyph glyph-name="afii59734;" unicode="&#xe36;" 
d="M-696 2519v12q3 113 78.5 198t199.5 85q126 0 206.5 -93.5t80.5 -221.5q0 -107 -44.5 -168.5t-74.5 -81.5q12 0 45 -82q16 -26 26.5 -64.5t14.5 -58.5v-221q-74 17 -243 43t-379 26q-209 0 -335 -14t-173 -23v189q30 120 157 299.5t404 179.5q10 0 21 -1.5t16 -2.5z
M-418 2621q-49 0 -75.5 -33t-26.5 -77q0 -47 27 -81t75 -34q47 0 75 34.5t28 80.5q0 43 -27.5 76.5t-75.5 33.5zM-733 2290q-150 0 -226 -71t-98 -118q22 6 88.5 15.5t198.5 9.5q136 0 240 -20t149 -33q-22 52 -105.5 132t-246.5 85z" />
    <glyph glyph-name="afii59735;" unicode="&#xe37;" 
d="M-692 2519v184h209v-233q34 -23 57 -37.5t37 -26.5q19 -19 29 -30v327h196v-880q-74 17 -243 43t-379 26q-209 0 -335 -14t-173 -23v189q30 120 157 299.5t404 179.5zM-733 2290q-150 0 -226 -71t-98 -118q22 6 88.5 15.5t198.5 9.5q136 0 240 -20t149 -33
q-22 52 -105.5 132t-246.5 85z" />
    <glyph glyph-name="afii59736;" unicode="&#xe38;" 
d="M-385 -750h-37q-107 0 -180.5 76t-73.5 211q0 111 69 197t185 86q129 0 193.5 -88t64.5 -195v-24v-525h-221v262zM-422 -365q-44 0 -69 -30.5t-25 -71.5q0 -42 25 -72t69 -30q90 0 90 102q0 41 -22.5 71.5t-67.5 30.5z" />
    <glyph glyph-name="afii59737;" unicode="&#xe39;" 
d="M-504 -811h66q34 0 53 25q25 25 25 57v528h196v-622q0 -100 -41 -131q-40 -58 -127 -58h-454v201h81v119q-7 -1 -21 -2.5t-28 -1.5q-103 0 -172 73t-69 201q0 103 68 186.5t173 83.5q119 0 184.5 -84t65.5 -186v-24v-365zM-754 -332q-82 0 -82 -94q0 -90 82 -90
q40 0 61 26.5t21 63.5q0 39 -21 66.5t-61 27.5z" />
    <glyph glyph-name="afii59738;" unicode="&#xe3a;" 
d="M-328 -651q-94 0 -147 65.5t-53 159.5q0 92 52.5 158.5t147.5 66.5q99 0 154 -66.5t55 -158.5q0 -94 -55.5 -159.5t-153.5 -65.5z" />
    <glyph glyph-name="afii59743;" unicode="&#xe3f;" horiz-adv-x="1294" 
d="M557 246v471h-160v-471h160zM688 713v-467q88 0 152.5 70t64.5 176q0 191 -217 221zM557 967v405h-160v-405h160zM696 1368l-8 -389q74 12 125 67t51 134q0 80 -44.5 134t-123.5 54zM684 1622q176 -12 299 -123.5t123 -281.5q0 -168 -80 -249.5t-133 -103.5
q66 -19 164 -109t98 -296q0 -197 -129 -328t-338 -131v-135h-131v135h-410v1622h410v135h131z" />
    <glyph glyph-name="afii59744;" unicode="&#xe40;" horiz-adv-x="827" 
d="M442 1622v-954q7 1 26.5 2.5t47.5 1.5q134 0 222.5 -97t88.5 -251q0 -146 -89 -243t-222 -97q-135 0 -225 98t-90 242v1298h241zM516 221q50 0 76 34t26 81t-25.5 81t-76.5 34q-47 0 -74.5 -34.5t-27.5 -80.5t28 -80.5t74 -34.5z" />
    <glyph glyph-name="afii59745;" unicode="&#xe41;" horiz-adv-x="1585" 
d="M442 1622v-954q7 1 26.5 2.5t47.5 1.5q134 0 222.5 -97t88.5 -251q0 -146 -89 -243t-222 -97q-135 0 -225 98t-90 242v1298h241zM1204 1622v-954q3 1 18 2.5t48 1.5q132 0 223.5 -98t91.5 -250q0 -95 -42.5 -173.5t-115.5 -122.5t-157 -44q-135 0 -225.5 97.5
t-90.5 242.5v1298h250zM1270 221q48 0 75 34t27 81t-26.5 81t-75.5 34q-50 0 -76.5 -34t-26.5 -81t27 -81t76 -34zM516 221q50 0 76 34t26 81t-25.5 81t-76.5 34q-47 0 -74.5 -34.5t-27.5 -80.5t28 -80.5t74 -34.5z" />
    <glyph glyph-name="afii59746;" unicode="&#xe42;" horiz-adv-x="1036" 
d="M647 668q6 1 24 2.5t46 1.5q135 0 227 -97.5t92 -250.5q0 -95 -43 -173.5t-116.5 -122.5t-159.5 -44q-131 0 -223.5 99.5t-92.5 240.5v1749q0 245 -73 331q-75 74 -195.5 96.5t-185.5 22.5v270q37 74 155 184.5t328 110.5q135 0 262 -53q117 -45 197 -45q47 0 71 9.5
t31 15.5l58 -246q-14 -12 -58 -30.5t-119 -18.5q-106 0 -225 49q-117 45 -217 45q-101 0 -156.5 -33.5t-72.5 -56.5q65 -5 181 -43t183 -141q82 -111 82 -324v-1548zM717 221q48 0 75 34t27 81t-26.5 81t-75.5 34q-48 0 -75.5 -34.5t-27.5 -80.5t28 -80.5t75 -34.5z" />
    <glyph glyph-name="afii59747;" unicode="&#xe43;" horiz-adv-x="1130" 
d="M745 668q7 1 26.5 2.5t47.5 1.5q132 0 221.5 -97.5t89.5 -250.5q0 -145 -90.5 -242.5t-220.5 -97.5q-135 0 -225 98t-90 242v1794q47 37 117.5 144.5t70.5 281.5q0 157 -84.5 250.5t-181.5 93.5q-112 0 -167.5 -58.5t-70.5 -97.5l33 4q114 0 190 -80t76 -211
q0 -136 -80 -221.5t-206 -85.5q-124 9 -203.5 119.5t-79.5 286.5q0 253 142 430t366 180q138 0 254.5 -77.5t185 -217t68.5 -315.5q0 -211 -71 -355t-118 -198v-1323zM209 2556q-41 0 -63.5 -28.5t-22.5 -69.5q0 -103 86 -103q44 0 67 29.5t23 73.5q0 41 -23 69.5t-67 28.5z
M819 221q49 0 76 34t27 81t-26.5 81t-76.5 34q-47 0 -74.5 -34.5t-27.5 -80.5t28 -80.5t74 -34.5z" />
    <glyph glyph-name="afii59748;" unicode="&#xe44;" horiz-adv-x="1130" 
d="M504 2118l16 450l-237 -475h-148l-151 565q-13 0 -21 45q-7 28 -26 38q-16 7 -18 7h-1v316h119q36 0 57 -33q15 -11 21 -27.5t8 -25.5l131 -434l270 520h221v-2396q7 1 26.5 2.5t47.5 1.5q132 0 221.5 -97.5t89.5 -250.5q0 -145 -90.5 -242.5t-220.5 -97.5
q-135 0 -225 98t-90 242v1794zM819 221q49 0 76 34t27 81t-26.5 81t-76.5 34q-47 0 -74.5 -34.5t-27.5 -80.5t28 -80.5t74 -34.5z" />
    <glyph glyph-name="afii59749;" unicode="&#xe45;" horiz-adv-x="1098" 
d="M692 -717v1819q0 127 -66 198.5t-159 71.5q-114 -5 -179.5 -75.5t-86.5 -116.5l-193 147q35 78 150 194.5t325 116.5q188 0 319.5 -131.5t131.5 -384.5v-1839h-242z" />
    <glyph glyph-name="afii59750;" unicode="&#xe46;" horiz-adv-x="1503" 
d="M352 1139q7 2 25 5t41 3q105 0 193.5 -77.5t88.5 -238.5q0 -146 -87.5 -232.5t-194.5 -86.5q-102 0 -211 108.5t-109 346.5q0 196 76.5 348t178.5 233.5t167 81.5q13 0 29 -8q45 -35 114.5 -87t73.5 -52q1 0 65.5 52t106.5 87q70 0 151 -33.5t132 -93.5q97 -113 122 -229
t25 -316v-1667h-241v1663q0 219 -58 320q-25 36 -50.5 58t-35.5 28q-33 0 -123.5 -67.5t-93.5 -67.5v0q0 2 -89 68q-93 67 -128 67q-81 -36 -120 -105t-48 -108zM418 717q49 0 75.5 33.5t26.5 80.5q0 48 -26.5 81.5t-75.5 33.5q-48 0 -75.5 -33.5t-27.5 -81.5
q0 -46 27.5 -80t75.5 -34z" />
    <glyph glyph-name="afii59751;" unicode="&#xe47;" 
d="M-655 2757q168 0 209 20q46 21 86 62.5t57 64.5l147 -156q-17 -26 -63.5 -78t-116.5 -90q-90 -40 -270 -40l-164 4q-111 0 -178.5 -74t-67.5 -172q0 -71 17 -111.5t28 -52.5l152 127q16 -14 48.5 -44t41.5 -42q37 -33 59 -44t31 -13v20q0 120 73 195t181 75q63 0 121 -36
t93.5 -99t35.5 -135q0 -132 -85.5 -217.5t-205.5 -85.5q-136 0 -241 72.5t-148 120.5l-176 -160q-53 40 -133 151t-80 279q0 165 65 267.5t155 147t169 44.5h160zM-397 2036q38 0 60 26.5t22 63.5q0 36 -22 63t-60 27t-60 -26.5t-22 -63.5q0 -90 82 -90z" />
    <glyph glyph-name="afii59752;" unicode="&#xe48;" 
d="M-385 2884v516h205v-516h-205z" />
    <glyph glyph-name="afii59753;" unicode="&#xe49;" 
d="M-991 2859v205h28q78 5 110 19t38 22q-39 14 -97.5 73t-58.5 185q0 105 76 187.5t190 82.5q84 0 144.5 -44t91.5 -108.5t31 -125.5q0 -125 -50.5 -190.5t-84.5 -84.5q29 5 87.5 24t116.5 58q123 87 169.5 198t52.5 167l184 -62q-4 -67 -51 -201.5t-212.5 -269.5
t-478.5 -135h-286zM-705 3244q43 0 67 29.5t24 72.5q0 41 -24 70t-67 29q-90 0 -90 -99q0 -102 90 -102z" />
    <glyph glyph-name="afii59754;" unicode="&#xe4a;" 
d="M-455 2867q19 18 46.5 66t27.5 127q0 86 -32 129t-54 55l-90 -78l-82 62q-4 4 -13.5 10t-23.5 6q-40 0 -78 -49q-8 -14 -14.5 -34.5t-9.5 -31.5q5 2 13.5 5.5t19.5 3.5q83 0 148 -58.5t65 -167.5q0 -105 -70 -173t-164 -68q-79 0 -148.5 74t-72.5 204q0 248 110.5 364
t184.5 144l135 -94l115 94q38 -16 103.5 -68.5t92.5 -144.5q25 -57 25 -225q12 9 38 36.5t48 69.5q26 72 33.5 148.5t7.5 113.5l172 -24q0 -54 -16.5 -161.5t-73.5 -199.5q-65 -109 -176.5 -180.5t-171.5 -97.5zM-754 2990q-33 0 -51 -22t-18 -52q0 -77 69 -77q32 0 51 22
t19 55q0 30 -19 52t-51 22z" />
    <glyph glyph-name="afii59755;" unicode="&#xe4b;" 
d="M-504 2884v675h201v-675h-201zM-98 3109h-615v225h615v-225z" />
    <glyph glyph-name="afii59756;" unicode="&#xe4c;" 
d="M-487 3154q98 0 167.5 -80t69.5 -195q0 -137 -75.5 -213.5t-166.5 -76.5q-149 0 -234 108.5t-85 276.5t95.5 296t269.5 162q134 31 187 83.5t62 80.5l181 -90q-14 -51 -83.5 -133t-228.5 -100q-254 -30 -254 -135q8 4 32 10t63 6zM-598 2879q0 -47 26 -72.5t60 -25.5
q37 0 63.5 25.5t26.5 72.5q0 48 -26.5 73.5t-63.5 25.5q-34 0 -60 -25.5t-26 -73.5z" />
    <glyph glyph-name="afii59757;" unicode="&#xe4d;" 
d="M-397 1892q-143 0 -223 101t-80 239q0 135 80.5 235.5t222.5 100.5q143 0 223 -100t80 -236q0 -139 -80 -239.5t-223 -100.5zM-397 2343q-47 0 -73 -33t-26 -78q0 -47 25.5 -80.5t73.5 -33.5q49 0 75.5 33.5t26.5 80.5q0 45 -26.5 78t-75.5 33z" />
    <glyph glyph-name="afii59758;" unicode="&#xe4e;" 
d="M-168 2048q-115 -94 -332 -94q-160 0 -225 65q-57 57 -57 140q0 95 65 168q114 127 336 127q-67 4 -127.5 48.5t-60.5 123.5q40 174 348 217q33 4 94 4q129 0 197 -33l-103 -78q-6 1 -40 9.5t-66 11.5q-34 0 -82 -13q-131 -36 -144 -139q0 -63 59.5 -95t137.5 -32
l-45 -94q-176 0 -279 -82q-61 -49 -61 -123q0 -45 25 -70q39 -45 110 -45q102 0 160 58z" />
    <glyph glyph-name="afii59759;" unicode="&#xe4f;" horiz-adv-x="1724" 
d="M242 1417q-234 -257 -234 -577q0 -223 110 -422.5t292 -318.5t381 -119q296 0 528 262q225 253 225 577q0 168 -63 326t-172 278.5t-248 190t-291 69.5q-292 0 -528 -266zM1233 328q-196 -226 -451 -226q-168 0 -321.5 102t-245.5 271t-92 356q0 276 196 496
q197 225 447 225q169 0 321.5 -103t245 -272.5t92.5 -357.5q0 -271 -192 -491zM1069 487q-128 -151 -295 -151q-111 0 -213 68t-163.5 182t-61.5 241q0 180 131 328q134 152 295 152q112 0 213.5 -69t163 -182.5t61.5 -240.5q0 -178 -131 -328z" />
    <glyph glyph-name="afii59760;" unicode="&#xe50;" horiz-adv-x="1585" 
d="M786 -16q-175 0 -324 78.5t-238 230.5t-89 358q0 204 89.5 359t239.5 236t322 81q173 0 323.5 -81t241.5 -235.5t91 -359.5q0 -309 -191.5 -488t-464.5 -179zM786 1077q-109 0 -207 -51.5t-158.5 -149t-60.5 -225.5q0 -194 127 -312t299 -118q178 0 302 117.5t124 312.5
q0 129 -58.5 226.5t-156.5 148.5t-211 51z" />
    <glyph glyph-name="afii59761;" unicode="&#xe51;" horiz-adv-x="1602" 
d="M647 221q-31 21 -77 83t-46 163q0 121 78 210t184 89q131 0 209 -102.5t78 -241.5q0 -176 -111 -299t-290 -123q-127 0 -252 73.5t-205 216.5t-80 337q1 188 82.5 342t225.5 244t323 94q182 0 342.5 -94.5t257 -266.5t96.5 -389q0 -285 -87.5 -456t-145.5 -228l-193 127
q47 45 121 170.5t84 325.5q0 149 -55.5 277.5t-159 206t-240.5 77.5q-187 0 -299.5 -118t-126.5 -288q0 -245 107.5 -333t179.5 -97zM786 586q-50 0 -78 -36.5t-28 -86.5q0 -53 28 -90t78 -37q56 0 85.5 36.5t29.5 90.5q0 50 -29.5 86.5t-85.5 36.5z" />
    <glyph glyph-name="afii59762;" unicode="&#xe52;" horiz-adv-x="1847" 
d="M1671 328q0 -104 -12 -163.5t-66 -107.5q-61 -57 -221 -57h-880q-156 0 -222 57q-69 74 -69 271v749v70q0 181 -46 305t-77 170l205 135q40 -53 99.5 -207.5t59.5 -402.5v-70v-680q0 -79 33 -106q30 -25 86 -25h758q56 0 86 25q29 28 29 106v369v53q0 107 -55.5 158
t-92.5 63l-143 -94l-123 82q-3 3 -11 7.5t-22 4.5q-43 0 -94 -61q-22 -25 -32 -43.5t-13 -26.5h16q100 0 175 -68.5t75 -197.5q0 -119 -79.5 -196.5t-186.5 -77.5q-94 0 -175 85.5t-87 237.5q0 212 84 352.5t167.5 198t125.5 72.5l180 -123l176 123q88 -23 220 -138.5
t132 -381.5v-54v-413zM860 741q-41 0 -63.5 -26.5t-22.5 -63.5q0 -94 86 -94q82 0 82 94q0 90 -82 90z" />
    <glyph glyph-name="afii59763;" unicode="&#xe53;" horiz-adv-x="1585" 
d="M426 668q5 1 21.5 2.5t44.5 1.5q138 0 230.5 -97.5t92.5 -250.5q0 -145 -93.5 -242.5t-229.5 -97.5q-132 0 -222 98t-90 242v290v152q0 165 63 287t151 186t151 64q28 0 37 -9q50 -37 126 -92t78 -55q10 0 81 55t116 92q18 9 37 9q106 0 217 -111q112 -115 140 -242.5
t28 -326.5v-623h-250v618v111q0 150 -33 201q-32 40 -59.5 57.5t-38.5 20.5q-30 0 -128 -72t-110 -72q-3 0 -100 72t-129 72q-43 -5 -87 -68t-44 -199v-73zM492 221q48 0 77 34.5t29 80.5t-28 80.5t-78 34.5q-48 0 -75.5 -34.5t-27.5 -80.5t28 -80.5t75 -34.5z" />
    <glyph glyph-name="afii59764;" unicode="&#xe54;" horiz-adv-x="1683" 
d="M774 643q4 105 79.5 204t211.5 99q132 0 213.5 -94t81.5 -209q0 -168 -86 -232.5t-144 -74.5q19 -22 76.5 -56t149.5 -34h160v-246h-689h-41q-152 0 -300.5 65t-249 210t-101.5 368q0 189 77 340.5t224.5 237.5t349.5 86h41h328h49q157 0 207.5 103.5t50.5 211.5h221
q0 -84 -29.5 -211t-136.5 -240.5t-313 -113.5h-49h-328h-41q-184 0 -305 -108.5t-121 -297.5q0 -198 129 -301.5t297 -103.5h41h127q-45 34 -112.5 134t-67.5 263zM1065 512q51 0 78.5 33.5t27.5 81.5q0 46 -27.5 80t-78.5 34q-46 0 -72 -33.5t-26 -80.5t26 -81t72 -34z" />
    <glyph glyph-name="afii59765;" unicode="&#xe55;" horiz-adv-x="1724" 
d="M1503 1802h221l-12 -180q-23 -278 -135.5 -421.5t-372.5 -143.5h-49h-328h-41q-184 0 -305 -108.5t-121 -297.5q0 -198 129 -301.5t297 -103.5h41h127q-45 34 -112.5 134t-67.5 263q4 105 79.5 204t211.5 99q132 0 213.5 -94t81.5 -209q0 -168 -86 -232.5t-144 -74.5
q19 -22 76.5 -56t149.5 -34h160v-246h-689h-41q-152 0 -300.5 65t-249 210t-101.5 368q0 189 77 340.5t224.5 237.5t349.5 86h41h230q-16 0 -21 90q0 127 72.5 219.5t185.5 95.5q87 0 136 -27.5t65 -46.5q4 0 4 82q2 28 3 47.5t1 25.5v9zM1065 512q51 0 78.5 33.5t27.5 81.5
q0 46 -27.5 80t-78.5 34q-46 0 -72 -33.5t-26 -80.5t26 -81t72 -34zM1323 1298q46 0 70 33.5t24 77.5q0 111 -94 111q-98 0 -98 -111q0 -43 26.5 -77t71.5 -34z" />
    <glyph glyph-name="afii59766;" unicode="&#xe56;" horiz-adv-x="1503" 
d="M803 242q116 14 220 116.5t107 276.5q0 197 -117.5 315.5t-299.5 118.5q-131 0 -253 -46t-177 -77v0q0 3 -58 193q-68 235 -118 346.5t-70 136.5l213 127q14 -29 46.5 -106.5t59.5 -163.5q24 -72 45.5 -147t28.5 -103q30 16 104.5 42.5t165.5 31.5q198 0 348.5 -92.5
t231 -248.5t80.5 -335q-1 -175 -79.5 -317t-212 -222.5t-294.5 -87.5q-240 0 -382.5 122.5t-145.5 299.5q0 154 77.5 247.5t208.5 96.5q130 0 210.5 -90t80.5 -213q0 -100 -35 -153t-59 -68h74zM532 336q50 0 76.5 33t26.5 77q0 111 -103 111q-98 0 -98 -111q0 -44 26 -77
t72 -33z" />
    <glyph glyph-name="afii59767;" unicode="&#xe57;" horiz-adv-x="1868" 
d="M1294 266h54q61 0 86 25q28 28 28 106v680v70q0 253 61.5 403t102.5 199l205 -127q-37 -46 -92.5 -170t-55.5 -305v-70v-749q0 -197 -69 -271q-62 -57 -217 -57h-324v618q0 17 2 64t2 72q0 122 -33 176q-35 46 -55 61.5t-26 16.5q-26 0 -118 -72t-100 -72v0q0 2 -87 72
q-89 72 -126 72q-30 -4 -68 -69t-38 -173v-98q5 1 21.5 2.5t44.5 1.5q138 0 230.5 -97.5t92.5 -250.5q0 -145 -93.5 -242.5t-229.5 -97.5q-132 0 -222 98t-90 242v290v152q0 165 57.5 288.5t137 188t141.5 64.5q29 0 41 -13q46 -37 116 -92t72 -55q8 0 73.5 55t107.5 92
q117 0 225 -102q95 -100 119 -231.5t24 -337.5v-357zM492 221q48 0 77 34.5t29 80.5t-28 80.5t-78 34.5q-48 0 -75.5 -34.5t-27.5 -80.5t28 -80.5t75 -34.5z" />
    <glyph glyph-name="afii59768;" unicode="&#xe58;" horiz-adv-x="1790" 
d="M557 0h-131q-73 77 -182 256t-109 387q0 189 77 340.5t224.5 237.5t349.5 86h41l377 -29h37q262 0 262 319h221q0 -193 -95.5 -379t-387.5 -186h-37l-377 25h-41q-184 0 -305 -108.5t-121 -297.5q0 -121 44.5 -220t74.5 -140l234 381h32q25 -47 77.5 -137.5t90.5 -141.5
q92 -110 155.5 -143t86.5 -33q-23 21 -58.5 80t-35.5 149q0 115 82 205t213 90q119 0 202.5 -98.5t83.5 -236.5q0 -115 -54.5 -211.5t-154.5 -153.5t-229 -57q-193 0 -312 106t-159 176zM1356 311q48 0 75 34t27 81t-26.5 81t-75.5 34q-51 0 -79 -34.5t-28 -80.5t29 -80.5
t78 -34.5z" />
    <glyph glyph-name="afii59769;" unicode="&#xe59;" horiz-adv-x="1847" 
d="M643 -16q-134 6 -251 90t-187 229t-70 320q0 182 78.5 339.5t218.5 251t313 93.5q192 0 301.5 -74t145.5 -123q3 37 20.5 99t57.5 81q26 17 61 17q44 0 108 -41t89 -41q43 17 67 161t31 236l213 -74q-8 -134 -59 -350.5t-178 -267.5q-34 -8 -46 -8q-28 0 -69 14t-62 14
q-16 -4 -16 -37q0 -22 16 -102l168 -758l-213 -61l-127 565q-42 213 -170 356.5t-329 143.5q-175 -6 -284.5 -135.5t-109.5 -303.5q0 -181 89.5 -277t160.5 -112l37 -8q-26 16 -66 73.5t-40 168.5q0 122 77 212.5t205 90.5q127 0 213 -102t86 -242q-3 -187 -135.5 -312.5
t-343.5 -125.5zM823 336q50 0 76.5 33t26.5 77q0 111 -103 111q-98 0 -98 -111q0 -44 26 -77t72 -33z" />
    <glyph glyph-name="afii59770;" unicode="&#xe5a;" horiz-adv-x="1778" 
d="M426 950q-193 0 -301.5 110.5t-108.5 282.5q0 98 80.5 196.5t214.5 98.5q129 0 208 -86t79 -204q0 -34 -3 -61t-5 -38q10 0 98 82q66 60 92 111.5t76 179.5h53q160 0 221 -61q74 -74 74 -267v-1294h-250v1327q-41 -94 -170 -235.5t-358 -141.5zM311 1217q95 0 95 110
q0 111 -95 111q-47 0 -72.5 -32.5t-25.5 -78.5q0 -44 26 -77t72 -33zM1642 -12h-233v1605h233v-1605z" />
    <glyph glyph-name="afii59771;" unicode="&#xe5b;" horiz-adv-x="3273" 
d="M860 16q-233 0 -438 140q-201 140 -238 323q-20 156 -28 275q0 294 147 491q146 195 307 225q118 19 213 29q137 0 238 -45q108 -35 196 -86l-12 -180q-51 37 -168 90q-104 47 -250 53q-53 0 -163 -12q-97 -12 -218 -193q-110 -178 -110 -401q0 -226 123 -385
q121 -150 377 -156q236 0 401 201q162 305 242 442q68 -98 139 -204q73 -99 106 -99q25 0 115 152q83 149 127 155q31 0 90 -106q29 -52 51 -91.5t68 -121.5q104 140 147 205q73 100 103 106q26 0 147 -200q123 -197 209 -197q20 0 107 33q94 35 143 151q43 116 61 226h148
q-15 -83 -49 -222q-27 -115 -94 -188q-65 -72 -144 -111q-73 -36 -147 -36q-123 0 -254 127q-125 125 -131 200q-56 -86 -127 -176q-59 -82 -115 -106q-37 0 -61 24q-11 16 -164 262q-78 -112 -144 -192q-68 -86 -98 -86q-43 12 -110 114q-54 87 -78 119q-57 -194 -230 -372
q-164 -171 -434 -177z" />
    <glyph glyph-name="endash;" unicode="&#x2013;" horiz-adv-x="1286" 
d="M1139 590v319h-1094v-319h1094z" />
    <glyph glyph-name="emdash;" unicode="&#x2014;" horiz-adv-x="2388" 
d="M2236 590v319h-2191v-319h2191z" />
    <glyph glyph-name="quoteleft;" unicode="&#x2018;" horiz-adv-x="647" 
d="M328 1638q39 0 97 -33t58 -143q0 -81 -49.5 -132.5t-105.5 -51.5q-83 0 -138 70t-55 204q14 188 119 292.5t172 137.5l57 -69q-39 -32 -97 -107.5t-58 -167.5z" />
    <glyph glyph-name="quoteright;" unicode="&#x2019;" horiz-adv-x="647" 
d="M328 1622q-41 0 -102.5 33.5t-61.5 146.5q0 84 49.5 132t114.5 48q76 0 126 -67.5t50 -202.5q-10 -187 -113 -293.5t-170 -140.5l-57 74q41 32 102.5 106.5t61.5 163.5z" />
    <glyph glyph-name="quotedblleft;" unicode="&#x201c;" horiz-adv-x="1049" 
d="M328 1638q39 0 97 -33t58 -143q0 -81 -49.5 -132.5t-105.5 -51.5q-83 0 -138 70t-55 204q14 188 119 292.5t172 137.5l57 -69q-39 -32 -97 -107.5t-58 -167.5zM791 1638q42 0 104.5 -33t62.5 -143q0 -81 -54 -132.5t-113 -51.5q-77 0 -129 70t-52 204q11 188 115.5 292.5
t171.5 137.5l61 -69q-42 -32 -104.5 -107.5t-62.5 -167.5z" />
    <glyph glyph-name="quotedblright;" unicode="&#x201d;" horiz-adv-x="1061" 
d="M328 1622q-41 0 -102.5 33.5t-61.5 146.5q0 84 49.5 132t114.5 48q76 0 126 -67.5t50 -202.5q-10 -187 -113 -293.5t-170 -140.5l-57 74q41 32 102.5 106.5t61.5 163.5zM807 1622q-41 0 -102.5 33.5t-61.5 146.5q0 83 51 131.5t113 48.5q76 0 126 -67.5t50 -202.5
q-5 -188 -107.5 -294t-170.5 -140l-62 74q41 32 102.5 106.5t61.5 163.5z" />
    <glyph glyph-name="bullet;" unicode="&#x2022;" horiz-adv-x="938" 
d="M98 811q0 166 109 286t260 120t255.5 -120t104.5 -286q0 -167 -104.5 -286t-255.5 -119t-260 119.5t-109 285.5z" />
    <glyph glyph-name="ellipsis;" unicode="&#x2026;" horiz-adv-x="1868" 
d="M328 0q-77 0 -122.5 55t-45.5 129q0 77 44.5 131t123.5 54t121.5 -53.5t42.5 -131.5q0 -75 -43.5 -129.5t-120.5 -54.5zM950 0q-74 0 -119 56t-45 128q0 75 44 130t120 55q80 0 124 -54t44 -131q0 -73 -45 -128.5t-123 -55.5zM1561 0q-74 0 -119 55t-45 129q0 77 44 131
t120 54q81 0 124.5 -53.5t43.5 -131.5q0 -75 -44.5 -129.5t-123.5 -54.5z" />
    <glyph glyph-name="f700;" unicode="&#xf700;" horiz-adv-x="1323" 
d="M893 672q0 180 -90 246q-65 49 -168 61t-275 12h-241v168q28 117 146 292t374 175q122 0 262 -53q136 -49 221 -49q37 0 56.5 6t25.5 10l45 -242q-9 -7 -39 -17.5t-84 -10.5q-110 0 -249 57q-92 41 -197 41q-120 0 -188.5 -50.5t-90.5 -84.5q424 0 582 -123
q88 -73 117.5 -157t29.5 -212v-413q0 -201 -69 -271q-62 -57 -217 -57h-148l-86 303q-13 -10 -46.5 -25.5t-80.5 -15.5q-100 0 -191 80.5t-91 239.5q0 148 87 233.5t195 85.5q228 0 303 -307l78 -328h29v406zM483 696q-47 0 -74.5 -33.5t-27.5 -80.5t27.5 -81t74.5 -34
q50 0 76.5 33.5t26.5 81.5q0 47 -26.5 80.5t-76.5 33.5z" />
    <glyph glyph-name="f701;" unicode="&#xf701;" 
d="M-1204 1892q-200 0 -329 -14t-179 -23v189q14 53 67.5 159.5t183.5 213t331 106.5q288 -5 413.5 -183t151.5 -296v-221q-75 17 -247 43t-392 26zM-1130 2290q-152 0 -230.5 -71t-101.5 -118q24 6 92 15.5t194 9.5q133 0 238.5 -20t151.5 -33q-23 53 -103.5 133.5
t-240.5 83.5z" />
    <glyph glyph-name="f702;" unicode="&#xf702;" 
d="M-565 1823q-75 17 -247 43t-392 26q-200 0 -329 -14t-179 -23v189q14 53 67.5 159.5t183.5 213t331 106.5q139 0 226 -49t118 -82v311h221v-880zM-1130 2290q-152 0 -230.5 -71t-101.5 -118q24 6 92 15.5t194 9.5q133 0 238.5 -20t151.5 -33q-23 53 -103.5 133.5
t-240.5 83.5z" />
    <glyph glyph-name="f703;" unicode="&#xf703;" 
d="M-1106 2519v12q3 111 81.5 197t201.5 86q128 0 205 -92t77 -223q0 -108 -44 -169t-74 -81q7 0 49 -82q9 -20 24 -61.5t21 -61.5v-221q-75 17 -247 43t-392 26q-200 0 -329 -14t-179 -23v189q14 53 67.5 159.5t183.5 213t331 106.5q2 0 10.5 -1.5t13.5 -2.5zM-823 2621
q-50 0 -76.5 -33t-26.5 -77q0 -47 27 -81t76 -34q46 0 74 34.5t28 80.5q0 43 -27.5 76.5t-74.5 33.5zM-1130 2290q-152 0 -230.5 -71t-101.5 -118q24 6 92 15.5t194 9.5q133 0 238.5 -20t151.5 -33q-23 53 -103.5 133.5t-240.5 83.5z" />
    <glyph glyph-name="f704;" unicode="&#xf704;" 
d="M-1098 2519v184h205v-233q-2 0 -2 -1q0 -5 55 -36q4 -2 9.5 -5t27.5 -22t33 -30v327h205v-880q-75 17 -247 43t-392 26q-200 0 -329 -14t-179 -23v189q14 53 67.5 159.5t183.5 213t331 106.5zM-1130 2290q-152 0 -230.5 -71t-101.5 -118q24 6 92 15.5t194 9.5
q133 0 238.5 -20t151.5 -33q-23 53 -103.5 133.5t-240.5 83.5z" />
    <glyph glyph-name="f705;" unicode="&#xf705;" 
d="M-770 1843v680h205v-680h-205z" />
    <glyph glyph-name="f706;" unicode="&#xf706;" 
d="M-1323 1892v226h29q83 5 119.5 20.5t44.5 24.5q-42 16 -105 82t-63 204q0 123 74.5 211t207.5 88q136 0 215.5 -99.5t79.5 -203.5q0 -140 -56.5 -213t-94.5 -94q32 5 98.5 25.5t134.5 64.5q140 99 189 222t53 184l221 -70q-5 -73 -60 -221.5t-242.5 -297.5t-537.5 -153
h-307zM-1016 2318q49 0 76 34t27 81q0 44 -26.5 77.5t-76.5 33.5q-47 0 -72.5 -33.5t-25.5 -77.5q0 -47 26 -81t72 -34z" />
    <glyph glyph-name="f707;" unicode="&#xf707;" 
d="M-840 2081q22 22 56 80t39 145q0 102 -40 153t-67 64l-111 -90l-94 74q-4 4 -14.5 10t-26.5 6q-43 0 -90 -57q-10 -17 -16 -40t-8 -34q4 1 13.5 2.5t22.5 1.5q97 0 169.5 -69.5t72.5 -200.5q0 -118 -79 -194.5t-191 -76.5q-90 0 -171 88.5t-87 235.5q0 297 130.5 429
t217.5 161l151 -111l140 111q43 -16 119.5 -75t113.5 -171q25 -74 25 -262q13 9 41 40t53 87q57 105 57 307l205 -37q0 -60 -20 -182t-90 -235q-88 -140 -218 -220.5t-200 -107.5zM-1188 2228q-78 0 -78 -90q0 -94 78 -94q86 0 86 94q0 36 -22 63t-64 27z" />
    <glyph glyph-name="f708;" unicode="&#xf708;" 
d="M-852 1843v680h205v-680h-205zM-442 2073h-615v225h615v-225z" />
    <glyph glyph-name="f709;" unicode="&#xf709;" 
d="M-848 2454q112 0 193.5 -89.5t81.5 -214.5q0 -155 -87.5 -241t-191.5 -86q-160 0 -256 123t-96 303q0 183 106 325t295 187q154 34 215.5 91t71.5 89l188 -102q-13 -53 -85 -141.5t-246 -117.5q-287 -47 -287 -147q11 5 36.5 13t61.5 8zM-971 2150q0 -110 103 -110
q41 0 71.5 29t30.5 81q0 53 -30 80t-72 27q-103 0 -103 -107z" />
    <glyph glyph-name="f70a;" unicode="&#xf70a;" 
d="M-360 1843v680h196v-680h-196z" />
    <glyph glyph-name="f70b;" unicode="&#xf70b;" 
d="M-995 1892v226q107 0 147 17t45 28q-42 16 -105 82t-63 204q0 123 74.5 211t208.5 88q136 0 215.5 -99.5t79.5 -203.5q0 -140 -57 -213t-95 -94q23 0 103 29q62 18 131 61q140 99 188.5 222t52.5 184l222 -70q-9 -121 -117.5 -330t-423.5 -301q-147 -41 -299 -41h-307z
M-688 2318q50 0 76 34t26 81q0 44 -25.5 77.5t-76.5 33.5q-46 0 -72 -33.5t-26 -77.5q0 -46 26.5 -80.5t71.5 -34.5z" />
    <glyph glyph-name="f70c;" unicode="&#xf70c;" 
d="M-446 2081q22 22 55.5 79t38.5 146q0 102 -40 153t-67 64l-110 -90l-95 74q-4 4 -14.5 10t-26.5 6q-43 0 -90 -57q-10 -17 -16 -40t-8 -34q4 1 13.5 2.5t23.5 1.5q96 0 168.5 -69.5t72.5 -200.5q0 -118 -79 -194.5t-191 -76.5q-90 0 -171 88.5t-87 235.5q0 297 130.5 429
t217.5 161l152 -111l139 111q43 -16 119.5 -75t113.5 -171q25 -74 25 -262q13 9 41 40t53 87q58 107 58 307l204 -37q0 -60 -20 -182t-90 -235q-88 -140 -218 -220.5t-200 -107.5zM-795 2228q-38 0 -57.5 -26.5t-19.5 -63.5q0 -94 77 -94q86 0 86 94q0 36 -22 63t-64 27z
" />
    <glyph glyph-name="f70d;" unicode="&#xf70d;" 
d="M-504 1843v680h201v-680h-201zM-98 2073h-615v225h615v-225z" />
    <glyph glyph-name="f70e;" unicode="&#xf70e;" 
d="M-504 2454q115 0 195 -89t80 -215q0 -155 -85.5 -241t-189.5 -86q-164 0 -256 121.5t-92 304.5q0 186 102 327t295 185q154 34 214 91t69 89l188 -102q-13 -53 -85 -141.5t-246 -117.5q-283 -48 -283 -147q10 5 34 13t60 8zM-627 2150q0 -53 29.5 -83.5t73.5 -30.5
q40 0 71 30.5t31 83.5t-30.5 82t-71.5 29q-44 0 -73.5 -28.5t-29.5 -82.5z" />
    <glyph glyph-name="f70f;" unicode="&#xf70f;" horiz-adv-x="2093" 
d="M1323 266h250q56 0 86 25q24 29 24 106v1225h250v-1294q0 -197 -73 -271q-66 -57 -222 -57h-667v266h102v746q0 203 -130.5 281.5t-242.5 78.5q-135 0 -212 -36.5t-103 -61.5h-1q0 -3 128 -41q42 -13 87.5 -31.5t72.5 -30.5v-180q-25 -9 -70.5 -35t-73.5 -67
q-45 -70 -45 -193v-28q7 1 26.5 2.5t47.5 1.5q135 0 225 -97t90 -251q0 -146 -91 -243t-224 -97q-135 0 -223 98t-88 242v417q0 131 37 201.5t61 89.5q-10 11 -99 41.5t-147 48.5v250q58 67 213 166.5t389 99.5q170 0 312.5 -62.5t226.5 -189t84 -309.5v-811zM557 221
q50 0 76 34t26 81t-25.5 81t-76.5 34q-47 0 -74.5 -34.5t-27.5 -80.5t28 -80.5t74 -34.5z" />
    <glyph glyph-name="f710;" unicode="&#xf710;" 
d="M-745 2126q39 0 119 29.5t151 125.5q58 80 83.5 147.5t31.5 98.5l225 -45q-11 -65 -63 -195t-197.5 -262t-390.5 -133q-241 0 -368.5 112.5t-127.5 285.5q0 100 80 199.5t219 99.5q127 0 207 -89.5t80 -205.5q0 -80 -18.5 -119t-30.5 -49zM-983 2163q47 0 72.5 33.5
t25.5 80.5q0 45 -26 78t-72 33q-53 0 -80 -32.5t-27 -78.5q0 -48 27 -81t80 -33z" />
    <glyph glyph-name="f711;" unicode="&#xf711;" 
d="M-864 1892q-145 0 -224 100t-79 240q0 136 79 236t224 100q142 0 220.5 -99.5t78.5 -236.5q0 -139 -78 -239.5t-221 -100.5zM-864 2343q-47 0 -73 -33t-26 -78q0 -47 25.5 -80.5t73.5 -33.5q47 0 74.5 33.5t27.5 80.5q0 44 -27.5 77.5t-74.5 33.5z" />
    <glyph glyph-name="f712;" unicode="&#xf712;" 
d="M-1020 2757q164 0 205 20q51 22 89 63t54 64l156 -156q-19 -26 -69 -78t-115 -90q-86 -40 -275 -40l-155 4q-111 0 -180.5 -74.5t-69.5 -171.5q0 -71 17 -111.5t28 -52.5l147 127q17 -14 46 -40.5t44 -45.5q35 -31 59.5 -43t34.5 -14v20q0 121 72.5 195.5t186.5 74.5
q59 0 115 -36t91 -99t35 -135q0 -131 -84 -217t-198 -86q-140 0 -244.5 72.5t-145.5 120.5l-184 -160q-52 40 -130.5 151t-78.5 279q0 237 128.5 348t264.5 111h156zM-766 2036q38 0 60 26.5t22 63.5q0 36 -22 63t-60 27t-60 -26.5t-22 -63.5q0 -90 82 -90z" />
    <glyph glyph-name="f713;" unicode="&#xf713;" 
d="M-770 2884v516h205v-516h-205z" />
    <glyph glyph-name="f714;" unicode="&#xf714;" 
d="M-1257 2724v196h32q73 4 102 16.5t33 20.5q-35 14 -87 70t-52 172q0 103 70 184.5t176 81.5q77 0 134.5 -44t86.5 -106t29 -116q0 -121 -46 -184.5t-77 -81.5q28 4 87 23.5t110 58.5q115 80 160.5 186.5t52.5 161.5l176 -66q-4 -63 -50 -191t-205 -255t-458 -127h-274z
M-983 3092q40 0 65 29.5t25 69.5q0 37 -24.5 65.5t-65.5 28.5q-43 0 -66.5 -28t-23.5 -66q0 -99 90 -99z" />
    <glyph glyph-name="f715;" unicode="&#xf715;" 
d="M-766 2867q19 18 46.5 66t27.5 127q0 86 -30.5 129t-51.5 55l-90 -78l-86 62q-3 4 -12.5 10t-24.5 6q-36 0 -74 -49q-5 -7 -18.5 -31t-18.5 -35q8 2 21 5.5t20 3.5q84 0 146.5 -58t62.5 -168q0 -106 -66.5 -173.5t-158.5 -67.5q-81 0 -149.5 74t-71.5 204
q0 248 110.5 364t184.5 144l135 -94l106 94q39 -16 107.5 -69t97.5 -144q25 -79 25 -225q12 9 37.5 37t44.5 69q29 76 37 151t8 111l172 -24q0 -54 -16.5 -161.5t-73.5 -199.5q-65 -108 -179.5 -180t-177.5 -98zM-1061 2990q-69 0 -69 -74q0 -77 69 -77q30 0 48 22t18 55
q0 30 -18 52t-48 22z" />
    <glyph glyph-name="f716;" unicode="&#xf716;" 
d="M-909 2884v675h196v-675h-196zM-504 3109h-614v225h614v-225z" />
    <glyph glyph-name="f717;" unicode="&#xf717;" 
d="M-901 3154q99 0 170.5 -80.5t71.5 -194.5q0 -138 -74.5 -214t-167.5 -76q-150 0 -230.5 107.5t-80.5 277.5q0 168 91 296t261 162q136 31 190.5 83.5t63.5 80.5l180 -90q-13 -51 -80.5 -133t-230.5 -100q-250 -30 -250 -135q8 4 30.5 10t55.5 6zM-1012 2879q0 -98 90 -98
q95 0 95 98q0 99 -95 99q-37 0 -63.5 -25.5t-26.5 -73.5z" />
    <glyph glyph-name="f718;" unicode="&#xf718;" 
d="M-385 -1479h-37q-107 0 -180.5 75t-73.5 212q0 111 69 197t185 86q129 0 193.5 -88t64.5 -195v-25v-528h-221v266zM-422 -1094q-44 0 -69 -30.5t-25 -71.5q0 -42 25 -72t69 -30q90 0 90 102q0 41 -22.5 71.5t-67.5 30.5z" />
    <glyph glyph-name="f719;" unicode="&#xf719;" 
d="M-504 -1540h66q33 0 53 20q25 33 25 62v524h196v-618q0 -100 -41 -131q-43 -62 -127 -62h-454v205h81v115l-21 -3t-28 -2q-103 0 -172 73t-69 202q0 103 68 186.5t173 83.5q81 0 137.5 -40t84.5 -103.5t28 -126.5v-21v-364zM-754 -1065q-82 0 -82 -94q0 -90 82 -90
q40 0 61 26.5t21 63.5q0 39 -21 66.5t-61 27.5z" />
    <glyph glyph-name="f71a;" unicode="&#xf71a;" 
d="M-328 -1368q102 3 157.5 68.5t55.5 160.5t-58 166.5t-159 71.5q-98 0 -155.5 -71t-57.5 -163q0 -91 57.5 -160.5t159.5 -72.5z" />
    <glyph glyph-name="DEL" unicode="&#xf71b;" 
d="M-1229 2064h1229v-2064h-1229v2064z" />
    <glyph glyph-name="f71c;" unicode="&#xf71c;" horiz-adv-x="909" 
d="M0 0v6l6 -6h-6z" />
    <glyph glyph-name="f71d;" unicode="&#xf71d;" horiz-adv-x="909" 
d="M827 -311h-176v102h-413v-102h-172v315h761v-315z" />
    <glyph glyph-name="000a" horiz-adv-x="3072" 
d="M512 0v2560h2048v-2560h-2048zM2496 64v2432h-1920v-2432h1920z" />
  </font>
</defs>
</svg>
